<mxfile host="65bd71144e">
    <diagram id="mspaDi8y_CRhVOMJPykA" name="Page-1">
        <mxGraphModel dx="1004" dy="790" grid="1" gridSize="10" guides="1" tooltips="1" connect="1" arrows="1" fold="1" page="1" pageScale="1" pageWidth="850" pageHeight="1100" math="0" shadow="0">
            <root>
                <mxCell id="0"/>
                <mxCell id="1" parent="0"/>
                <mxCell id="4" value="" style="shape=image;verticalLabelPosition=bottom;labelBackgroundColor=default;verticalAlign=top;aspect=fixed;imageAspect=0;image=data:image/png,iVBORw0KGgoAAAANSUhEUgAAANwAAADqCAYAAADJeSsxAAAxMElEQVR4Ae2dDZBsR3XfR7xNIBi/VUm4kMs7gRiISD07EKRK3hgToCB5OFYVjmGesTGxUhYBVwCxKxILLOAJ5PBhaTd24UAIqlAxJEIjUVYKxcglHGEDu1SBAymkgAOEeJev8FHSgkDC0lP+v773zPbt6Zm5szuzOx/nvHfm9u3b3bf73P73OX26791Gw8kl4BJwCbgEXAIuAZeAS8Al4BJwCbgEXAIuAZeAS8Al4BJwCRylBM45ypv7vfMSaLbXz9nurD3EMU7xUKNROY+v6YIu75Hl57gX66GjlkDfB3jUFVu0+8fgKoH1MGSgB/RgHfDEIFX+Y5Y3lqODL5bG0YQdcEcj90YCkPAc9POQgYtqEV5prwO8R4kfWR4foSOAIs8DJf+Vjt+DFfn9tAzuVYLwbHwPB6AkdsjEQ3M6JAnEIOOWgEAPoKLBBDDAdXHJT9DxceILxI8u+eE6xqRiGrvib4m/Ld4Wf1n8OfGW+K6dztpZu3cJYNBKvgBqu8a502Ql4ICbrHxD6dahOaqXB5nT4UsNtqREJ8RPF18ifooYcAWzUMccAZazYrTfoGd4v67viO8Q/5H4EwLfDvVQOAt44p0mJ4FBD2tyd12QkocADa31AvFp8VPFPyKO6UGdACx7RoPAFbSV0gJCiHMzO0NE+fM1Hf9U/F7x7QLffTYI6CahDDNH3dwsJTbmgz3MMRe72MWZBrHOq558Dh261GiA61+IXyhejiQFwKBBwCpSjPYLkAyIsdb8vOLfLX6vgPf1GHhWbwfdaIKuk5qH6zRGCZhWo0ibLzGHUq+/SOc3KPrj4peKARtgME0GGHJaSdEHIgZVK9vuR4EXin9H/Oeq1xldeDT15ILVm7ANHoSdDi4B13AHl2EowYCWagp13scpwevFLxL/dTEEyGJtEyL5aYq3g9+jG3WAQLMsL1sE4ANgVo//q/C14ndjahro0MyKC+QazySx/6MDbv+yCzkNaJzQSemgpel4XFGvFL9avCy2Dt7HZNxWkoKAycqKymuuNJoKhDDQKf6XqZQg+EMKt+TOtvLLPbKpnx0dG9s7jc2dvTLJXIC5zL53SOv1GV26Uu24jSS62DWH47buZffQKBJwwI0irSitdT6ORFvHLMPP1/FN4icVlyqahCSBYm0WQNZaabRPrjRaTQAHoPZPAXObO40tgW5zc0vgoywDIHfuoQfLmGM6AsIPiK+StvtcrO1sfkda13hIYTRywI0mr5A6Bpt6ZnctTR3zYiW4RnxKTKfFZBuo0VorzUardbLRbh0cZLpXX9oU4jpbm40tab7truYbCrx7VeC/Ff+ugPdNAx5zPRtoHHR9RZ694IDLiiUfmQCta2qpI+Liv1J8mRj3voENbdGlWKO1VlqNdlvarNVqHEyXdYuvFdiRvdnZ3BZvlcDLgo6y0Hg2WHxR4d8W/4HA9gByUAO77Te56LrTEAk44IYIiMvxaG6djVFeQFvS5ZeJAdtPiOmkUAVoRVRhzjWl0a5rtwW0w4RZUYP4l3leZ3Ozsd7ZUjR1qwW8jyghZuZHTQ7qQD3b0eL7eLgqAQdcVR49ZzZ6px1MYMNsZNS/SGwazTRCKIcuXMBsW86PZmMV07HdCtem5QeNt97ZFPiEwP7AiweSB5TwD8SvF/DCrhXXdvWfpgOuj6wGAO0JynKN+AXiY2I6YwVoOi9JQNM/TMd2qx28jXZl2o6bAt6GgLcprQdR72KwqNQ0but3dOVtYuZ3lWUEc6z4/K4iu3DigEtkAtCIorPETgKFz1X0qvhy8bLYtBqgS6joqszPVqXRWgf0OCaFT/S0I9BtdOd33Ao93UMx8O7U1avE/7U0s7tLIzZo9eRe4AgHXPnwrXMY4DCTyg60pCRoszNidmcMAJquSi/geWy38TxOl/lI7eqQze86mt8Vi/BZ0MVyIPzfxFdKZp9FhshPncvnd4nAFx5wBjAzg9RRYjf/0ySvq8XPFscdLBEjp4X5uCqgtaTVjtYlkqnePqL25neFmdlH28Vy+b5u8w7xtQLe181CAHh2+0U3MxcacLFWU4/ojsjqKOAFM+lS8cPFcafSaUyYj9Jo8jquAbQZMh/jVgwKs4a30el0d67UmN/tqDwGKjZGd+d3WAzcx+ROeNFoIQFnD5xjArRHqAO8XPxq8WPEzFWg/vM0vI9rcvPPIdCKpu/9Mr9b6y4jEJ81NZGZyetjCrOMcEcq65Bb8l80jbdwgBsAtkvUCa4RP1mc1Wh0L9tYHNz8MzxPU1P2RWZmbknr1ZzfAcAbxGcEvC+kwLPnsa/KzGCmhQGcPdj0gct8PKHnxnra88rnRwcZ4uYv1tOwOxeVWEZA47F4DtUwM+9RsmvFvyfg7cbzO5s/L4K2m3vAATA6BA/THjJzCYV/TNFXiDEh+27H0jUR87RG8DqycL0I5mNocI0fALeBN3P4/kwbxHjx9fXiD+g5PKDnsKQHVPmuS43bzmySuQWcaTSeTAI05mm/LH6D+LHirPmoeFEBNNz8q1OwHauo0/T94iEptJ0BD+O7h1I5364UrxHoPplaHfGz6yllxiPmDnDxw0ofpID3TD2vN4qfLk47gKJi2nPzT9t2rLiW0xS2+Z2ZmX2cKrHcWUZ4j/hNAl5lGWFezcy5ApyBLQO0J+ihvlb8z8R40IbO007OsZtf7Z8o7WMZ4RuqEA6r/yjg3RtbJDxLKjsv87u5ANwAoDE3u1y8Jj5fHI+uOo0pMh8XxM0ft34S4TC/27DdKtwha2oy+DEIQp8Ss4zwoXTQ5KI9Z8KzSjMPOHsI6QPSKPkLeiiMmnghs0Dj8S+6m18imCgV28Q6muPVXkagPjeL2SZmywjd3T/2vCda6QkWPrOAM8FngPYUyQug/XwpN0ZQ85CVUXYoXptpl6/NLLKb3yQyqeM+lxHervqwTezu9Dnb859UfSdV7swBDkGbMKS2QlgPBDf/BYr/TfFviPtux4q1GpuL53U7lslo2o6YmWyKLj5wxOqd+YIrNY0HyS/qytXi/6Ln3LOMQK5Zmt91Oy8Vn2YyoGXW03DzXyq+SvwT4qz5qHhRNE9zN38hkiP65d27Ed5GoJZ3iF+rDrvFCYOtwt23EWYFdDZZpQ1TSQBt967bGssnToXB4fiJU+F9K412LGQ/R5X+T+KXio+LbWTEhIwIoO2Gt64vO3WqsSanyIkmyZ2OSgKtE83GKX04aXeXvzbCK3UKVD5EHawXnqMNoD+pMOunKMVP6/nfQ18QA7wGfcT6ik6nlkInntbaIUBGLo7xiCagPUl1fp2YB0AbDGiZ9szOW9dqx0JS+rb5AG8m8kFJfFv8ZvG/F/C+p/4AMBsKT/3XxDIdlKofLQ0AGmrpCvErxeeKbfTLaGq0WiN8FWt9Tl+bCQ2co58RtonZ8/6Mmn+VOvGtiCEelOlDxE2bqTlVgIuFZFrNRi0J85ckvzPiC8VZoGFrmJt/1t+6VlMWknbU6n1sE7tF2Vi/s7fNp3YZYWoAN0CrXSxhvkX8bDE02Hzk8wZy8/MtEafZlUDNbWL0BQiNd6+YZYTrBLxv2oCtDj5VjhVTzarn0RCCMacIk2DVInxLROELxG/V+e+LnyhGuGg26twdKNBqu8H7uBt2869fdkqTcda6nWZZAsePHw/PsbVyQn8rQX8vYXdbzZHjS46V3b2G0V9g+gZ/KOVnxafVb76n4/8U8B6kT8nhptPpcKx0O26o0SH+ADRul3HzP0rRl4px8z9GHI9iOo2Jh6B5mr5ivLrmr83Ekpm3MGZmeA0oDK4Msz1k04wwaOvqx8T8UZKPlX1sKl4DOnTAxUBL1b68Tc+VkK4RXySGABsaLaECaIv61nUijIU53TMzd9Rm+kAWePEAfb8SvV/8Bmm7L6f9jfPDdqocKuCsgdZwCSK4cgU0bMDXiU+LqRNCs5FKwZjMzV98hm4BPiUSN97DksA+lhG+o2zXiXnbPCwjqJN153YI9bCAd2iAS8GmhrMdCzf/vxa/SvwjYjMLKlqtqQtd76O2Y7mbXwJxCp93iN82r/GZh89JbP9Knf5WxKfOdui7VSYOOIBG4zJzNczHa8Vot+FACx9XbYfP0Sm9k0ugK4GwTaz7tWiG5x5K+xdm5qs16O9o0D/Uud1EAZdotWNqIJtP0WpvFF9eiqWW+ehu/lJafshKgPndmhwr9rcRaszvvqGCXqk+eaNNcbC6rM9mbzKGyIrpNobyukVYxcvGGNieogQ3i/+pGKAx8lCHBPhMiJelzU401tfczS9hOA2RAMsI9JdiGUG+gd07lWPgMsKPKsEvatkAT/gdAtsPpQzYpzvRfZkTAVwCNtbVHlRjXqC2fED8t8SAjXvjGIkIoO0W27EEtMtOtRoI0sklUFcCTW1Kb586oY3qx7Up+ruN7bB+t5xmp98x2MP/QPw0Ae929VM2RC9pXfgsm+VZHx43jR1wGbDhHHmVKv4u8d8QG9gUjKl4GfTMr59qnGmfajQdaLFwPDyiBE7o76Sf0hsJyxqvN+/aVW4G8wrwUGYAj/6IEniewPZxgc7mdQ9N4g2EsQIuBpsagMufV2iuVvDNYkYTa6SCRoVW40XQM2u/Hv6gvF3xo0vgIBLAOmqdkJmp14B27rTdKhXQUbyB7nyFAd2n1W+/EGu6cWo7ADAWSsFWeiXxQl4hZhShYcn9Cq02DX+CV3VzmnMJ4M20P7GcWUIwy+teieEFAt2HyjldWK8bl2gAwYEpBpvUWFi9V2XZMTIQbHzi4Ma11SP/e9cHFoAXMBMSwNN942o7vIjMum6zWutjOgV0rAffoP77TIHurPoz8eHlVo4HpbEAzipB5aikKvtyxf2W2EaNHs22pk8crKvxvlPEpOfHw5BAS98bvTF8BpE/qbyd3tJAh935n9WPn6T+zFLWw7DYUCxphlHPA3pHzRSnN+1GpVQ5vJGX6Pq7xUtiKhhVkgbu6sM9bX99RpJwOhoJhCUEecB3dnbLzzuAry7ZnA73eEtzOf4Gwr3WzzkexHsZgaF7w9qBuBLlnO1JynyHmLUNKbwUbE1ptdn9U7xqj9OcSWBtQ9/MDH8BKDEwG40H1FSUxs0CSTtuNn09Ph8lfGCT0kAnzUbl3iEGbJiSCZgdbJKJ05RJgGlN8bfYsb4qRH+mHz9f6LockOl47KCm5b4BZ0CjEmU1r9TxmWKbt5XRHLa14dg1WyQQD06RBABdSw48+mmi5wwf10ihXDyO+ZwVuK/ml/M2JpUXqwAAB3XLLCq/HT626n+BphCO/06nBNblV+D9ysSRgpWGAsFz+RaUjEDX/TLYflrSBccombkx6fVjnptrdEqlqFy4pmOoPCMHf1vNySUwzRLAW36dvJeZb0FjwdGvny1r7qW04SCm5b4AV9qzYb1NN/9V1eFUUY+ueanTYlGbd9ecXAKzIAH+su2qnHoZMpxcKWtuBdPSlE4m7cAoK2hgovgiNzLVqps/StcuL6+fjdMRXtW8bcUX2lKx+PkUSwAHijlRiilRqKyZlo/V2cuIkaIJltyowBsZcPHNFH6h+CIxKtecJwpuh0oXFdepk0tghiTAvt7MfM6w8rJSywUFM+oSgRVSSxyGZiaOuil5A9p1rJSDHexOkloi9URTKAGsMr5tmpBpufMVfynXpOWOGSY4r0MVoAzLYGsRZbpf1BHtBnUdJWi3k+0VvQioWaiTS2BGJYB1hpajP0dkePlVKZxzmctxbRTQWQFRmf2DFCxkYT5CmJOQnSvIOkazsRbWNMI1/3EJzKQE0BcDtNyFatRzaBhzuVHMytqAMxRTuND9BN3rudxQFM3dGg3+GL07SgrB+O9sS6CPlrNGXWoBsGH4sLh+x9qAK81JMx0Bm627Vcr2uVtFHH4ywxJAy6FAIIzLkgwzF6N48GeMouUssxXW95gg+JLehNthe4zP3Xol4zGzK4Gg5QS3aCZnzhP2DD+zbNnDEnz0bXAtwFlhpXcSyP9du1FcctsdJbE4PDwHEkCBFN06gtxeu55FUAiM/Bh7F3OhWoBLvJM/o4J+XCxNat7JwlnCtyOcXALzJoGM88T8Fs+SWXl87E6TUsPZTpKnlgKtoJpRwJ0l89bVvD1IoFAkWWWC4vlJk5JZgnaeO9bScGSMFrsvKgvClu1Sq3ehsHvNAy6BWZYAiqTwnVTMSiw86Gn84DjhOIxqA64s6LiOP12GTa2G05NhkbC84geXwJxJYKXZ4600i88UUPjuybBmjwq4R6tAvDM9pO9uOrkE5lYCzcJzkmvf3yQSx8nYTMpIXbLgnVDxGk4S6acugbmSgOGtYlQWLbyAbV51HSejarjHlVI0+zWcomzdYVJKxg9zKYGVsPRdMeMMO+epwefS6EgxcZoly5S9GEVaugvKOLNfi9PSvo3Se9AlMFcSYMpUgdte65YVBHS1yIBUK7ESnRsntAoU08n4ioddAvMqga5RaV7JR6qlMDQUT0MTFOV0f/FSOrkEFk8CNomrtvzB8vQR1ej+Z6MC7uH9i/IrLoH5lUCw4npNOfNlOODm99F7y6ZQApU16UH1G1XDLQ0qzK+5BBZUAmZaDm3+qIAbWqAncAksoAQmpuEWUJbeZJfA+CTgGm58svSSXAJDJeCAGyoiT+ASGJ8EHHDjk6WX5BIYKgEH3FAReQKXwPgk4G7+8clyrCXtqLRN/XT0s6nwDhElsf7KC5Hr+uBu71qspfLjNErAATeFTwWgbeinE4EsribRgNBp9iTggJuyZwbI1gS2WKPlqsgfAXPtlpPMdMf5HG6Kng+arQ7YqLJ//3OKHtwIVXENN4KwJp0UMzKn2WzOVnzIptBrbXs3atKV8vLHKgEH3FjFuf/CMCVzczZAtqof+Uec5kACDrgpeYh4I1PiFazrBLZCs6VX/XwWJeBzuCl4akAt53VEqznYpuABjbEKDrgxCnO/RW0LcencDe3W9m/F7FekU5vPTcoDPpqdFCkqb9QvmG11P5OxVxl8IqNot42gIvfMUj5c6vO+PXlOS8gBd4An0el0Gmtra5USOF9dXa3EDTvZbuwBxdKeHMFJwvRvXcCPsd/WSdsRZ+KcmqMD7oCPIqfhRi1yqxdvjdYI5iTZY7Bxf1+nG/UpHE56n8Mdjpz73gWgpBYlym0EBdfYZBKYkP+ph0QgU3LqgDviB5FuTA7VEdpGUHA92g2HC1u/nKZPAkvTV6X5rBHzrF49pOWAjHbCYZJZlguCQfPFzhTKTJcUyJ//jGIown+OUAIOuEMQPmbjaSEonWf1uzVg28xtO1EGwPbxyBmSW1IYxeHSrw4ePxkJuEk5GblWSmWOVhdslYyZkxRMuSWF1kgzwMxNPGpiEnDATUy0ewVj9o2LUu9luqSAyekOk3FJe/zlzK1Jibt+lAVoc++PkmeUx4EpCBhiAojpXI00OExyaYmL52+U1bOkoESjOFwowwaE9J5ccxqvBGYOcCw2xwRAWq2WTDZ9imBzs8F1Aw/puN5utwPH+QiTljxbW1vdS1YeecYFPqZcuUVoXsdJAQegbozmaN2KZQKYqemSQt0XU7kvrd7WJDAGXFNoBXi5ASJThb5vOAwCL/VOHT12z9w9iKOOqayG5elX1lHGLx3lzfdz79OnT1eysaujqT/exQ6PFIyWkHgAtL6+HkAEIIelJy1MvklR2um4zyjexdySwrD8dFoNSY0dIZVOHBPnW6XXtKPr7OUchv3coMGAMSgfL9mmPiHStwZkot6nk0yrJxkYBkE7bt10hJemoxr7rwXgAYRoqkFkYAREg8BmZRgoOZ8E6OjcjPQppXO09Hp8vpNZUhiUn/7aiTRaXNZ+w7nuDph7bOLyBqEOmXYHefTJxjWAHRMaeG1U2zku4IjCS0d037Hd1oBUp0DSAqRh4LSySLuxsRFM1nGZl1Y26iU1B+m8uQ7czZMEkj4YtGO/Be9+YIvvZ136pDrymi7YNYu387gaQcFYgvJC4cjpTU2yFDhWVpAFCXqzBVMybSvKcMaUW2jqkjV41o82V8O8hGw+l7YrBhtzv1h7Acj4elzOqBuS0/um5zlzkM5Wd9Cmb8IxhZb36bCpZiMZJqM5YdbLHo2GDJ25LJjoK/TDcsS6JY5u2gwISWsSJYiClFXeJootgmj7fooxfTkXoLUzdekpdAojlqawTiNXCeBcd911QRNZZgCCdsJ8zFE8p7PrxOXMTUA4bsAFs8tuXB7rOjxIjjWZWpR0RICUUpizRZGa+oQOG2tDnCXMVuN+jFa0jxpxL76jEl+nyLAEsedzIqpnILC4ftotZOqTL2eCxtrX8s7KcS7W4QADoEuJ+FiD2XXSmgPF4jiiJcmTmo+YluOmzUy3HMVEokZprXIL3miUGNwAEu2QSis4LRK0su3Mms690JIpJVmKy73J9EHbqnbLDQ65OWlWu9U1A9LKTsH5zAMO8OTAZrLNXTt58mQPqOL0ZpZaHMdxgo7+aB05vscgh0ecjnBuD+bJwpquJEX5xP0/mJGVFMVJDjg4JeJBAG0Tl2XFpHnTNLSV9/ViWlPBKW7SOW3OBA3aLb1hXPCUh2cecGijVCPFMs9dy4FwWJ74+oHD6ntp56IPjdKP0gVvgJF2YOrJOpsR5acmoV3LHSkz9tSDmai4kCXcM1PxvbsKbJGmJBN1aEvFptkSTDY2yBdVLNQn18gozbQHZx5w0y7gXP3G4TBJAYuJ2NOBFRd32FxdhsUVTpG9VLnyUsUa1w0thWaMic/+UVcAFBPJLGnQbsnccFY9k3EbHXCxNA4pHM+p7JY5wNi19IiWSbVB2nnTPJyHTp67MCBu2L7MvmWWyAneUUOR7gNoTGumYA5AjfNF9aJ9s7juFjUhBB1wqUQO4fygDpPsGwI1TC36ctT3a7U0NzikGXvArpsAnqDdUi0V2bQpmIPJavmSis6DdkNuDjikcIgUOn3Smbj9SA6TBDb9tEyIT4CYzsGGNX0zUqUAizKHkTUvnYPF2o0yQv2SAsmbasV50W602QGHFA6T1KPiOQ63Dh2vZh3okBEGQi4wleCqW1rs/g+duXtleCD1EjJXixRUt4DUNOQCoNmMtBttZO4WU6h3HKEw+dI537xoN5rqgEse+KRPcw6TQYBJ64OGGgWw9PFqN696/ig/BRZxgJodJoDUqN1jOxZXUtOQ2A2BLc7bOtkLVupVrZsAR74o4zxpN+TigEMKh0i5OVGu4/WrEn0x7pCkSxRHJStlY65yZA2O9a+4k6NN+PxDPC8EgMRxNOIeuPJzRHlxmWkaQLPKqJKhPhjuppwn7Uajlrot88ChSOCgDpPcgjdfWR5EdFot9VeACZbYP4kmgrZXMOVWuqZghLXgvjdXfpG6+huWBahCnClKwv37DQqD9mICRgaJeSIH3CE+Tfpjqp24/SgOkzQ/nbKP4um2jC4baxI0F/sa47kSwNtIV9PJJ2bTMqDpS7oG6HJ4Gwaa3F5Mu88goFqaWTs64A7zialHjjL/SqtGh2YOGBMdPQZTfC0XBmx1vyCGVqrzt+kGYXEYaMgL07aYhgE1TjtL4aVZquys13UcDpNUw6Vf8RomIyw05nG8QYADJu3o5A/zNaVjkzNgqEMB9ElhxA1brA4WIzdJ8g4Dap06TWOapWms1KA6pbv/6+yLTPPk9lfG90zL7Ldfk/hRyj6owwRtti5vX0y8LDoKkXpVNqjeiQhOEfp5US9CKw02QFPkaKWWcy1GA8uoYACsnfepJJfZkBw0d5k2xI3Yrj7FT1300tTVaEiFbrzxxiEpqpcBTwqgaoreM17RgYfRqGUf1GGCxlgNqmRYzepdR5MFCkc7qZc3TYVGyn0oKU2XO8dsHS7tXM7Zi/NlgUN6ZuiP1Bzk1qM4TA6pqn6bCUrAATdB4cZFhwVrUBcROuVgeiUqzIMzIQEH3CE9prA/MLkX05Q5naokLfVTk4ADziQxwSPrXWxZSgkPo2u4VCrzfe6Am/DzBWzhQzyZ+8zbLopMEz0qkcBScu6nB5AAi8rFl4tXtMCt/Yk6Jy5Hbbn3u17CXAKPm0sJOODG+FiZpxV7E/ugrLwXQOu3mXeM1fGiplACblKO6aEAscxWxJ7SWUa7Tohz7dYjmoWIcMCN6THn3P5p0SwO3+hgS8WyUOduUo7xcQcXv1RdbFCi0dBmOEgAnNNiS8ABN6bnD6jiv709pmK9mDmTgJuUc/ZAvTnTLQEH3HQ/H6/dnEnAATdnD9SbM90ScMBN9/Px2s2ZBBxwc/ZAvTlHIoEH697VAVdXUp7OJdBfAsf6X6peGRVw91Wz+5lLwCUgCUxMw93v4nUJLKIEwmaGeEdDIYRzSln8VV2ZjKrhfli3YE/nEpgrCfSCjeYZfmorIstQVzb3xAnTbyzG1zzsEpgvCWQRZxpuYoD7Vk6I2arkEnqcS2BGJbCnXPhYYaCHyiNK6Ltl+Gx57Huoq+GsoK+VJVXzaau8g66vjP3CHEiAb3duV7+bbZi4W82DG1J3BkJOs1QFTjZJpaC/KJOYKg2n4fNvuW/A9SnPo10CsyaBndxXfItGfEOHr9dtTy3ARYV9SeHEXm0G5O+p3Ci1B10CcyKB7VKhdA3KvXZ9baez9sBKe31pL6p/aFTAfU9F/Z+yuIr63Nl2yPUXs1+ZFwlkevnnrG3bnbUKJiw+PtYGXLO9fo6QfK8yf6YswGzYcLpZ5/sC8Z097BKYEQnsSLsVH4eqVPhYefbJ8ngWjFRSZE5qA07QTW9QQXOmQpnbeZRLYPYkgPG2HeZwPQblA2rNFi3CYTI2DZcUBKLZyhLZrJrHyU252e+bcNTIySUwoxLo7KR/la/rjcTayy6V9WtqLQ2HqhSCARkEor8QQmVcgfttfbWqp2JlMj+4BGZXAlu9isSwcLumWffJYVILR0igVkI0HEzB3ED5PhGLzyaSHVXMVwdiyXh41iXQ2dzMmZNm3QVzUm18WGIF9m12LcCRO5kQdnpLxKzcbmxuu5brlY3HzKoEzBlYWHGhFea7+KLO/oQYrL8EHyFh7qc24EAwE8OykI/q+HkxjhSLC5c68V9qDzH+4xKYTQlsylzDapO6ifeYmHf+g7L2drH6zAKs08ragLPCWODTje7W+R+WcVYBnTb1Lf1Nd56UgvHDbEug08FaswlTty2GmRsspq52I71ltrwDj6WWswnje5WYdTm0XIU2ttysrAjET2ZOAmi3Ps4SGXqNW/UT/BhYfXXnbwhhJMAZkjlKy31W+T9IISIDoYLScppoMtl0cgnMqgTQbsVm5Wj2toeX9wIyrL1RwIYsRgKcFa5JGyiH3i5mDter5fQXCN1jiYicZk0CzNts7hbVnX5Ov/+U+CbidVLbWUJ6aCTAkQHQoUZLLfdRRb2feFFXyzWZZMpj2dnMODOLtP7rEphKCeyoVhsd+m3P3M18FW+Tdcdm5YAdU0J1GzMy4Cg4uclbFfV9cVfLFVVtNtblsfTdJ0jMaVYksL7Rya27oUzo3x+WsumgbFA6+2lTFySjZLa53PETp1gI/5qOj1T+fyimYhGI2X2y0zh1otk4fvz4KLfwtC6BQ5cA87aN227TfZvpvenTAOzX1N//suz3D+3eRdrRKAJH/Yym4SKUX6vcd4oBcI9pubbe8flcffF6yiOQAJbYmvwOGbBZf14X2D6KKWlTqv1Uc1+AsxsBPCqgitytuCvEFQ23HRKyNretxvh8LojDf6ZOAiwBXCFTMjNvoz+jRD4lvkaMoySYkqZ0iBuFKGxfhDotbdmGVCyL4f9bx7+mwp4hrgCv0ViWhrtTvNs41Tqxr/t5JpfAJCTAu24vkQW2vYt6aKa3QCHdI/4V9e8vlMrloeUTp87ZjzlJ4fsGHJm5KTcH9RwV9afii8QXintAd5eDTmJxmhYJALbTgC3/rhuajD69KrD9ocCGUgnLAPvVbrT7QCYlBUBUQLVjMfwBnf5z8efEgBnQRdQMC+Knpb7VVieXwJFJgDnbALDRjwHb76pPvxOw6eTAYKOxBwYcYCvX5M6WKvebKveXxV8RZ0HHTpS19Q2BzlEnGTkdsgTYBcWg30ezoSSWxO8X/yZVA2wH0WqUYXQgk9IKsfmcRoOw3UXHr2o+x96u54tZMqiYl03N6e6UzfzHt+00jq80GieaTSvKjy6BiUqARe0z1+POXy65cjs0G2AjwYvUj3+AMjGlMg7QjQVwVJk5HKxKoumwd1mv+IQu/Zz4R8Vd0O3qhAbvajX/tq27gjPlRPOE1urCBf9xCYxdApiQV2xc3+hssXqVHeANbB9WgtPqv98tLbZgwY0DbDRqbIAzB0p5fKj0XH5Jxzt0n38iPlfcBZ3ComKUwZnyx3feFQDn2q6QjP+ORwLMWq6/rdNYu157e2VVse2wGPC75eMcYdsWmu0W8QsFtntKsIUvcY0LbCp7fICjMMAGJZpuR6D7I0U/S/wYcQI6xpvl4JZF221p6WCludxourqTqJwOIgHmaldcf5OsKLRaMbgnYKMvAjgUzzvFLxHY7i19EmPVbCo70Ng0nBXIEcBFmo6F8W8KdKws/m3x3xFbQ4PTxkxMhMJ63Zbmdrv6awXNZTczJSunESUQFrI1T7u+c1tjd3c3p9UokT5I/8eUfLX66OvUbx+k745zzqayKzQRwCWaznaj3CvQ3aS73y9+uphFchotJ1BgHUptp+PmXaWZKTSe0F5MJ5fAMAng9cYhcjXmowbuYq6Gr6BC9DnTap9XGBPyBkxIOuIkwUYtuMfECNVM4dYItfKYGserDU9T9O+LnyxGAFAG/NvhQnOl2biu3W60Wivh3H9cAqkENrTxeD3shaTP9B2g6Wv0MwD3HvGa+uPd6o9hnc36KUddmwhNFHBW49i1qpaYJxOf5Jr4VeJlMY1k8toXeO1Wq7HWbjVWVhx4kpOTJBBeFpWrn/26NYCGzNiUsaqOHxwO9EeFw2cSrJ+SaFKU6dzjvxUmpmk7jSjBxFQj71f4jtKhAoIuFD9MzCjEQACXBB6XG3gzr9f8jgvNZV75set+XDQJME/bkPnIutqO5ml9wEZfYiCnn98jfpv4MvW7z6rfBROS/mg+B5sKKc3EKOrUE7tHpWAbRTjGo4vU+i8o4TVidjcjpD7aTle0fteSmdlun2yg9ZwWRwLM0/A+8jnGzDdHTBAADQJohPEdXCVwfSHtd9Yfdf1Q6NABR6toJEds5XKyal92fpSiXyZ+jfg88QDgYUI0BLxWY3WtpaObmUEgc/zDPK2zudVvSxYtt/6CpUQf+5T4SgHt9qMGmuoR6EgAZze30SUVhkAIet4ofrGYBUlGKROigjEVi5kn5VDx+V0sl/kJs0sEsPHNUyh8M6e3eXEf+Zou/xvxfxDY7rdBnSyH4RjhPv3oUOZw/W5uNjM2tNnSpW29q/NbFP7vyvtE8ePEDA4IlWN3oAiL5ooodqto/W5XD4RPOijOabYl0HXz8wW43Vpu/h+oxf9O/GL1nz9Rvzpb9qdgQR3mXK2f5Lsdt1+Cw4qPzUzTeBJaeANBdfg18W+JHy8GdFBmsCjMTF9GKAQ0q7/ajaU5Gm5+9kpAzeLQ+0tfsH5wq8Jn1Gc+af1HnfvQvI+9VcvHTA3grHoIy9S+DPKuy1ZmwblKc6WYOd6yOAs8Hk0xmW4Eh0pbywg+v5NQZoRwiGxIo/V5dcZaEQMN1XdG/AEAZn2GhNaPOHI+DWSjwzTUJdShj5nJwuQPNHrdLhPhg0r4GDHeTOZ1CJ+BIwwesihF4LFYRuj4MkKQyLT/pNux+mg1njXgod/eLX6T+DfUL/5c/SL0AawiTEfFh7291p84nwYKFZuGiuTqEGs7rtvoxYgljfdcRbGMcFFxafAyAmbmqi8jSFTTRTXd/IDMlokA3fvEbxC4voxDhBapI0+d+Ui9UppqwFllAR7hEmjhM2Vl+BGKxsS8UozWix+MTgtq6mBmJut3q75NzERzpMd9uPk/pgqznnbHNM/TBgl1JgBnDTDgcZ5ouwsUdUZ8qfjhYkZBRr5M+7YVrUVzX0aQHI6GCje/bcfiaVT+/ppVKn6G+FGuFr9HYAufGdeD7Wo0MkzTPI369KNMh+yXdHriY1MzAd7FquVbxM8uaxs/tKQBxfodu1VW5VhxmrwEMB/Xw+L1ZnkzbI8eip/Zvbr6TvFbBbRvzqpWi1s4k4CzBqTA00MJn3fQ9ReImd89XswDhI4Vh/gXbcduFTczY6mMO4x6ws3fwfuof30cIul04BYlxM3/6XkAmsl0pgFHI1LQEVcC71wFXyV+hfg88XDgaV8m2s6XESStMVHVzU+hzVzJPBubAnxGYRwit8RAIxNmoz1vzmeRZh5wJnR7EOVDOqaGhU+byYv1BKV5k/iXxLQ3frg6janQeGwRa7faeg0ovubhUSQQdvOzHUvragUNBdq3lY7pwLsEtvC3s8nH4MnRni/hWaa5ARwPgYcSPwzZKDHwnqNrvy3+++LUfImzKaz5HWZmS28j+Pwukc3g0715GoZkMU8uhrFKvlj+DIDvEV8jcFXc/JZjVhwiVt9Bx0oHHZRwlq7ZaFhqu9BGRkppuyW14zLx68U/Lo4fvE4LYiy2ZQTfJmZSGX4Mbv7R5mkfUamv0bPZtGelh9X1Ps4T0Ex6cwk4a1ys8YSseJvYjykNezNfJvZlBBPYPo/Vt66ZpfV183OHY+Iviq8Wv68cCLtrqzZY6tpc0lwDzp6YPcR0FJXGe6rSvFHMdzORBeaNTd4VjMmXEWJpEMZ8XKs3TyM5QLtH/HbxtQLa3enzsOek63NLCwE4nh4Pk6N5utB4kZn5PF1ifnehOGtmKl5UzEYWfZuYcFa+dT2Sm/9mCRDv452LCLTQffSzMICzBtsoagAUuuxLYrxt/krxmvh8MdoOYmROqABei2WEk1pGWKCviYU/y9t96xqxNBPZhNPYUviUYtiO9aEYaKSywW8e52pBCpmfTGfKpJqjKNs9zo5yHrSOfJadOcQP1Sn+TOEb1dzzxD8txslC50HrYWqWtKxj8dHaztamRi19bHR5ea7/jnn4Nv9N+riq/gY2H1ctgIYcKoSsGMSR1dfFrxVfLrn+rxhspdzDx4LteSjdQtDCabj0qcYaD20ngdj63c8qLetCTyvz0Jn6DFDFMkJbywjztk1sH27+BySnd4nfLKDtxLv5SznOzL5Hq+84jwsPOISZgC7IRJ3FlhFerCRvED9WLEx2XxNRsKCmDraMME/bxEbYzW8D0e0SBW7+qX7runxsR3IwQR3JzaflpmbWYGaqs2Bm8nfLMTPP6vx/KPw+1ZUdD39PbMsIgC+YmRhYmJj2d+86WzvBg3dCf5Tk+Ax+PJPtWFdv3KQ/7bQ57Nv8yIA+9HnxKyQvvpD1VbQao1Ypy4U0HdX8LCEXp0QCqcaTkMJirDrSTynpNeJLxHQ0zExAl5HjtqKb+pJYsVtlRWfTTiNsx6IptP87Ytz8vyNwfS+dp5kcdd2plECmo7hskACdhaN50jSU2zICAGPdDuA9WQwNBN60LyMwT0OrrevjqsXSB0ZyD6HN0PIA7QHxTeLXCWhH/nFV1WNmyAE35FFlgBcvI1ym7FeKHyMGdBAdMiG03fS9BgS8wmszXTd/FmhUPR5QPqZzXpuxj6t2HU2xrMjk1CsBB1yvTLIxZh5xRNtJcGZmYi1eJb5UbPM7BfsDj8+zH/XXxNBovJ9W/BEMqpsFWww08Hm1+L0C232x99GsAI6U5NRfAg64/rLJXkmA1x3d1QF5bfzN4meUGePOmpSFxmuGBfPDXDi3HSKb0mgGtBr7Hu9XZd8uZjvW123AUTj8OV4a5kBDCvXIAVdPTpVUMei4gMazDqjwixR1Rvz44lJ33qPTlPZMTdbwWq3mRP4UF4vWHX0mfEvH4nuP1COr0dBQNk8j0a1idol82oBmmt1kQCKn+hJwwNWXVU9K63RpZ5S2O1eJXy1+uXhZjLaDjhWH4pcuX0Cu+EXbrGibGG+cnxT4dDbyS7DYfVqTaGyqyE259Xe2FQ5/O6245xCgmcf1TqW+Sp3jFrQX5qMDzeR3sKMD7mDyC7lT4BGJxlNHfZKCZ8TPFy+Js8BTfNA3tnjOeUEyO5khNgW84qBfQimhuXRPRQOwPS1m6bLazC5SJwPaNxT+PfG66l+Zp1liNx9NEvs7OuD2J7eeXICOSDqkabzIzHyGLp0RczSKO7rFZY6F9stcGBA1EGDk497QseLQuFfHd4uZp+1Y/V2rldIZ48EBN0ZhUlQMPEwx4kpth4b7efErxM8WG6Wd3+Irx2EQqgFLm5+ZNqP8e8TvE79DdfxsCbSuI4hz12iIaXzkgBufLCslWWctO3F3GaE8Z0P0vxT/Y/F5UUZAAQB5LqZ9ossjBQ1gZErLYo52s5i/n1bRaCQ2Le1gQxrjpTACj7dILw0JxJ0VDUecNB5aDo33USHqVxTkg0YvEX9YjFkH0EhjAAF8+2HAZqClLM6Z4l0v/jnxz6gOb1CCr6CFdTF4WRXfpbj+3UgPHFgCPBSnCUsg1nbcig7OESDaNXV8vCH/SHyx+MninxIvi/dLX1HGT5f8Zzp+RPe7j/spTB2C6UjYNRpSOBxywB2OnLt3MYBxNODpIVS+VCXwPUIZLhADwieKHy9uis8XnyvmOpqQRekfiL9V8l/q+BfiL4m/Kv5/MajLe1bmaEpT0cacO01OAg64ycm2VsmmcUiM1uGohxJegjVwEjcKWT4DmPKeBdRWhpuLJonDPzrgDl/m2TvGICGBab9s4hqRKcCs/BpZPYlLwCXgEnAJuARcAi4Bl4BLwCXgEnAJuARcAi4Bl4BLwCXgEnAJzK0E/j9FMv+QqIIVMwAAAABJRU5ErkJggg==;" vertex="1" parent="1">
                    <mxGeometry x="404.99" y="165" width="94.02" height="100" as="geometry"/>
                </mxCell>
                <mxCell id="5" value="" style="shape=image;verticalLabelPosition=bottom;labelBackgroundColor=default;verticalAlign=top;aspect=fixed;imageAspect=0;image=data:image/png,iVBORw0KGgoAAAANSUhEUgAAAaIAAAE7CAYAAACfYoXkAAAABmJLR0QA/wD/AP+gvaeTAAAACXBIWXMAAC4jAAAuIwF4pT92AAAAB3RJTUUH4gsCCxYFKiZHCgAAABl0RVh0Q29tbWVudABDcmVhdGVkIHdpdGggR0lNUFeBDhcAACAASURBVHja7d15fEzXwwbwJzOTySSZ7ItYQoKIJtFQVFFU7S0qVWpXRdUudoqgagvVEkrRUrWWUrSopRUaYvspjV2F7BGSSDIZmcnM+4fGSxvMnS2Tmef7j4/knjvnnnsyz5y5555rp9VqtSAiIiojIjYBERExiIiIiEFERETEICIiIgYRERERg4iIiBhEREREDCIiImIQERERMYiIiIhBRERExCAiIiIGEREREYOIiIgYRERERAwiIiJiEBERETGIiIiIQURERMQgIiIiBhERERGDiIiIGEREREQMIiIiYhARERExiIiIiEFERETEICIiIgYRERERg4iIiBhEZBpJZ+KxdXAv/PJmA2TFREOdmc5GISKLZqfVarVsBusIoLhVXyLpTDwAIMTDAyEe7gAAect2cO/eFxJfPzYUETGIyLQBVOLJICrBQCJz0Gq1SE5Oxu3bt3Hnzh3cuHEThYUK2NmJ4O3tjcDAQFSrVg3VqwfC3d2dDUYMImsLoOcFEQOJTEmhUODUqdP4+eefceHCxRduLxKJ8M47ndCqVSsEBQWxARlEZC0BpEsQMZDI2COghIRLWLp0GW7fvq3XPjp2fAt9+/blCIlBRNYQQEKCiIFEhsrJycHq1atx6NARg/fl4+ODqKjpHB0xiKi8B5A+QcRAIn1cu3YN8+cvQEpKqtH2KZVKsWDBPISEhLCBGURUXgPIkCBiIJEu1Go19uzZg5UrvzbJ/mUyGZYsWYzq1auzsRlEVB4DyBhB9PgNITQc7u/3gyw0nCeGAAAPsrOxZOkyxMWdMOnrBAXVRHR0NBwdZWx0G8AbWi3EX7t3YM1bzbF1cC+DQ8hYlAl/In3GOKTPGAdlwp88STau+G4m7GaMQhWJ6V/r+vUb2LlzJxudIyIyVwCdXPklctJSjLpfY4yIOEKi/w+hDCg+GQHt7bNAcDNML7THlTspJn/dDRvWw9fXlyeAIyIy5Qhof9REo4cQR0hk1BDKzIBi6rBHIQQAV49hcnA1iEWmf/v44484ngCOiKi8jIDMMSLiCMkGQyg1BYopH0Gbfvk/v7vYaSRm7/nVpK/v6emJ9eu/hVQq5clgEFF5CSBzBhEDycpDKCUZiimDoc24WvoGTl7YFN4eO0+cee5+GjSoj7CwUGi1wMGDB5GamiaoHmvWfA1/f3+eEAYRlZcAKosgYiDZYAj9Q1u7OSblanErLfM/vwsMDMDo0aPw0ksvPf5ZYWEhli9fgYMHD+lcl5kzZ6Bx48Y8KVaM14hMGEDl7RqQoXgNyUpCKPkOFJMGvjCEAMDuSiymvRz8n5+3bt0K0dELnwohAHB0dMSAAR9AJOD6UnJyMk8Kg4gYQAwkW6FO/BsF4/tBe/e6zmVcD6zB5I5tHv9/0KCBiIwcAxcXl1K39/LyQlhYqM77V6lUPDFWTsImMJ6kM/HYHzWRDfGvQArYcYiNUR5C6NZNKCYNAHKFj0DqH9uFd5q1QrN33kWdOnVeuL2np4fO++bVAwYREdlCCN24BsWkfkB+pl7lxU06YEjfwRB7eb9w24KCApw6dVr3NykJ36YYRERk3SH09w0oJg/QK4TsvGtAOmIGHF57HbCze+H2xcXF2LRpExSKQp1fo3LlKjxJDCIislaqq5dROLkfoLgn/M2jx0TI3usN0TOuBZU2Elq5chV+/fWgoNepXLkSTxSDiIisMoSuXELhpD6AMkfYKKhWU8iGTIB92Ms6l0lNTcW8efNx7dp1Qa/l5OQIP7+KPFkMIiKyuhC6nIDCyX2FhZDIHvYfRkHW6V3YyXRfFfv8+fP49NM5yM8vEFzPbt3e4wrcDCIisroQunAehVN6A2rdr9OIGnSE7ONxkPhX07mMRqPBnj17sGLFSr3r2qxZM54wBhERWZOiP89BObWv7iHk5AWH4Z/CoWUbQCzW+XUKCgqwevUa7Nu3X++6du7ciUv7MIiIyKpC6H9noZzWT+cQEncYDMe+gyHSYUr2k9LS0jB//gJcuXJV77p6e3uhT58+PGkMIiKymhA6dwbKT3oDmhevUmDn9xIcRkyHtEEjnaZkP+nChYuYPftT5OXlGVTfiRMnwM3NlSeOQUREVhFC8XFQztBtdCHpMRGybr0hkrsIeg2NRoMjR35DdPQig+sbFTUd4eFcOJdBRETWEUInjkM5s9+LR0F6TMkuUVhYiG+++Ra7d+8x7M1IIkFU1HS8+uqrPHEMIiKyBg9PHMPDmf2fv5GeU7JLZGVlITp6Ec6fN2xx2woVfDF9+jQEBQXxxDGIiMgqQujoETycO+j5GdSwM2RDIgVNyX7SlStXMGvWp7h//75BdW3YsAHGjo2Ep6cnTxyDiIisIoR+O4SH8z969gZ6TskuodVqcfjwESxe/Dk0Go1Bde3evRv69OkNBwcHnjgGERFZA+WBn1H0+chn/l789hA49hkEkaeXXvsvKirC5s2bsWnTFoPqKRKJMG7cWLRq9SbsBM7MIwYREVlqCO3bjaIvxpT6O7tKoXAY9oleU7JL5OTkYMmSL3DyZLxB9fTx8cGMGdNQq1YtnjRiEBFZTQjt3YmiZeNK/yPXc0r2k27cuIHZsz9FRkamQfVs0KA+xo6NhJeXF08aMYiIrIJWi8Ift0D19Sf/HQUFN4NsxGTY13rJoJc4ceIE5syZC7VabdB+3nvvXfTr14/Xg4hBRGRVIbR9E1Rrpj/9cwOnZJdQq9XYvHkLvv9+o0HVfHQ9KBKtWrXi9SBiEBFZDU0xFBvXQf39Z0+/6Rs4JbtEQUEBVqz4CocOHTZoP25urpgxYwbCwkJ5zohBRGQ1iouh+H4t1Jvm///PDJyS/aR79+5h/vwFuHDhokH7CQ0NwaRJE1GhQgWeMyp/QfQw7wHObvwW2SeOoeFLIZCFhUMaWBOyUK4/RaaRdCYeSWdOIulsPGqpihDUfzDkLdtZXD21ajUK166A+scvHv9M/NZHj1bJ9jR8AsDt27cxc+YspKamGbSfjh3fwsCBA+Hk5MTOReUriEoC6OymdXiY9wAhHh5Q5OdAcTru8Tay0HA4htaFQ9jLDCbSu58lnYlH0tl4JJ2JR+bVS0/9vnqlisiKiUbutg1w697XYgJJq1KhcE0M1LuWATDOlOwnnT9/HlFRs6BUKg3az7BhQ9GpU0eIRCJ2Nio/QfTvAHoeZcKfUCb8CWx7OpjsA6tDFhoOkbOcZ5WekpuajKQz8bh77XKpwfMsqsx0iwkkbdFDKFZ8juJ9qx/94faYCFm3PhDJDe/vWq0W+/btw5dfLjNoP25urpg+fRrq1KnDTkflJ4iEBNALg+kfDgE14BDyMmR16jKYbDx4ks/GI/n0SeSkpRi0v38HktOrTc3ar7QPH0IRE43iX78x2pTsEhqNBlu3bsW6dd8ZtJ/atYMxZcpk+Pn5sQNS+Qii3NRknNu0Dn/t3qF3AD0z3BJv4mHiTTz4ZScAwN7XDw6h4ZCFPvoqT+LLPxRrk3n10lNftRm7T/07kETOX8Ht7a5w6Rhh8kDSPlRCsXQhio9shHTYQjh06Aw7qdQ4x6NSYd26ddi+/UeD9tOhQ3sMHjwIzs7O7Ixk+UGUm5qME6uW4q/dO8z2mqrMdKgy05H/24GngkkaUB2y0LqQBtZgLyhnSiYWZP7zVZupgueZo4iCfGRvW4/cn3eYNJC0CgUKPv8UUBbCafVBSKpUNdq+CwuViImJMXh69rBhH6NTp068HkSWH0RlEUAvCqYSImc5ZCEvQxYWzmCy8OApGfFYClMHUuG2DbBv0RYOTZsDIrHR9ltQUIAlS77AsWPH9d6HVCrF1KmT0bhxY3ZQsvwgilv5JeJWLbXYBtAU5ENxOo4z8yzEi2a0WWofKgkk9+594dqxq1H26/TBEKPX9f79+/jss7n4668Evffh4+ODWbOiUKMGP7RROQmipLPx5a5RODPPfHJTk3H36uVyFTzP/VBzKs5oQWT0ts7NRVTUTFy7dl3vfdSuHYxPPpkKX19fdl4qP0FkDTgzz7jBY8wZbaSb/Px8fPbZXINCqEWL5hg1aiTkcvZ3YhCVuX/PzHMIqAH7wJpQFGvYOKU4u/FbJJ2NR9aVSwyeMlBYWIjo6EX4888Leu+jd++e6NmzJ+zt7dmgxCCy6GAy8I50a/XbojlshDKi1Wqxbt06gx5mN3r0SHTo0OGFK2cXFBRAqVTyWUMkGOdcElmx48ePY9eu3XqXnzZtKt566y2dHt+QnZ2NXr36YMGChTh9+jQePnzIE0AcERHZsuTkZCxcuEi/NwaJBHPmzEa9evUElz1y5DccOfIbPD090aNHdzRt+jq8vTlKIo6IiGyKRqPBV1+tRFFRkeCycrkzFi+O1iuEnnT//n2sWLESvXv3wcqVq5CWlsYTQwwiIltx8uRJnDlzVnA5Hx8ffP75YtSuXduo9dm5cxc++OBDrFy5ChkZGTxBxCAismYFBQVYuXKV4HIVKvgiOnoBqlWrZrK6lQTS5s2bkZuby5NFDCIia/T770eRkZEpqIyHhzvmzv0MFStWNHn9NBoN1q37DoMHf4Tjx49Do+FtD7aOkxWshEJdjDyVBkUaLXKKVLiYXQB3aQaquzrBV+aAQBdX+DnJ2FBWTqVSYevWrYLLzZo1E1WqVDFrXXNzH+DTTz9DkyaNMWjQIFSuXIknkEFE5TF4CtTFKFAXl7pNTpEK57JKvv7IhEwsQoCLMwLkjgwmK3XhwgXBo6HIyNEIDg4uszrHxZ3AyZPx+PDDAejYsSMcHdkvGURUboPnRZTFGlzJycOVnDwGk5Xav/+AoO0bNXoVbdq0KfN6azQarFmzFkePHsXYsZGoXr06TyaDiKwheBhMtiUvLw+xsccElRk0aCDEYrHFHMP16zcwfPhIjB07Bq1ateJzjhhEZC7FWi0K1FoU/hM6pgoeocEEANXkjqjh6oxqchcEuPAJnJbs77//FrR9ly6dUbVqVYs7Do1Gg0WLPsf58+fx0UdD4ObmypPLICJTBs8DlRpKC14s9XZ+IW7nFwLIYjBZuIQEYc8YateunUUfz6FDR3D16jVMmjQRQUFBPMEMIrKV4GEwlecg0v1ZTtWqVUNAQIDFH1NSUjJGjRqDceMi0apVK53WvCMGEQFQaUUoVKutInj0DaaKTk7wlzvD0YKuP1gzrVaLS5d0D6I2bVqXm+svGo0G0dGLkZaWjp49e0Ai4dsWg4ieSfbPm266QomcIpVNtsH/BxMeT36w54dYk8vLy4NCUajz9oGBAeXuGL//fiMyMjIwbNhQODk58aQziKg0Lvb2eK964OP/J+YVIE1RgJyiYqQpFI/foK2Rs0QMZ4kYjhIxJHZaOElKRkK8a94c8vPzBW3v7e1dLo/z4MFDyMjIwOTJk/jcIwYR6SLAxfk/101yioqQWahEmkKBVMXDcjd6kolFkInFkIrs4GIvgoNYBDG/ty93pFJpua37hQsXMX78BMyePQv+/v48mQwiEspdKoW7VIpa/5qSaomjp2ePcsjS2NpF/NTUNEyYMBHz588rF5MuiEFkNaOn+8qHyFQWGf21Ocop/4ROPHjw4AEqVSrbtd3Gjx+LHTt+xK1biXqVz87OwfjxE7FgwTzUqFGDnYBBROYePd1TKpCpVCNNoUBG4UOdZubJ/gkYjnKsj4uLi6DtMzIyjP7MIaFCQkLRtGlTbNmyFVu3btNrH3l5eZg4cRLmz5/He40YRGQJo6echyrczs97PHoq0mg5yrERTk5OqFSpIlJTdXsK6smT8WjRooVF1PvDDwegXr26mDdvPnJzHwjeR35+weORUVmHK+k5omcTWM/oKcDFGS0q+qFnjWpoWckX/s5SVHC0h5NEzBCyAaGhoTpve+TIbxb1YLp69eohJmYZXnmlrl7llUolJkyYhGvXrrEjMIiIqKwEB9cStP2pU6csqv6+vr6YOXMmevXqqVf5oqIiTJ06DXfu3GFnYBARUdkEkbBnCq1atVqvr8JMycHBAf3798O0aVP1WvkhLy8P06ZNR0ZGBjsEg4iIzC0gIEDQStV5eXnYvfsnizyWZs2aYcmSxfDwcBdcNiMjE1FRM5Gdnc1OwSAiInOSSqXo0qWLoDLff78Jp0+ftsjjqV27Nr74Yglq1RI+G+7WrUR8+ukc5OXlsWMwiIjInF5/vangMnPmzLXY6yp+fn6YO/czvPZaI8FlExIuYenSZVCpVOwYDCIiMpeqVauides3BZVRKpWYOXMWUlNTLfKYXFxcMHnyJLzxRnPBZWNjj2HTps3QarXsHAwiIjKXrl27Ci6TkpKKceMm4NatWxZ5TI6Ojhg7diw6dGgvuOymTZvx22+/sWMwiIjIXKpXr46uXd8VXO7+/fsYO3Yczp07Z5HH5eDggOHDhyEioovgstHRiwU9r4kYRERkoO7du8HT01NwOYWiEFOmfIL167+DUqm0uOOyt7fH4MGDBAetRqPBzJmzkJ6ezs7BICIic3B3d8e4cWP1Lr9p02ZMmTIVN2/etLhjE4vF+PDDAXjrrQ6CyuXmPsCCBQtRWFjIDsIgIiJzaNCgPvr376t3+UuXLmPYsBH46quvkJWVZVHHJpFIMHTox2jV6k3Bx7Ru3TpOXmAQkSkUFhfjrlKJ23n5uJSdAwAI8fBAZWdn+Dg6wl7M9W1tUbdu3dC0aROD9rFr124MHDgYe/bswYMHlrMSg1QqxciRIwRP7d61azf++COOncOSPliwCcpP0OSrVFCo1ChQq1GoViFfXQyFSoUCtfo/24d4eCCklLvSc4qKoNJokP2wCGqNBrlFRSjSaJBTpIKqWM2GtjL29vYYOzYSDx7k4eLFi3rvR6lUIiZmBdas+Qa9evVEq1ZvWsTjxh0dHTFhwnhERc3EX38l6FxuwYKFCAhYjipVqrCTMIhI36DRl/s/j4j2kclK/T2DyvrI5XJ88skUREXNxNWrhq1OrVQq8c0332LduvV4553OaNGiOYKCgiCRSMr0+CZPnoQxYyKRlXVPpzJFRUWIjl6E+fPnwdHRkZ2EQcSgMWbQMKioNB4eHvj009mYO3cezp//0+D9aTQa7Ny5Czt37kKlShXRpcs78PPzK7Pj8/HxQVTUDIweHQmNRqNTmStXrmLjxk0YNGggOwiDyLrCJlNRaNFBY+qgKi1wb+Xls3NYADc3N8yYMR0rVqzAoUNHjLbf1NQ0rFixssyPr1atWpg6dTLmzJmrc5kfftiO+vVfQb169dhByhAnKxhRvkqF03fv4lJ2Nm7l5eNuYaFVhZAuHMVi+MhkqOYiR4iHO+r7+LBjWBBnZ2dERkbigw/6WeXxNWvWTPCxLV68xKIeEsggIiKrJ5FI0LNnT8yfP1evxyxYum7duglal+7u3btYt249p3QziIjI3OrVq4fly2P0Wr/NGB48MM0oRCKR4OOPPxa0ssQvv+zDyZMn2SkYRERkbl5eXhgzZjQWLpyPqlX9zfraY8aMxYwZUfj996O4d++eUfft4eGBSZMmCCqzePESo9eDGEREpKPw8HDExCzDmDGjzDoVOz7+FObNm49evfpg1qzZOHo0Fvfv3zfKvuvWrSvoelFeXh6/oisjnDVHRAAerW7doUMHvPLKK9i/fz+2bNmm81RoY4iLO4G4uBMAgObNm6FFixaoUycMbm5ueu8zIiICp0+fQUKCbitv//rrQbz5ZkvOouOIiIjKUoUKFdC/f39s2LAe/fv3LZObVWNjj+HTT+ege/ceWLBgIU6cOKHX8kIymQxjx0YKOoZly2JQUFDAjmBG4pkzZ8405Qsk7NmBB6kpepX1cXSEj6Os3DSmQq3GbQu5Z8aS2q5k7bvyIsDFBc56vvlKfP0gb9nOKt4cnJycUKdOHXTo0B7e3l64dSuxTFauvnUrEb//fhQ//LAdGRkZEIvFcHNzg4ODg07lXV1d4e7ujvj4Uzptn5eXB5lMhjp16jAhzIRfzRHRc3l6euLdd99Fx44dcfnyZRw58hv27z9QJnU5ePAQDh48BJFIhHbt2qJp0yZ46aUQyOXOzy3Xpk1rHDhwQOcljtav/w6NG7+GwMBAdgAz4FdzRKQTqVSK8PBwREaOwebNGzF+/FjUrh1cJnXRaDTYt28/pk2bgfff74Fly5bh7NmzUCgUz6z7sGFDBb3G2rXfmPUaGUdEREQCR0lt2rRB69atkZqahgsX/sT+/Qdw5cpVs9dFrVZj795fsHfvL5BIJGjbtg2aNGmM0NBQODk5Pd6udu3a6N69G7Zt+0Gn/Z4+fQanTp0W/JgJYhARkRnZ2dmhcuVKqFy5Ery8vNC167vw8vKGp4cX7P9Zl9DcofTLL/vwyy/7IJVK0bp1KzRp0hhhYWFwdHTEe+91xYEDB5Cbq9vEhxUrVqBOnTA4OzvzZDOIiMjSabVa5Oc9QH7eA9y5fQvOcpcyDaWioqJSQ6l//35YujRGp31kZGTi4MFD6NLlHZ5gBhERMZSME0pCp6OvXr0GTZs2gQ8X8DUZTlYgIrOE0u3Ev3H+/BlcvZKAzMx0uLm5lkl91AJXxFer1di5cxdPJEdERGQtoZSbm4Pc3Bx8/fXXqFSpMi5c+BN79uzFzZt/W2y9d+z4ER06tIe/vz9PIoOIiKxJyUSH9u3bP55999NPu3HrVqLF1XXLlq2YMGE8TxqDiIis0ZOz79q2bYvExEScO/c/7N37M9LT0y2ijocOHUZERBfUrFmTJ8zIeI2IiIzCxcUFrq7usLOzM2g/YrEYNWrUQLdu72Ht2tWIiVmKDz7oB29vrzI/xs2bt3B1bo6IiMhSubq6ovZLoVCr1cjJuY/797OQm5Nj0Bu3RCJBUFAQgoKC0L1798cjpZ9+2o27d++a/RiPH/8D169fR61atXjCGUREZLFvKhIJvL194e3ta9RQKhkp1ahRAxERXXD79m2cO/c//PjjTqM9w0gX27fvwNSpU3iiGUREVP5CSYWcnOzHoWTofp8MpZs3byIu7gT27t2L/HzTPsLh6NFY9OzZgwuiMoiIqPyFkv3jUFKpHsLLy8tI+5UgODgYwcHB6NWrJ65fv4HTp09j9+7dUChM89iKnTt3YezYSJ5UI+FkBSIyO3t7Bzg4GP95WQ4ODggLC8WAAR9g8+ZNWLhwPiIi3oHUyKs5HDjwK5KTk3kiGURERM8mk8kQHh6Ojz/+GD/8sBWLFy9Cjx7vQyYzTgAePnyEjcwgIiLSPZRKRkpbtmzG4sWLEBHRxaDHoG/b9gNyc3PZuEbAa0REZFMcHR+FUlhYKPr06Y3Lly8jLu4E9u8/IOhBeGq1GidPnkS7du3YqAwiIiL9yOVyNGzYEA0bNsTAgR8KDqWNGzehZcuWRr8GxSAiIrLxUPrgg/74668ExMYexe+/xz6zTEZGJhISLqFevbpsQAYREZHxuLm5oWnTJmjatAmGDx+Oq1evIi7uBH75Zd9/tj18+DCDyECcrEBE9Byurq5o2LAhRo8ehc2bN2Lq1Clo3LjR498fPHgIWVlZbCiOiIiITM/T0xMtWjRHixbNce/ePfz1VwIOHz6Ms2fPctICg4iIyLy8vLweh1Ju7gM2iAH41RwRkYHK6rHnDCIiIiIGERERMYiIiIgYRERExCAiIiJiEBEREYOIiIiIQURERAwiIiIiBhERETGIiIiIGERERMQgIiIiYhAREZGl4fOIjEhub4+GPj4oUKtRqFYhX10MhUqFArXaZtogp6gIKo0G2Q+LoNZokFtUxI5BRAwic3EUi1HNRV7q7wqLi5GvUkGhUpfroCo5jieDpkijQU6RCqpiNTsBETGILDmkHMViQKb7SKIs3uCtJTCJiEFEArlLpQAAH5nMpEHFoCEiBhGZJagK1Spcys5h0BARg4jKJqguZefgUnY2G4aILB6nbxMREYOIiIgYRERERAwiIiJiEBERETGIiIiIQURERMQgIiIiBhERERGDiIiIGEREREQmwbXmrIS9rx/EXj4QyV0g8amAV51dUCMjDamJf0Nx/x7S7mYiJy2FDUVEDCIycAjrLIe9TwXYOcsh8fWDxN0TIrlLqdtWrBaIitUCn/pZVmYG7qcmIy83B2mJf+Nu0h0+0I6IGESk2yhH4uVj8D69fSvA27fCo/+0aAUAKFIqcY+jJyJiEHGUo8soxxSkMhlHT0TEIOIox/Jw9EREDCKOciwOR09ExCCyYIXFxSiuFYKqTVrY3LGXNnrS5Och+cI57D+4n52DiBhE5pCvUuHowf3Awf2oFFAdFQOqP/r3X6MHa6V9+BCqu+lQp6dClZ6K4ux7kLNbEBGDqGykJv6N1MS/cfaf/1tjMJUWPEREDCIGE4OHiBhEZB3BxOAhIgaRjQeTl19FVKz2KJykMpnJ66DJz4M65z6Dh4gYRPT/wXTx5B8AAPeKleFfLcCowaTJz4MqIw3q1CSo7mZAU5DPhiciBhGVLictBTlpKQYFE4OHLEWzZq/Dzc2NDUEMImsPJgYPWRoPD3cMHToUzZq9DpGIT6EhBpFVB1OIhwdCPNzZMGQxOnXqiN69e8HDw4ONQQwiIjKfqlX9MXz4MNStW5eNQQwiIjKv/v37IiIiAo6OjmwMYhARkfnUr/8KPv54CKpWrcrGIAYREZmPk5Mjhg8fjpYt34BYLGaDEIOIiMzH1dUVa9eugaenJxuDGEREVDZBRMQgMjN7Xz/YV6sOWVg4ZKF1Ib6XBQzuxYb5l/H/u4mkM/FIOnMSSWfjkXn1Mh7mPWDDEBGDSJ/gcQgNhyz0ZchCwyHx9Xt6g3tZbKRn8G/QCP4NGj3+f+bVS4/C6Ww8ks7EM5iIGERUGoeAGnAIeRmyOnUhDajx3+AhvfkGh8A3OAT1ew94HEyZVy8j+Ww8kk+fRE5aChuJiEFkHE2GjEYcvkTSmfhyFTyy0HCInPl8UXMHU1jnrgCA3NRkJJ2JR/I/X+VlXr1k8ccgb9kO7t378mQSbKBQcwAAEeVJREFUWVoQ+TdohPcbbELSmXjErbKsQJKFhsMxtC4cwh591UaWw61SFbh1rvI4mB7mPXjqqzxLCqaSAOKImchCg6i0QErYswN/7d5h1gMVOcshC3kZDoFBDJ5yyMHFFTVbtkHNlm2eCqbMq5cehxMDiIhBpHMg+TdohMZDRuHEqqUmC6SS4CmZ0SYNrMGzbcXBBOCpmXmmCiaRsxxub3eFS8cIfnVLVF6DqIRbpSpoP2uh0QLphTPayOqZcmYeA4jICoPI0EAqmVggrV6TwUOlKm1mXtKZeNy9dlnnmXkMICIbCCJdA4kz2shYwVTiyZl5/w4mBhCR+dhptVqtJVYsNzUZ9/buRKWmzcvNxIKkM/HYaiErK1jSg/ECdhwqF+evZAKEc+59VGjzNgOIyNZGRKWNkNw+GskzRGZTMgGCiMyLD40nIiIGERERMYiIiIgYRERExCAiIiJiEBERke3g84iIiKyASqWCRqOBWCyGRFK+3toZRGTx8vLyUFhYKKiMj48P7OzszFI/jUaDrCxhT+d1cnKCXC4X/DrZ2dk6by+TyeDs7GyyY5FKpXB3N+1N04WFhcjLy9N5ey8vL4jFYkGvoVAoBPUvDw8PiERl82VSUVERUlJSkJiYiJSUVNy5cwc3btxASkrqf7YNDAxAjRrV4e/vj8qVKyMwMBB+fn4WGVIMIrJ4R44cwYoVKwWVmTt3DurXr2+W+p06dRpRUTMFlRk9eiTeeustQWUKCgrQq1cfnbcfNWoE3n77bcGv0bdvf522dXFxwfLly1ChQgWTte3ly5cxZconOm+/bdsWuLm5CXqN2NhYLFnypUlfw9AwTki4hGPHjuHIkd9QVFSkU7lbtxJx61biUz+Ty53Rrl07NG78GoKDgyGVShlERKaydGkMli+PgVzubNLXycvLQ0zMcpsdqUZHL8acObMhk8nY6YwsMzMThw8fxpYt26BUKo2yz/z8AuzY8SN27PgRHh7u6N27F5o3b27WYC0NJyuQVUpPT8fu3T+Z/HV+/PFH3L1712bb+eLFi9i8eQs7nBFlZ2dj7dpv0Ldvf6xb953RQui/r5ODmJgV6NWrD3bs2IGCggIGEZGxrV+/ATdv3jTZ/q9fv45Nm/gmvGXLVpw8eZIdzkDFxcU4dOgwBg0ajG3bfjDb66rVanz99RoMGzYCp0+fZhARGdtXX62CSqUy+n5VKhW++molG/gf8+YtQEpKChvCgFFQdPQiREcvQn5+2YxM0tPTMW3aDKxcudLsoyMGEVm1ixcv4ujRWKPv9/Dhw0hIuMQG/odSqcT8+QugUCjYGAL9/fffGDlyNH777XeLqM/OnT9h6tRPzPqVM4OIrN6yZTGCp1c/T1ZWFr76ahUb9l+uXbuOdevWw0IfcWaRLly4iMjIcRZ3nfHKlasYP34ikpKSGERExvq0vn79d0Z5g9Rqtfjuuw0mu4Bc3v30027Exh5jQ+ggISEBkyZNtti+lJ6ejgkTJprlK1cGEdmEX389iD///NPg/Zw9exYHDvzKBn2OhQujkZiYyIZ4jhs3bmDq1GnQaDQWXc/s7BxMnz4DWVn3GERExvDll0sNughbUFCA5ctXsCFfQK1W47PP5gpaEcGW3L9/H1FRM402EvL3r4LWrd9EREQXvPfeu+jcuRMaNmxgtHu7UlJS8fnnn+t8I60+eEMr2YzU1DT8/PPP6N69u17ld+7chdTUNDakDu7cScLq1WswZszoMlsOx1JDOiZmuUEjDIlEgk6dOqJJk8YIDAyEi4tLqdsVFxcjNTUVly9fxp49e3Ht2nUDvgk4h+3bt6NXr14MIiJDrV37LRo1aoRq1aoJKpeYmIgNG75nAwpw4MCvCAsLRdu2bdkY/zh8+DD++CNOr7IikQgDBvRHmzZt4OHh8cLtxWIx/P394e/vj9atW+PixYtYv/47vWd7rl+/AfXr10dwcLDR24UfVcjmfP31ahQXFwv6FLtqFWfJ6WPJki9x/fp1NgSArKx7gtdMLBEaGoKvv16J7t276xRCpYVYeHg4FiyYj+HDh+l9DKtWfW2S+/IYREbk36AR3l+9Cf4NGrExAMhbtkOVryxvFHHmzFkcO3Zc5+1///13nDt3nidUDxqNBvPmzUdubq7Nt8X27T/odV2offt2+OyzOfD39ze4Dvb29ujcuRMWL46Gk5Oj4PIJCZcQF3eCQVRewsiWA6kkgLxHTIDE188i67hs2TLcv3//hdvdu3ePExQMlJKSipiY5VCr1TbbBmlpadi5U/jahx06tMeIEcPh6Oho1PqEhYUhOnqhXhMavv/+e6OPihhEDCSbCqAS+fkF2Lhx03O30Wq12LDheygUhezQBoqNPYZ9+/bZ7PH/+utBwWVeeaUuhgwZAnt7e5PUqWbNmoiKmi643J07STh37n8MIgYSA8gY9u79GRcvXnzm78+f/xP79u1nJzaSmJgV+OuvBJs7boVCgR9/3CmojEQiwYgRI+DoaNrHa7zyyiv44IN+gsvt32/cvwsGEQPJ5gLoScuWLS/16ZwKhQLLly9nxzWyefPm6fSVqDW5ePEvwdeGBg4cgMqVK5ulfl26dEGlShUFlYmLO2HUZbMYRAwkqwqgChV8n3lfRWlu375d6ldGe/bsRVJSss77ef31puzcOsjKuocvvvjSJDOvLFVcnLDp2jKZDK1atTJb/RwdHTFo0EDB5S5dMt6ivwwiBpJVjYAqV66EMWNGCyqzevXapxZ3TE5Oxrp163VvF7mzXn/I1qBz506Cy8THn8KuXbtson1UKhV+//2ooDJ9+vQ2+xNTGzRoAG9vL0FlLly4yCBiIDGAnqVJk8Zo3fpNnbfXaDSP7y0qLi7G11+vFrQGWGRkJLy9vW2y/zZq1AijR48UXG7Nmm9w/rz1T4lPTk4W/LVc48avmb2eDg4O6NLlHUFlYmNjBd2PxyBiINlEAD3u1CIRBgwYALncWecyp06dxokTJxAbewzx8ad0LteiRXM0adLYpvtu+/bt0aFDe8Hl5syZi8zMTKtuG6FLQlWt6m+2a0P/VrduXUHb5+Y+QHZ2DoOIgcQAehZvb2+MGiXsk/rSpcsQExOj8/ZOTo4YPHiQza+lJhKJMGjQQAQGBggql5eXh+joRVb9SI2MjHSBo6HGsLOzK5v3Hn9/wX05O9s4E08YRAwkqwqgJzVr1gwtW74h6BOekMc0jxkzGj4+PuysAORyOSZNmgiJRNjylRcuXMSWLVustl2Sk5MFbV+tWtUyq6tMJkNYWKigMvfuGefxEAwiBpLVBdCTn9QHDvxQr6VMXvzJtRFef/11dtAnBAYGYty4SMHlNm/eKujr0PIkJ0fY0kaenl5lfg6FKO3WBwYRA4kB9C8+Pj4YMWK4UfcplUoxdOhQiMVidsx/admyJSIiugguN3fuPKSkpFpdezx4IOyZTKa+gfVFXF1dBW3/8OFDBhEDSb9AsoUAetIbb7yBpk2bGG1/o0ePQoUKFdgZS2FnZ4d+/fqidm1hjwpQKpVYvHix0T5hWwqFQtiDGMv6w42Dg1TQ9kVFxrkfjEFUzgNp8M9HEda564tPtLMcrm9F2FQAPfnH/dFHgyGVSg3eV6NGr+KNN1qwAz6Hk5MTJkwYL3hBzYSES1i/fj20Wq3VtIWzs7Og7cv6Rt+HD4U9hVUmc2AQEeBWqQraz1r4zEASOcvh0b0/qnz1PTwHDrepAHqSn5+fwV/RSSQSDBkyRPAFeVtUpUoVTJw4XnC5nTt/wvHjx62mHYSs8gEA+fn5ZVpfoY/rcHAwzleJDCIrDSSJSPQ4gNze7wuRs9zm26hVqzfRsGEDvcuPGjUClStXYmfTUdOmTdGrV0/B5ebPX4jbt29bRRt4eLgL2r6s76u6dStR0PZC7tVjENlgILU9dIoBVMqIZtiwoXqNaOrWDcebb77JRhSoR4/3UbduuKAyarUaCxYsFDSV3lJVrlxF0PaXL18ps7oWFiqRkCBsdXRjrSjCICKbUqlSJQwbNlTYH4lIhOHDh5nsuTDWzMHBAZGRYwR/cr5582+sXr3aaEvIlBU/P2GTWo4f/8NoM9GESk5OErS0FQB4enoyiIj00a5dW9Sv/4rO2w8fPhRVq1Zlw+n9ZuyHKVMmCy63f/8BbNv2Q7n/4COEUqnE1avXyqSuQtf+CwqqKfgaGIOI6B8SiQRDh36s03ImL79cB+3atWOjGahBgwYYOHCA4HLGXOG5LFSuXFnwDdU//fST2WcOPnp4n7AV0Y356BMGEdkkf39/fPzxkOf/cfArOaOKiIjAa681sqljtre3R4sWwqb7Hz/+B27cuGHWeh47dlzwAwtfeuklBhGRoTp0aI86deo88/dDhnyEgIAANpQR35RHjhxptOsK5YU+N1P/8MN2s42KFAqFoOdvAY9mywUHBxutDgwisllSqRSjRo0o9Su62rWD9Xq0AT2ft7cXpk//xKaOOSwsTPDNvUePxiIu7oRZ6rdz507Bo6F33uks+JgYRETPULVqVQwe/N+nq44cOQIODg5sIBMICQnBkCEf2czxOjo6omvXCMHlFi1ahDt37pi0bqdPn8Z3330vuFzz5s2NWg8GEdm8jh07IjQ05PH/Bw8eiJo1a7JhTOiddzoLekRHede2bVvBZRSKQkRFzURaWppJ6nT58mXMnj1HcLnWrd80+lfWDCKyeVKp9PHyP7VqBaFjx45sFBMTi8UYOvRjVKpU0SaO18/PD+++K3xUlJqahkmTJuPmzZtGHwlNnDgZRUVFgsu+++67Rm8fBhERgOrVq+PDDwdg1KiRRv3um57Nzc0NkydPspnjfe+9rno9GysjIxMjRozC/v37DV4UVaFQYOPGjZg2bYZeIdS9ezfUqFGDQURkKu+/3x1BQUFsCDMKDg7G6NEjbeJYvby8BK/qUUKj0WDJki8xfvwEnDlzVnAgKZVKxMbGYsSIkXpdEwIerZv33ntdTdI2XEaYiMpU+/btce3adezbt9/qj7Vly5Y4deo0YmOP6VX+ypWr+OSTafDx8UHnzh0RGhqKypUrw9XV9anZn8XFxcjOzkZSUjIuXryA3bv3Ii8vz6C6T5kyGW5ubgwiIrI+IpEIgwYNxJUrVwSv/lzelCy8e/nyFdy9e1fv/dy9exdr1377+P9OTo7w8vKCh4cHsrOzkZaWDrVabbR6Dxw4AOHh4abrA/wzIKKyJpfLMWnSRJt41pOHhwfmzp1jtHXagEcz7JKSknHhwkUkJSUbNYTat29nkgkKDCIisjiBgYEYNy7SJo61atWqmD17psUHb4sWzfV+dAqDiIjKpZYtWyIiootNHGtISAi++OJzuLm5WmT92rVri8jISLPc2M0gIiKLYWdnh379+qJ27WCbON6goCAsXrwI1apVs6h6DRjQH6NHj4Kjo3luZWAQEZFFcXJywoQJ423mfi5/f398/vkidOz4dpnXxc3NFXPmzEaPHj0gFovN9roMIiKyOFWqVMHEieNt5njlcjlGjBiO2bNnwc/Pr0zqEBHRBatWrUTDhg3N/tqcvk1EFqlp06bo1asnNm3abBPHa2dnh0aNXkWdOmH49deD2LBhA/LzC0z+uk2aNEbPnj1Qq1atMjt2BhERWawePd7HpUuXcP78nzZzzE5OTujS5R20bt0Kf/wRh+3bt+POnSSjvoZIJMJbb7VHhw4dUKNGDdjZ2ZXpMTOIiMoRXR5v/uQn7PLOwcEBkZFjMGLEKINXBnh2O4kEtStgnnaVy+Vo164t2rRpjcTERJw9ew7Hjx/HlStX9Qw4R7zxxhto2LAB6tSpY9T7mAw+B1pzPxydiIj0lpubi5SUFGRm3kVGRjrS0tJRWKjAgwcPUFysgUwmg1wuh6enB/z8/ODr64uKFSuiYsWKFnvfEoOIiIjKdqTPJiAiIgYRERExiIiIiBhERETEICIiImIQERERg4iIiIhBREREDCIiIiIGERERMYiIiIgYRERExCAiIiJiEBEREYOIiIiIQURERAwiIiIiBhERETGIiIiIGERERMQgIiIiYhARERGDiIiIiEFEREQMIiIiIgYRERExiIiIiBhERETEICIiImIQERERg4iIiIhBREREDCIiIrJt/wesNpFyBkIl3wAAAABJRU5ErkJggg==;" vertex="1" parent="1">
                    <mxGeometry x="166.82999999999996" y="190" width="66.35" height="50" as="geometry"/>
                </mxCell>
                <mxCell id="6" value="" style="endArrow=classic;html=1;entryX=1;entryY=0.5;entryDx=0;entryDy=0;" edge="1" parent="1" source="4" target="5">
                    <mxGeometry width="50" height="50" relative="1" as="geometry">
                        <mxPoint x="174.01999999999998" y="155" as="sourcePoint"/>
                        <mxPoint x="420" y="105" as="targetPoint"/>
                    </mxGeometry>
                </mxCell>
                <mxCell id="9" value="Logs model" style="text;html=1;align=center;verticalAlign=middle;resizable=0;points=[];autosize=1;strokeColor=none;fillColor=none;" vertex="1" parent="1">
                    <mxGeometry x="270" y="180" width="90" height="30" as="geometry"/>
                </mxCell>
                <mxCell id="14" value="S" style="swimlane;startSize=0;" vertex="1" parent="1">
                    <mxGeometry x="110" y="420" width="180" height="270" as="geometry"/>
                </mxCell>
                <mxCell id="11" value="" style="shape=image;verticalLabelPosition=bottom;labelBackgroundColor=default;verticalAlign=top;aspect=fixed;imageAspect=0;image=data:image/png,iVBORw0KGgoAAAANSUhEUgAAAsoAAADCCAYAAABQWuQEAAAKo2lDQ1BJQ0MgUHJvZmlsZQAASImVlgdQU+kWx79700NCCyCd0JsgndAJPXTpYCMkAUKJIRCaBUUWV2AtqIiAsqCrAgouKiBrQSyosAgoYF+QRUBZFwuiYnkXGMLuvnnvzTuZ757fnJzvnPN9c+/MHwAyicnnJ8GSACTz0gRBni7UiMgoKm4MkJAfAUgDWyYrlU8PDPQFiC36v9v7AQDN+btGc7X+/f//alJsTioLACgQ4Rh2KisZ4bPIes7iC9IAQFUgcc2MNP4ctyEsI0AGRPjeHMct8Pgcxyzw5/mckCBXANDIqfAkJlMQBwBJGYlT01lxSB2SPcImPDaXh/DcvI7JyevZCJ9EWA/J4SM8V58W85c6cX+rGSOqyWTGiXjhLPOGd+Om8pOYWf/ndfxvS04SLvbQQRYpXuAVhHhx5M7uJ673ETEvxj9gkbns+fx5jhd6hS4yK9U1apHZTDcf0d4kf99FjuV6MER10hghi8xJdQ9eZMH6IFGvWIErfZGZgqW+wsRQUTyewxDVz44PCV/kdG6Y/yKnJgb7LOW4iuICYZBofg7P02Wpr4fo7MmpfzkvlyHamxYf4iU6O3Npfg6PvlQzNUI0G5vj5r6UEyrK56e5iHrxkwJF+ZwkT1E8NT1YtDcNeSGX9gaK7jCB6R24yCAY0IEf8gwF/sATgDROZtrcIVzX87ME3Lj4NCod+bo4VAaPZbycamZiZg7A3Le68Cq8vT//DUJy+KXYNqS/vSECnUsxv1gAziL3LdWwFNNBciRyAGhrZAkF6Qsx9NwDA4hAAsgABaAKNIEeMAJmwArYAWfgDrxBAAgBkWAtYIF4kAwEIANsBFtBPigEu8F+UAYqwRFwApwCjaAZXABXwA3QCXpAP3gEhsAoeAmmwHswC0EQDiJDFEgBUoO0IUPIDKJBjpA75AsFQZFQNBQH8SAhtBHaBhVCxVAZVAXVQD9D56Er0C2oF3oADUMT0BvoE4yCSbAMrALrwCtgGkyHfeAQeA0cB6fA2XAevBMuhavhk3ATfAXuhPvhIfglPI0CKDGUHEodZYSioVxRAagoVCxKgNqMKkCVoKpR9ahWVAfqLmoINYn6iMaiKWgq2ghth/ZCh6JZ6BT0ZnQRugx9At2Evoa+ix5GT6G/YsgYZYwhxhbDwERg4jAZmHxMCeYY5hzmOqYfM4p5j8Vi5bC6WGusFzYSm4DdgC3CHsI2YNuwvdgR7DQOh1PAGeIccAE4Ji4Nl487iDuJu4zrw43iPuDF8Gp4M7wHPgrPw+fiS/C1+Ev4PvwYfpYgSdAm2BICCGxCFmEX4SihlXCHMEqYJUoRdYkOxBBiAnErsZRYT7xOfEx8KyYmpiFmI7ZSjCu2RaxU7LTYTbFhsY8kaZIByZW0miQk7SQdJ7WRHpDekslkHbIzOYqcRt5JriFfJT8lfxCniBuLM8TZ4jni5eJN4n3iryQIEtoSdIm1EtkSJRJnJO5ITEoSJHUkXSWZkpslyyXPSw5KTktRpEylAqSSpYqkaqVuSY1L46R1pN2l2dJ50kekr0qPUFAUTYorhUXZRjlKuU4ZlcHK6MowZBJkCmVOyXTLTMlKy1rIhslmypbLXpQdkkPJ6cgx5JLkdsk1yg3IfVqmsoy+jLNsx7L6ZX3LZuSV5J3lOfIF8g3y/fKfFKgK7gqJCnsUmhWeKKIVDRRXKmYoHla8rjipJKNkp8RSKlBqVHqoDCsbKAcpb1A+otylPK2iquKpwlc5qHJVZVJVTtVZNUF1n+ol1Qk1ipqjGldtn9pltRdUWSqdmkQtpV6jTqkrq3upC9Wr1LvVZzV0NUI1cjUaNJ5oEjVpmrGa+zTbNae01LT8tDZq1Wk91CZo07TjtQ9od2jP6OjqhOts12nWGdeV12XoZuvW6T7WI+s56aXoVevd08fq0/QT9Q/p9xjABpYG8QblBncMYUMrQ67hIcPe5ZjlNst5y6uXDxqRjOhG6UZ1RsPGcsa+xrnGzcavVmitiFqxZ0XHiq8mliZJJkdNHplKm3qb5pq2mr4xMzBjmZWb3TMnm3uY55i3mL+2MLTgWBy2uG9JsfSz3G7ZbvnFytpKYFVvNWGtZR1tXWE9SJOhBdKKaDdtMDYuNjk2F2w+2lrZptk22v5pZ2SXaFdrN26va8+xP2o/4qDhwHSochhypDpGO/7oOOSk7sR0qnZ65qzpzHY+5jxG16cn0E/SX7mYuAhczrnMuNq6bnJtc0O5eboVuHW7S7uHupe5P/XQ8IjzqPOY8rT03ODZ5oXx8vHa4zXIUGGwGDWMKW9r703e13xIPsE+ZT7PfA18Bb6tfrCft99ev8f+2v48/+YAEMAI2BvwJFA3MCXwl5XYlYEry1c+DzIN2hjUEUwJXhdcG/w+xCVkV8ijUL1QYWh7mETY6rCasJlwt/Di8KGIFRGbIjojFSO5kS1RuKiwqGNR06vcV+1fNbracnX+6oE1umsy19xaq7g2ae3FdRLrmOvORGOiw6Nroz8zA5jVzOkYRkxFzBTLlXWA9ZLtzN7HnuA4cIo5Y7EOscWx43EOcXvjJuKd4kviJ7mu3DLu6wSvhMqEmcSAxOOJ35LCkxqS8cnRyed50rxE3rX1qusz1/fyDfn5/KEU25T9KVMCH8GxVCh1TWpLmgwiirqEesLvhMPpjunl6R8ywjLOZEpl8jK7sgyydmSNZXtk/7QBvYG1oX2j+satG4c30TdVbYY2x2xuz9HMycsZ3eK55cRW4tbErb/mmuQW577bFr6tNU8lb0veyHee39Xli+cL8ge3222v/B79Pff77h3mOw7u+FrALrhdaFJYUvi5iFV0+wfTH0p/+LYzdmf3Lqtdh3djd/N2D+xx2nOiWKo4u3hkr9/epn3UfQX73u1ft/9WiUVJ5QHiAeGBoVLf0paDWgd3H/xcFl/WX+5S3lChXLGjYuYQ+1DfYefD9ZUqlYWVn37k/ni/yrOqqVqnuuQI9kj6kedHw452/ET7qeaY4rHCY1+O844PnQg6ca3GuqamVrl2Vx1cJ6ybOLn6ZM8pt1Mt9Ub1VQ1yDYWnwWnh6Rc/R/880OjT2H6Gdqb+rPbZinOUcwVNUFNW01RzfPNQS2RL73nv8+2tdq3nfjH+5fgF9QvlF2Uv7rpEvJR36dvl7MvTbfy2yStxV0ba17U/uhpx9d61lde6r/tcv3nD48bVDnrH5ZsONy/csr11/jbtdnOnVWdTl2XXuV8tfz3XbdXddMf6TkuPTU9rr33vpT6nvit33e7euMe419nv3987EDpwf3D14NB99v3xB0kPXj9Mfzj7aMtjzOOCJ5JPSp4qP63+Tf+3hiGroYvDbsNdz4KfPRphjbz8PfX3z6N5z8nPS8bUxmrGzcYvTHhM9LxY9WL0Jf/l7GT+H1J/VLzSe3X2T+c/u6YipkZfC15/e1P0VuHt8XcW79qnA6efvk9+PztT8EHhw4mPtI8dn8I/jc1mfMZ9Lv2i/6X1q8/Xx9+Sv33jMwXMeSmAQhYci+iGN8cBIEcCQOkBgLhqQUvPG7Sg/+cJ/Cde0NvzZgVAPeLmpA8iqUHNFkSDOCMyqA2JIT7EGcDm5qK1qHvnNfqc+RoBMKfpAXiyUwj+aQv6/S9z/9MDUdW/+X8BibkBDTxbAvEAAACKZVhJZk1NACoAAAAIAAQBGgAFAAAAAQAAAD4BGwAFAAAAAQAAAEYBKAADAAAAAQACAACHaQAEAAAAAQAAAE4AAAAAAAAAkAAAAAEAAACQAAAAAQADkoYABwAAABIAAAB4oAIABAAAAAEAAALKoAMABAAAAAEAAADCAAAAAEFTQ0lJAAAAU2NyZWVuc2hvdLfnOEIAAAAJcEhZcwAAFiUAABYlAUlSJPAAAAHWaVRYdFhNTDpjb20uYWRvYmUueG1wAAAAAAA8eDp4bXBtZXRhIHhtbG5zOng9ImFkb2JlOm5zOm1ldGEvIiB4OnhtcHRrPSJYTVAgQ29yZSA2LjAuMCI+CiAgIDxyZGY6UkRGIHhtbG5zOnJkZj0iaHR0cDovL3d3dy53My5vcmcvMTk5OS8wMi8yMi1yZGYtc3ludGF4LW5zIyI+CiAgICAgIDxyZGY6RGVzY3JpcHRpb24gcmRmOmFib3V0PSIiCiAgICAgICAgICAgIHhtbG5zOmV4aWY9Imh0dHA6Ly9ucy5hZG9iZS5jb20vZXhpZi8xLjAvIj4KICAgICAgICAgPGV4aWY6UGl4ZWxZRGltZW5zaW9uPjE5NDwvZXhpZjpQaXhlbFlEaW1lbnNpb24+CiAgICAgICAgIDxleGlmOlBpeGVsWERpbWVuc2lvbj43MTQ8L2V4aWY6UGl4ZWxYRGltZW5zaW9uPgogICAgICAgICA8ZXhpZjpVc2VyQ29tbWVudD5TY3JlZW5zaG90PC9leGlmOlVzZXJDb21tZW50PgogICAgICA8L3JkZjpEZXNjcmlwdGlvbj4KICAgPC9yZGY6UkRGPgo8L3g6eG1wbWV0YT4KMVMxdQAAABxpRE9UAAAAAgAAAAAAAABhAAAAKAAAAGEAAABhAABUHOrSJF0AAEAASURBVHgB7N2Hnx1Xef/xUV9VF0m2mu2VO6Y308F0HHoJAUIxkAApQJJXyL8BCeEHhARCIJTQEnrvvRcD7pabXGXJ6l2/531Wjxhf7t17d7VarXbP2KO5O+WU7zkz53Oeec6ZWYdiaepSFagKVAWqAlWBqkBVoCpQFagK3EuBWRWU76VH/aMqUBWoClQFqgJVgapAVaAqUBSooFwrQlWgKlAVqApUBaoCVYGqQFWgiwIVlLuIUndVBaoCVYGqQFWgKlAVqApUBSoo1zpQFagKVAWqAlWBqkBVoCpQFeiiQAXlLqLUXVWBqkBVoCpQFagKVAWqAlWBCsq1DlQFqgJVgapAVaAqUBWoClQFuihQQbmLKHVXVaAqUBWoClQFqgJVgapAVaCCcq0DVYGqQFWgKlAVqApUBaoCVYEuClRQ7iJK3VUVqApUBaoCVYGqQFWgKlAVqKBc60BVoCpQFagKVAWqAlWBqkBVoIsCFZS7iFJ3VQWqAlWBqkBVoCpQFagKVAUqKNc6UBWoClQFqgJVgapAVaAqUBXookAF5S6i1F1VgapAVaAqUBWoClQFqgJVgQrKtQ5UBaoCVYGqQFWgKlAVqApUBbooUEG5iyh1V1WgKlAVqApUBaoCVYGqQFWggnKtA1WBqkBVoCpQFagKVAWqAlWBLgpUUO4iSt1VFagKVAWqAlWBqkBVoCpQFaigXOtAVaAqUBWoClQFqgJVgapAVaCLAhWUu4hSd1UFqgJVgapAVaAqUBWoClQFKijXOlAVqApUBaoCVYGqQFWgKlAV6KJABeUuotRdVYGqQFWgKlAVqApUBaoCVYEKyrUOVAWqAlWBqkBVoCpQFagKVAW6KFBBuYsodVdVoCpQFagKVAWqAlWBqkBVoIJylzpw6PC+WV2O1V1VgapAVaAqUBWoClQFqgIzQ4EKyq1yBsgj6wgqz2r815S1dVr9WRWoClQFqgJVgapAVaAqMAMUqKAchZwW5EOHDjUH4u8Dh/fMDUSeHX/POmxaHsHmGVAraharAlWBqkBVoCpQFagKVAWaGQ/KBwKO98W689DBZtuBA83u2O6Pv+HzvADlodlzmqVz5jSLZs9u5gUxz6725XrbVAWqAlWBqkBVoCpQFZgRCsx4UN5z8GCzJQD5tv17m6v27mru2rcvQPlgcPKhZn5A8cq585vzFy5uVs2f3ywLaJ4fsJwW6OrDPCPukZrJqkBVoCpQFagKVAVmqAIzHpQ3H9jfbNi7p7l2987mqj07m7v2728OBDxbuF6snDu3OW9oUbNuwcJm+dx5YV2e2ywO6zJgnlsszDO05tRsVwWqAlWBqkBVoCpQFZjmCsxoUGYZvnHfnuYH2+9prg5Q3rJ3b7P7IA/lEVDmk7xg1pxmWcDyKQHJK+YPNWsDmM+YN79ZEfsWzhpxx6iW5Wl+l9TsVQWqAlWBqkBVoCowIxWYsaAMhfkiX7NnV/OVezY11wQo7w/r8og1+bBzRViMjeQDwovmzGtOnregWT1/QXPmgtjG71Ni30nhjrHwsP+yGlShmQp1qQpUBaoCVYGqQFWgKnDiKzBjQdkAvu3hYnHV7h3NN7dsajbs2RGQfChck0cG8pWiBcqx+HcudwtQzPVi3rzmtLkjwLxu3lCzJizMgNl5ZT18nWvrUhWoClQFqgJVgapAVaAqcGIqMGNBeW8A8bZws7hyV4Dy5rsClHdGCSYodynMIOBZrMsBzHNmzW2WhivGurAqrw0L87oFQ+HLPC8sy3OaxeGOMdSyMHcJqe6qClQFqgJVgapAVaAqUBU4ARSYsaDM7WJXzG4BlL8WFuXrwqJ8KCzKfWGZzZh1OYAYGC8J94ulYWFeGdB8ZgDz2rAunx7QvOSwhfkEqAM1iVWBqkBVoCpQFagKVAWqAl0UmLGgbMge94trw0f563yUd+1q9h3c3+w3mK+4X3RRK3elS0ZsuWTMnR2D/QKQzwzr8toCy0Mx+C9cNMD04QF/c6o7RqpXt1WBqkBVoCpQFagKVAVOCAVmLCizHR8MWL4hpob7zo6tZTDf1j27m10H9o2Acj9YVrxcMWIzJ2B4fnyUZHFYklmXT425l827fEb4L68Ki/Op4dfMHSMBnAtHXaauAp3llH9nisdbfp3hZHj9tuONr1+4Yz3eK/3HKn2THV8/PTI9xyq//eKvx6sCVYGqQFVg8hWYsaCcUt8eM138LqzK18esF7fHdnOA866wLPsQSZBtoHQsA0CzxnNWwPKCcLkYCjheEcDMwrwmYPm0AOiTw8LsgyVDAdU4eQSxMxVTd+vLhfy5d4YeO8Pavj8UkXbzSC+L/MoPa/l0Qv9OIMq/s5TGC0qd4WR4/bbjja9fuGM93iv9xyp9kx1fPz0yPccqv/3ir8erAlWBqkBVYPIVmPGgvCcgcEsA4J379oZ1eVdz4+5Y9+5utuzf1xwMH+ZDAYjZQPYDZg0oaCwWZv7LAccG/S0PCzP/5QvjwyX8l82PASxPhAZ3V+TfR1hupU90JAyAlMeV0RE4P+aUPj3yZno8H185UZcs30HLY6znn6i6jDfdM1WfmZrv8daTel1VoCpQFTgRFJjxoJyFBABvCRi8ad/usC7vau6I3zvD2rwrIHEPS2qsg1qXnThrdsDwHDNgzC0D/tbG3MsXLVrcrJk7VPyWFwVIL43jBgVOxYX/Ngvypsj/zfFRlhvDLeWGWLcGOM8DytEJOH/hwrCas5jH573Dumx/2MunYnZ6pmm/8t2zp9mxY0ezffv2Zlf4qu/evbuxH/gk/MyOzsAcbwyiHBdGvhcvXtycfPLJzdDQUNcOz4H4LLowtm3b1tx9990l/HZ4PRPUcUB84rKedNJJJf48RXjSm+Hvi8+vS8/y5cubJUuWlPRK93gWaaeD9N9zzz3Nzp1mhfFypdwFR4IsncPQhTbzw91I/OJetGhRMy86U/YPsgj3YNQtcYpPecibsqGl4+KSn7lR95SBeOhiK+5ui2vpIh+bN28uv9vlR9/Rlr3xESLXqhvSJH7lvnTp0lIW0mKRdvE4TzzSnR0vaXCduOhyyimn9Kw3o6WlHqsKVAWqAlWByVeggvJhzYGhWTDuCTj2WevbwGG4Ydwa690BiDvDHaNAQpzXCQu9iq1ARDSQ8wKKF0eDelL5ot+CMpXcmpgl4+yAzFNbIJENa6/wJnM/Hfhvs7JvCEvyHSAg4Gl/aASG5wfknxTW8TPCUn7/hUvCH3tBgeUFUxT8e2kHAO+6667mxhtvbK644oqy3bRpUwEe4JOQA/pA4IoVK5p169Y15557bnPf+963WbVqVYGgdtmpH0Bp69atzbXXXtv84Ac/aG666aYCzoBqLAuoWr9+fYnvPve5T3PaaaeVy8UhrJtvvrn56U9/2lx33XUF6Bx/9KMfXc4HhNI91kXYoPC2225rrrnmmuYXv/hFc+utt5b4Ous+ELaCVQC5du3a5rzzzmvWrFlzBAj7xS/MBFpx/u53vyu60UwnIGGZxoBYXHQ///zzm3POOafoc+qpp3aNBnhv2bKl5OOHP/xh0Ugas/xOP/30rtflTnWBBrmK/2EPe1i5ntZA3ZLlrRx+9rOfFe1AtLw5BpJ1YJTlAx7wgKIPeG7Xm4yzbqsCVYGqQFVg6ihQQblVFjySR6aNO9RsClC8MazKGwMS7wxQ3hy/weOeAMX9ASgaQP/Fj1YIXX5G464xnBON4pywLhvwtyJ8mE0jd87QiOvC4gCNRXGcdZkLw1SwyXK1+PWu7fFBlp3NTZH/bQf2hitKK7/yFOldFbD/kMVLm/OGwloeeVoanYITYQFmAAaY/fa3vy0rQAPM4AgoplVZfkAPUAZkQOuiiy5qHv7whxdYA23gLaFH3QDJGzduLBD7hS98oUC48MBtnjeITmDsfve7X/PQhz60efzjH98MDw+Xy6RfeNL86U9/uvnlL39ZLJlnnXVW85znPKecv3LlyiMgN0hceY7033HHHc3vf//75ic/+Unz3e9+t9mwYcMRUG6nPy28gBHU60QAWCsYBaKjAXu5jyI+MHvLLbcUnYC5Tou/WWdZdeVXvMBfXKtXry5x6Kw86EEPKroAdUDaTp9yEI58fO5zn2tuv/32Un5g9UlPelJzwQUXjJo+9eH73/9+KcfLL7+8nHvJJZc0D3nIQ5oLL7ywdJzops5cffXVJd2/+c1vSucrrenK3G/ppsljHvOYAvjqzHg6MllOdVsVqApUBaoCx16BCsodGpsJ40DwoAFsOwKKtwccbwp/5ZsDFkHj7WFl3BsuCfsOxetg7hhx3pGl/fvIzvgRDTz4nRVgOS+AeEFxx4jBfXPnNKtYlgMyV4elannMjrEozpl9+Px2EJP9u8wGsv2ekud7wqq8KzT4oyXSuTy+UHj2oiXN+bHeJ3yWDVw8EZa0JP/qV79qPvOZzzS2CcgsycoV3IAuoJNAl6/9gRpYfsQjHtE88YlPbM4+++wjlmXnpmX0e9/7XgOUQZRwLOBy0AUosySDq2c961kFDoWfrhGsye973/uaH/3oRwXuWSyBsvNZdlnA2+A4aLzA+Bvf+EaBZJAJNsUrrHZ4+ZtWCbGAWZqf/OQnF4g944wzmmXLlnWNmiYgmMX2K1/5SvPjH/+4ueqqqwrQcr2QzyyHLAMBAWLuDwmeOi3KQ6elncYEfuXw2c9+tljegfv973//5nnPe14pP3AvfZmXdkKvvPLK5v/+7/8KLPvtWhb7Rz3qUUXjM888s5yufIVPNzpIs7ypL9wt1Kk777yzdLQe+chHFshmdZeHulQFqgJVgarA1FWggnKXskn0BbeA2aeubwsL6xXxUZLbvFIPeAbQW/fvaXZHI2/RiMc/5feo/wCNACUW5rnhxLC8gPLCmH95QVia5zenBCxbWZiPJzBfFwMav7Z9S3PFzh3N7gDlvUA5IP7ey6yYDm9+s2bh4uaC8L9+yNCSYim/9zlT86+0JLOWAhxwZmH1A6fpDwx4wBqw5gbA8slKCdQAICB96Utf2jz4wQ8uFmfnqwvAEsR++9vfbr74xS8WUBY+MALZwGyQV+8s2NwLWE0vCUvmcFiUhc/KKk3cOv7f//t/ZQssnfvc5z63WJ9ZojvBURoGWehBF+n/+c9/fsSVQPpZiVlDLSBXWljgWX+lAXCybLOAg0KuCoCSRR44thfXgVlaAVJuC6y+wuWqwEqsLLg8AE8+wIAz/aadQxvgCsxZiNM/WjxcRnSCvvWtbxXLO9i10OnpT396SaPODljuBsqsyB/5yEeKDmAeKF988cXluqc+9amNjonyYNH/wAc+UModsEsDPaQ53zZIu+vFJX7W8H6uHyWx9Z+qQFWgKlAVOG4KVFDuIz0bYHHHiAaP68WWWA1wuyk+eX11fNVvU7gkmEJNY2mGjPjRJ8Q4DJZjNXsE6zLY5MPMbWFdTCl3Pxbm2Mff1zkZInA/los8WKTtuvDR/mqA8pVAOdxP9u7f2wHKI3lYHAP5TovG//yA5YsXLm3WhUW5G3Acy3SPNWz55LLwiU98ovnOd75TXpeDGPDKCvu4xz2ugAxoBnasgeANNLmOWwBQcxxkXXbZZQXUQC0YFD5QBpjf/OY3i0UZZFlYQC+99NICdCyPndblTu0S3MG1FagKX5pAJlB+5zvfWSyeCcospSAVKAMxYXaG20+ztJACZRALTqUFiAJSgGjhvkKLG264oeTXVrqArQ4HFwWWcLDc6aLieq4NrL3yYcsiC7ydS1uWaZANlnVY6MrqrBzExQcZTIvnRS96UQHz1En4QPnXv/51KQcgDpRpkR0QOr385S8vFmbndy5tUKYJ0AX/rnvKU57SDEfHBdRzFwHKOlOgXUeK64q3FOoQy766RRcdA9o84QlPKNePtWw601j/rgpUBaoCVYFjp0AF5QG1hZB8dHfFercGOwa6XbVrW0ybtqfMMbwjGss9MeBv32F3jIKcce5oSwLM7LBCzp0VswYEKAPk+y1cFMAcswfMmReW5fBtDOuyeYtBc6dNd7Twx3qsGyhfEZ2B3TELyL5RQHnFYVB+hEF9Ac5TueFn4QNcXBXe/e53F1BmJQa4QMYr/ARZUJQWZXDDlxn8groEOr6ur371q4tlmU+wa7qBMsiiC1/j173udcUqCaaE317a2vmd7gxpJQXWg4JyDjYUTjvcdny9fkvv5z//+QKYXC8AIFhlTX3FK17RPPCBDyxhJihff/31BaiBpQGMAJHOOgZAGVjSCgBbshz4837sYx8rkKwzAfa5bkg7iy9rMVBmlXVNDl4Ey9IFtF0jHpZ08NmOpxcop+sGgH/Zy15W4Lbt0516JSizSNNEOXSCsnyqF+9///vL2wZpUA/AvA6WTo0OC5hXz4QjjyzSXHYyrl5lUfdXBaoCVYGqwPFToILyGLSHvfkBjh0BxFwwbguAvCH8lzcGMN/JyncgZkqIYweiUS/gOQAsR0s5AsFhQR4KMD45rLLLA5iXB0itjunkzvQ73DFyvuIyiDDSEvgzhtT3P7UTlL/CogyUw6K8L2Dg3ssIfJXBiQH2LMpTHZTlD9RwWWC9/Jd/+ZcCvaySYMzgrsc+9rEFlr0eZwlMMM1py1gkv/71rxcrJQgDOq985SsLQOZgMvF0WpQTlFkb3/zmNxewBk1AuL10QpP4pQNQO2YVftuinK4X8uWVftuiPF7XC+lN14sEZXDH1eQNb3hDsRBLC3hlAc5Bc1wQvvzlLxfrO9cDmnBLYaV/9rOfXToj8guwXaPD8p73vKcxIwWrPksv0E3fbxZslmw6yTdrNWgHpgYx2oJRbwNA7yXhnvKMZzyjgLN4OkHZ2wDppqcwlTvwVe5p4aV5ag2UP/zhDxfXiwRlaUuLMss6i7J08BWXNsfkQ+eKBqaXA87DYX0G6PaxKIuTi0pdqgJVgapAVWDqKlBBeZxlk9BsKrkbApJZlm8PP+a7Apy3AuYAMtZl06lFCz8CzX3iysZZQ70wrMmnhv/y6ljPjNe1q2LQ3CnRsJuveEE09GbHME3bRKIyELFIB9eL0UF55DyuFytOIFAGmMCFS8Hb3va2AspAxywNz3zmM49YJM1skcCUmtim77HX6vycvVJnGTQDAmsjqO0GyqyldDUQ7C1veUuBqW6gLA6Lc3st3UDZzAzdXC8mCpTBHVAGk3/zN39T4DLrazs9dOGTzerOogqIaQkeX/WqVxWrqnwBXoDLUsuyzzcZvCoHoCse1mTXtrUQFzgHvFwpuM6AWfEMB4gCcq4UrnWdMmq7XiQoS4PjrOR8zXVgXvjCFxZLOfcWQOt4P1DWUZIe57GMqx/DkQ6+09wsdCLAs62/Qb86A5Crj7JSqEtVoCpQFZjaClRQPorygZV7A4R3REPJwuwDHYD5ynBV2MjKFtC8O9wxNKT3+sLfKHEmFJh7eX74Ly8MeOB+cVpA8nBYbdeWD3wEMMe+EViOBn+U8MZyCIRYpGF8oLw05lMO14uxRDrJ5wJllleg/Na3vrVYloFyDj4DWmDW3yyOYNlCEysYBT5g22+wyzrIoplWXzp2WpTboPyP//iPA4Fy1oVOidpgCkhZlI81KMszKyng/du//dt7gbL0qeOs9eAXLBskCWTNK8xtgiXadbTVmQDeNAHKH/rQh4pbC725vrz2ta8twJuuEG0dso5yweB+oRyBub9BLyttgrzwpKcbKGeYzmHt5UrCxxkwK3t5dc5ooJyuE/LPX1peuOfw5xYm/2pgzA1FOli35Ylvs1k3Mn+ur0tVoCpQFagKTE0FKihPULmYVs5HS+4IWLgmXBVuilkjNgcob4m/twWcAeYDAdVHXDL6xXsYzDTWZr9YFjNinDm0sFkTH/hYHQP+zMVs8N+SWNPC3C/IfscTQsQ5XUEZFLM+etVvEBwXDIPRgC4Ln9f+fEmHwyoIvIAOS7HtaBbg1JaG1k5QTtcLIPj617/+yIAvcG1JcLMFkuJKv+QMO7fC73S9mAxQTotyN1CWNuliKeZyAGDf+973lkFujnFXALA6IrQG3gAWXP7v//7vEaAGum9605uKPiA29RFGe/GRGJp+MwZLmpWC9dr5QNz1wgHoILUNymbzoK9zrdKsw8PV5pJw25A+sMwlw3HQ38v1AihzdVFm0iNsrjlgOd9SSIOOmXSwbutUsZiDaFZraalLVaAqUBWoCkxdBSooT1DZsMWC5T0HDzU+h81/+e5YN8Ynsa8NH1ifxN4dfxvwdyhgTQPdd4kGOK2zBvotCj9lPsFLogE/PVwyhufHVFNhwV0Z+wz4yxDzmr7hd5yQaZrOoCyPIMYgso9//OMF6AAOwONP67W4+W298gdPgGk4oNlvbgzAJ6G2rVdKaZ+1FygDpBe84AVlzl8gllbovN4+gCwd4gSVGV+eI/ypCso6IQZHAne+x6y+/LtZUF/zmtcUizRtWZRZwwH1V7/61QLXLKxA1WBH/sZt15fMu63882/25T6gDcj5RtNSR+Qv//IvSzyglOW/DcoGGtKXewXwZwVn6bVIF3/lF7/4xcV1g/ZgHIiLp9NHuQ3K8i1NOgDKXv64W0hrdnxYmblkcPUQd2fZl0TUf6oCVYGqQFVgSilQQXmCisMgPxbl+FRF2ZpSzt98mK+LeYhv5asYFuZt++PVf6x7AqbNoqEhtfZdQHOscwOY5wYwnxqAPBywfEZYpVbNG2pOjn1cNBbOjpkS4rwY+tU3yM4TMh3TGZTlWT5zWjKWZQPKNsS0ZIDOAmiADGAGNcMByoAZSNkPlsGWLUsz39O0fGZ5dgNlYQvDzBfCzWsShF3LkizM9evXlwGCzkugdr3FeVMVlDNddOV7DIYN0uN7/Gd/9mfF99jsIvb5oAkA5abBqk9jrh0GRxoA2GuRf9d3+jjT0XWu5+NMO9bitFy3XUGUA79y6TW1m7DobEo9vspcRViLQfRHP/rRvqCc5QKY5UVngWVd+MrU2wmQDL5ZkrPse+Wx7q8KVAWqAlWBqaFABeWjKAcNtkUDvTt8NLeEpbJYkwOC5wanLg/3CNO67Q6XCy4YG+MDJbdEQ3pzTC3HLaMM9otzB/VfjohKXD4dzcK8JOB4Wby69dGSVeGOcRb/5WjsT4pj5mAeKyq38zNdXS+yuFkaQZCPUQA2Fkl+riCHvy0rIKABzYAY6PBbNc0XADOIC/yx+toPhiw0tLZBmQ8tq7X9CeG26k1CcqZLvI5xAWHZBH45m0aeI5wE0sn0UdZJAKCjuV6w0IJTnQ+uLdJHa3o9//nPLyAMRoGuL/GxKDuXRR+YAmXTtbFA91rknzsDX2CgzUfbzBws0HTzARjhCI9Vtw3KLMo6IsI3bZ23C+bT5i4hXHMw09z1XCR0nv7nf/6npHM0i3KmVXg0EK9r1SVQrDNlBeO9LOUZRt1WBaoCVYGqwNRRoILyOMsCImtYfbkPHPsQyR1hPdoS08P5e15YdlfHTBU+6cza6/zN0YjeFtbkm8PCfGe4YmyOlYWZddlnsYUX//ROUYBVLgWyAgwWxPzLiwPIV7AwLxxq1oR1mSvGSRHn0jg+/zAw/+HKDOGPtyX+2C3s6Q7KgAbMsCyzfvJxZVVmWQTLXqMDPBZC54EbAJuvzoEfiyS/5vx0MiCiHR17gbJw0gLtd+eSoMz1wCwRXAEAaoK484U/lUGZZjR917veVVwwaDk8PFw+rQ20wSww/tKXvlRA1wdNQKW5kAHqS17ykmLZ7dQm/5b/9Pvlo/yOd7zjCCgDYJZr4bBc06kTlL0NoKtBg8qUCw5YTxcMsOy4dCirz33uc+U4UHZ+Tg/Xdr3ItNVtVaAqUBWoCkwvBSooj6M8NdRw1lf77gpAvjrmUb4pBvDdHgP4QHIgbxmAxxViTVh77xOzVZweIAtaSyMfViY+y9fu3lmsy3eEdXl7ADZ4K1/3K6H3SVgAGfj1ERIW5vKFv2jUuWScFtt1Acxnh4V5RQCz4ULO7bRedsYgbZaZAMryytqXwMW3lF/pxo0by8AyH9Cw+tsxVlK6AKd8lc6SDGi9qjcdGQADusJug/IXvvCF4t9KW9e6DnAJr10mfrNi859l1TQLg3CdyxKZi/CnMiiD3jYo63CsD1eS/LR2JyizBtM3QZlFmNW51yL/ys0AOhZloAy26QeUAS5QFl4blHPQoHIy2O+Nb3xjeTvgWj7V5sfWcVJG0kh/rhKmrgPbBupVUO5VKnV/VaAqUBWYngpUUB5jubIgbw8Y3hmQxaWChfjq+MxzmeUipobbeehA+XoejAWwK2Ke4Qt9aW/BwubUsPSaqcLAu11xPRcMX/jz0RLzL2/fa3aMfeGSEVNtRdgFWyO+QZZZEeacgOKFEYd41gWgnx1xror4F8Wx8oW/OSMWZuF1szADkHIsgGO6W5RLRlv/eF0O8MBXQrItdwz7WJnBHOuoGQycy4IMqLgKAC8+tsBqNFA2INA1tqA6QTm3QJmrB8jjJzsclth8XZ/JneqgDGLboMzNQn6AJ4uyAY3g+Wtf+1pxaQCpCdMG8/ExplGvRf5zdg2gzMUDzNLQNG/mUQbKtGPdTosyUE7XC8f//u//vgC52Sikly8yf2Vh8093Dmu+QYMAWn3gtsHa7Fi1KPcqobq/KlAVqApMHwUqKA9QlgmQ0RIXP+QbAW74G98eUHtXvJa/JxrjHcWFYn8A7mHYjHBnF0vv7JjaLQA5oOjkw77E68PSe0pArRfve+J8s2PcEZDtC3+3haV5C+A2O0YAc1BXAa++yYy0AYV5AcXmX14c4YsTqK8KK/PqiNMX/riBiLebhTnzKZyZBMrybWVhBlagDewBJmBsZW0GyHyNQRU3DS4ZgNeUZMDpiU98YpmDV1jdLMptkDMFHes0WG4v6ZoBls18AcxcZ81F+FPRoix9NKEf32SuF7SiJfcUriRA2TzFBrv5WAgfZT7itOXy4DiXCAMeey3yLw7WfqBsdg2ASyPX/cVf/EUpD+GB9NFAmRuFTg9fdS4YpgsExeqCWTNYn73pURd0mLwNqKDcq2Tq/qpAVaAqMP0UqKA8SplC3pFPVscr+mg4fVjkzgDi68PNwierbw/A5WO8P1afrdaAA9tcCtwchhyD7xYGtJ4WsHpOQOsZYe1dE78Xx36zY9wT198YYd4S7ht3xLolfCu3Rfh8l/fHaoaMdtgZx722haVGoGpOAPPs8F9eEpC+KoDMh0rOijmYTw9rszhZtbmC+GhJLiX98Yd0T1dQBkDABxCDKH971W5lzU2/4dQiB6eB5Zz7l2+twX9ADewaNAbw0mXAtb1AmZU4PzjiNX7bqpzl0Ibi3NfeCn+qgjKgNMjOTBY+6ezTzjTkSmLaNx0KHQAdD8e+GT7Gn//854vVFoSyKJtnGsDSptvsEPKvLHzMBCh/8IMfLIPxnO86n9gWjvAAOVAWT6dF+R/+4R+K1V6ZsxazcIN3U9p5k2ARpjJWTwC/wZzmWa4W5XaNrL+rAlWBqsD0VaCCco+yhbvgdGe4QBiEd2tYeq/fs7N8pnpLgPF2r+rD6lsG4R3ks9wDZIFyhFV8iQNQh8LauzT8TdfFLBUXLlxSXCR8ljpewpe47gk4vj3cMG4J6/L1Ybm+K+LdE/HtZWGO9JRoRv4JoO2R+BLnCDAD9AWsyxHnKQHJp0e8w+G/vDr+Xh77FwUsJ5iV8CPI6QzKAJMLBZgDWiAO/LAepu9wW1WaAGvXgWtfkwNd3AX4tgJo1ybgmcfXNSA6QTB9lOmaoAyswXn6HmcZtOPu9Vv4UxGUpYtlmHsD4DRbBL9esMnqzidY/nVIgLKPeQBdn352Hj1Ya4Gu83IqtW7aGHhnLmxlYdq3dKlwnXjEJx7lPAgoc61hSWYJZ1l2DTBWPzJ+9cC0ctWi3Ktm1v1VgapAVWD6KVBBuaNMAbKVD/GmgFbzIN8doMrSe118mvruANd94YfMyjvwtG4RnsaWH/FQgOtJYUleFxbeixYubc6M7fK58TGRw8BqmjmuGLdGnBviYyV3BJxtjTi3x99bDwTkiVcCe4G5Q0eWEVieFb7Jc8O6PD/AeHnAsmnk1s6fH24ZAc9hceaOsZAFOq7D3tI6XS3KwJa11wwGrMLpj2oWCzNYeF3PgpiWTPDXXrhcgDOAx23ALBkAG/j68hyLZj9Qfstb3lLOB4YgMkGsHc9ovwcBZemRH64hpe5FmY5loc9nP/vZkkeD7Vhw2/kEi+1w00pPH7DJomzlrmCmEB0JAKwj4TrlwGpLSx8M4frAsss32awVzufX7FpLaiTvVp2cto8zy3F2WHxwJD9Ywv94EFDONwfO/dSnPlXyIA75Fl+mwXSAFZSLHPWfqkBVoCowIxSooBzFnCgEJcxkwc94Y1h1f7NrZJCemSyA6vbwv/R1PcPsssEepJYUoAgI4A6xIqaMO3doUXNOrCOQPDLXcrpAjLh6xGd1w5LN1YP7xaYA5BsD0q+K9NwZ6Qpv2ngVHGmI49mI904HWB4BjZHZMcLtIuDMV/58/nptWJfvv2hJWJhjNoc4UTqkd7qCsoFZQM7rdQPAfBQCsAI0s1dwEUjLcruME9RYLrleADxhJKB5FQ8EAZrrRnO9+Kd/+qd7gXLvsut+RPi9LMrg8nnPe14J38wRrOWZ9u6hdd/bC5QvueSSIx2CUq9VrlhYX0ExKzuLLLj2N6uu+abpYzYK8G7hF8yqrMPx9re/vUy/BpRZbME00H/a055WYNn5mYd0nVF2H/jAB4rlmvVeGQobYCtHAwZdw/LcD5R1imgKloXFUq0TxCUk57/ONJhDW2eoul5QpC5VgapAVWD6KzDjQRkYpx/y9gBPluRdYTFmQf5VzGaxMay5e1mQ47XrgYDWkenb+lQMsOm/YIh5ZUCfuY7Dahvr6vnzmwsOu1yw6LLkdi5tcDezxuYA9ZsjPb/buT2+8LenpHFHpGV3APTeSJelXBONfb+lwM1hC/O8sDKvDVeMhy9ZFjNkxGeTpTHS45zpCso33HBDgSuABnZZQEGSOZF9EAOksSqb7YC1F7w5DtDS9cLgM6B2xRVXFLldC5xYQsGa81lL264XXDYsBpuxeIoHRIpjtEX8zuHPnK4Iwu8EZfAPVs28YTYG4QNUn4UebVHW4gCaPqpia5/0ti3KXCp8+OTiiy8us0qYXcJ5dAGYOgzpbuI6oA1ADdzjBmFWkEsCsoeHh4s+aYEG1CzKBtEBa3lltTXY8dJLLy2DANOXW76Vgbhoy7WDJdo+AGswJVDmfiFeSycosxIboAfEzXrhXOmUF+F7w+AtQc6CAfy5ZYjDOQnKrqezNxH216UqUBWoClQFpqcCMxKUiz9xlCeYZT0Gx3cFdG4ICL01BtRtCTjmbsEXeVf4BhcrVpynIY1/Rq8J0WiWqdoCkM164et55lBeHTNerDWYjq9wuDuYJs5X+/guj7aEo0UZ7MeqvTnSYzq6jWHZvjXA2bo9LMxAX9oGSp98lzSOTF+3MizK58U8z+cNLW7OiQGGywNUpGi6gjKfVYDLYsjymV9kA8br168v4AN+wHKCYwKU1/gGfbmGPytgYwF9ylOeUgDNIC+g6nwWZTANxn2ZDzhaxPGkJz2pWEpBYT9QBq7mVRYPIAe+wm+DsunR+EwDZdZw1nEDDOUBXI+2iB+wmw6NFdY19rGcs6hKP1hkeQeYLNZgdPgw8AJIcAmkdQ5yKjVpMXMHoH7BC15QBsDRhs4WeQDLOir8ma1cNcA2MAbL5kSWD79z9on0gWbp5eOsPN2fzjVNnw4LjelgaYNy25fZeZ2g7Hy68mH3ARr5B/B+i8d9Iy3twXwVlKlWl6pAVaAqMH0VmHGgDHO5TgBkU7Nti8YagJrF4voAz9sCQrcEfBYXi7DmHiorQO5TCcBnnMK9Yl4M2FsYsLEsIHllzHSxJqy2pmczy8UpYb2aF+eGDatPgPc+nMBcBhZGekHyxph9w4dL7om/dwdI72fdi/RGoguI3DuEjr+kN9ZTIn3rA5TPj/WisHSbFWM6gzKoA30smWZBYJkEX6Y1A4ispmAIkPoNVBOUWRqt4IvrAMAEaCzR/FYBGhBMUDZlGdAEXEDZfj63LL22LLlpjcxtRykVaAR9LNVpwRROAh1AboOyNIFd4QN9/taWXuHLszz6it2Tn/zk5oILLiiAy/JuECLLO610Egw8NGMFeBW2hW40ZXUFkwBZXLSjB8v2n/zJn5T0A+dMT7k4/uF+AZa5sXz6058ubg+mfhOXMuBjrZNgmjx55jOss6IMxZXnsXS3P/ktT5b0UZaPnPVCOoDy3/3d3xVrd1qUnU9bK+jX0aGvNwjKT15pC5RZlOlVQZlqdakKVAWqAtNXgRkFyiOQPOKDzELrq3o++HH97njdGsC5PaB5V+zbGyvoRMf+6wfJBUKAZ4BPmdUiYHN1wPG5QwubtXOHAphN0xYD9kB0nBd4VGB0LNVqJO0j1mVT1Vm3S38M+Lti187iIrLDLByRhzJVXRw/wvbR8HddDoPy2QHI5y+aGaDMTYAVFAiCs1xZiO23gE0rCEv/VdZPoGQVBnDzGh6g+eIcKy7rLRAEWiyj3AIAGlcEszpYHHetbRte27/LiYf/kQ4WZXCW8wsLXxpYPrlcJCgDVtZVYVulH4xbeoXvuFX6+RDzvwWoAPPLX/5yST+NWMidJ1zWXWFbxFfeuIQ+0mQ/SGadBpJ8voE1wAblmZ5ycfwDfk3TxzosPp+SphWAzvho4Fr5pj9AFqe4gCq3DunmrgGq7VduFh2byy+/vOTjk5/8ZBkEqJxYxd/0pjcVUBZPWx/x0BaU60j5EAkNcmAidw2gzdVDZ6B9bYm0/lMVqApUBaoC00aBGQPK3BNYkH1VbytIDivsHfHRkI0BRzfGVGyssgfDGnuABTka4WiVRy9kYHx4ncsPOfx9TwpAXhYN+ilhOWZFPjdcGU4Li20Okhs9wP5HC7THaTAbBpt/mSvGlQH6twRAbAlQ3hp/3xO/WZhLXuIcDX/X/ITp+ORIH1C+IAb0zQSLcqrMAgqWQRQIYjFkWTYbA+BkMQZ+Rbu4KC2vIJc1lWURJHEtAF18YhO4XCMsfr7cFgz+E77wAJ7jGW6mp3Ob8AUSgR2L9WWXXVZg0LXp4wvGTa/G+gkuAV7Ca2eYnX+LQ5rlzcA/FlnACWpBIkuy9INXFtYMN9Of1wNT6QTQINkAQh8YYXVlqe5mSe5MSw5+NBMJVwdlw7UFRCsL+RVfgrp4AD0gvyR8n1ncxSuu9iIf/JLlhWVfPljoDbrkquGNgHCt3RYuHizdrteZ0mmhkQ4SMOey0uvabuHVfVWBqkBVoCpwYikwrUE5UVcTWPyQAyJvCcvxNWU+ZF/T21++qGfKtT0Axn+9oLKjXIsfcrhWzA3LVdjtAojnNRfETBY+7GG6NRZkluQFAdH8kP94yF5HgGP8U96k13RyPlayNUBiy2EL85VhYb5j78jcy/tjIOKhONYVzFqgfH6A8n1ngOtFypyWTHDJesoCzL/WCqaALmB2HpgEyNwZuGWwYtqCJK4BgM3xNjCBOzDO1xdobgj3ggwv0zDIlguBac+4RCSQuy6hNS3XrLBgE1wmyA4SPsgFl3yPWUptxcm6zhoL8MEyXWiRoC9s+XW9vCcgg2yrNANXkN/NktyZNoBPcy4VXFvoBVLBqf2OC0cnhdV4eHi4pNVWOSgb6XZOe5EPmui0sL4rE2Umn6zoOX1e+5r2b3ErQzoIQ/gAWQfAtZ1g3r62/q4KVAWqAlWBE1+BaQvKLMj7o3wAMCty+ZBH+CHfFNbj68LdYlP83h8WWPMhB2+WpStMtsq4gFDAAf/i+QHBi2OAnqnWTgqfZLNZXBgzR6wKC+2SACsD9eK0srAAH8sFMO+N/G6LvPoE9pXREWApLx9GiUGK/K19GMUHVO4FUZGstCjPNFBWHrRIlwrADDpBGlD2mj3BVrkDIgCYlmSQBA4NPHO81I1WIWfYwgFYYJzLAKtyvyXDEgZLLQgUb3swnDAcF2bCpfSzwNqfx8uPUf5J0JWfdJHQMQDEwDhhWRxtUM48A8e2JZkm4Bi0cn8Q1iCLNFuBLR9legFl8E9D+UxQ1kmhBYu+Tgorc9vPuB2ffNCc/7RyEH7CvK20j7Zw9aCpNLByy4+Okni7gfloYdVjVYGqQFWgKnDiKTAtQVmDCxy3RiPpk9Mb9u6KwW97YiaLvfHxjpFPQ+8JS+uBOD4CFQEWh2G5VxEWMIhG0mA9H+8AmGaxWBsgsyrmRl4ZVuT8cAeb1mygPImLwX77Iw8szFsDjOWb//LNZSaPkQF/OgX3+lDKrIORj6HiejETQVnxKH8wlb6vLJeswemLDKTBERADreCIBRUgg8xegJZhJ/il+8BIfRu8Yqh3QFB8YF2c7QUEikO6rYOAePt64cuDfAFccdmXugibO4qtfZ3pz+tdJwxbaaSZY9ZBl4xTHoAxQJUnZZGuF8KmBcClhzLJuLrFk2nOchBOlqOtvI+2JGi7XsfJwv0irx1L/kaLpx6rClQFqgJVgampwLQBZZzLYsoPeUcAYRmsF7Boujdf1LuTZSisqwA5fZCPsHFc02spjX00+vNiXRCWY9O98UM2m8W68EFeE1ZlM0Usi+PgeHAs6BXj+PcfyUXkR/65mWwMP+xbwg3jruwkhCZ7DnLLGBmsePIcs16MDOabSa4X3VTuhMBu59g3VjgaNNxe8eX+fvEebTy9wh803F7XZ/rHuu0X71jjy/DGel2m+2ivz3DqtipQFagKVAVOHAWmBShrwHx2gxXZZ6dvDChkTb0j3Cw2BSBvCyvy7nCz2BdwyBO5LKPAcRafBnVWWJzmBhwvjrmPWY3XBhifExat0wOUh8L/eNHssMYB6eMMyZnm3Broxy97ZwxO5IN9ewCyDoMPqZhSbkd0GsyOcXLka/0QUDaYb9G0nx4u9anbqkBVoCpQFagKVAWqAv0UOOFBGRDyQTa1m9kszGRxQ7gbbCx+yDGVVACi160j8yGzorIIjuI3eRh45wb8zg8IXhQguSReJ68IMF4ZluN1AcpnxyvbUwOak7nHa6HqVzgTcVy3gKX97tBgQ1jXfeHv9lg3ReeBhX0o3EjWhAvJOfHBkQrKE6F4DaMqUBWoClQFqgJVgemiwAkJyuliwM3hngDAGwOKbwoLsjmR7wwY3BlWZTNaGMDGijzyyjSv6l10BXiB8uxZYSmO+WBjijfTvK0PkOSH7Gt6ZrNYCqJHg+3eURyXI3K+NyzLPtHtAyvbQp/bQqfrw+LuE9knRWfgzMjjRTFrh9k76Dpdv8x3XAqgRloVqApUBaoCVYGqwAmpwAkHyvlFvV3FpWBksN714VLAUsqKvO2wS8G9v6jXB5IDjvkXzwsQZkUGwyfHoKHT58cHQ8IPeTjmRV4RFmSuFqZ6O55+yEdTy8yOUfQ7eKh8bMUnu7eFS4p5npcHIA/H1HanRD4rKB+NyvXaqkBVoCpQFagKVAWmiwInFCjDXV+kM6PDrbHetJ8f8t7m7gA+H9rgh8yKHCbkEa+I2PZdgG8AsOneFoZ7xYoA5LPCimw+ZH7IJwdALo7jC+I8MD2K00bfqKbCCXy0g5OPfHyF64pF/pbpKBQ9ZlWL8lQorJqGqkBVoCpQFagKVAWOqwJTHpRhHOzdHXTngxp3cxsoMznsbW4KK/Ld4Wu7J6zI+2J/cbEYAI6P+BQHFA4VC/K8ZmkA8qnhf3zagvnNWfMCksMdgR/ywnCzSNw+US3JvWrYiLYjPszO0QmQR/pU1wuK1KUqUBWoClQFqgJVgZmswJQGZSDHAspd4LYA4t/Fp5p9bnpzTG+2PXyQd4DksCD7VLMBayzJoy0JyL6qV6ZyCyA8NXyPzwnfXD66pwcon+wDCmFBXsjKHMe5WkznJRWzjcpQslpBeTqXeM1bVaAqUBWoClQFqgKDKjDlQBmqWQ0+86U5cyKb3mxjWI8v37mjDNjbHX/vORQWZLNZ8CMYYAF/Vn7IQ2EpXsTVIn77ot45MT3aGeFqcZr909iC3E+m9jyx1aLcT616vCpQFagKVAWqAlWB6a7AlANlE7j5/PRd4UpxbcDxLTE7w+bwP747tltiTuRdsX9/QDQr8oirRf8iSkj2Ba8l4Xe8KqB4dViP18U0bz4WYi5hM1rw053uFuTR1KqgPJo69VhVYGIUyPusMzTPqbpUBaoCVYGqwNRS4LiD8ogF+fBsDAHILMjmRN4YHw251gcyCijvb3aHH/LBGKx35LPTfQzJ2eiMfHJ6dvFFXhZQvDJmsFgz5It68fnp+H1KWJZ9LGTOCTuXxcRVqGzAaVctyhOn60SE1C6biQivhjH5CijD9tqZguzQ57PL8fbvzvOPx99ZD49H3OKcLD0mOp+Tle7jVS5TNd6JLsfx5vNYl/+xyuexTvd49Zzs6447KKcPso+FbAq/440xH/INu+OjGPH1OPP97ojVTBb7Y1UZynwWA0CyAmZBNt2br+qtCig+LwB5bUz5dlK4WCwtrhcjfsizA5KrLYeL94iwtJtJoJz57rz5pspDotT7Vtkcq3R16nCs4unUebr+nXrS0e+D4Urm40cjH0AagebMu3M8r+bEc8k2tc+t89q/87rJ2GY+xNX+PRlxd8bR1qD9u/O88fzdzlv793jC6rymndb2787zjsXfnXmZ7Pj75Wmi09cOr/27XzqO5fG25u3fRxNnO2/t30cTZue17bS2f3eeN93/Pm6gzMXCID1f1eNaYcq3O8OKfGtM9VYG7MXfB9PFIhqYeEL3LwuNTaxzTOc2e26ZC3lZDM47KSzJPhxy7vyRTzSbyWKuxqt4Q0cDVDG5aJs3mxtipoDy/uic7dmzp9kdnbO94doj7wvCJWdoaKiZH/7rwOV4LMrCus8XFLdvL2mTjnkxO8vixYtL2tpAdbRpBG90yFV4C+NT7bQQ5/HS4WjzNdnXZ7nRUbnt3Lmz2bVrV9lmHVOm6l2eq84py7nxrLLS3Ep/69KlS5tFixZNan3MtLknduzYUepfAv5ka5rx0Uk9dF+6P2lEr6NZ5FO+Mp/KRofG/olY2mXrPpL2fK44Zj0WS5af/Cg/W/vEvWTJkrI9FvGOJUzpkS73SaZPeWb6xqOPsstnuvsuw52o8hxL/trnypd7eKKep/Ipb54z7Xy24xzv79TdvZb3m7prlY9jVWfHm97JuG5SQTkfPR4Ne+Mm8aU4X9P7za5tZWvQHh/kHQHJZrPwrBqxIOeVo0jioaOxCQvyvPgs8+nxQLhvfJZ5bcxmwYK8JPa3/ZABdV3urUA+TNwIMwGU5RfI3Hnnnc2mTZuazZs3F2BZuXJlc+qpp5YVqByPJa2P0nTjjTc299xzT2noQNMZZ5xR0jaRAOthe9dddzV333130UIdOO2000o8p5xySgGT46HDiRBn+77JBkx9uuGGG5oNGzaU9bbbbivabtu2rTRswCzBk9YaoITjZcuWNTQ//fTTmzPPPLM577zzmjVr1vxRfWzHO9E6ZT7Uv5tuuqncGxpljfNkL/TJTqH78eSTT25WrFhR6qdO49EsoEoHRnndfPPN5T6zz3o0izRbEo6lW7medNJJZZVuZS5fuUxkeebzY8uWLaX8tm7dWjoA4h8eHi51KdOY8U/mVl6lMeuX55v7ofP51tZnkPS5r4C3cDdu3Ni435Rl3muDhDGR56TGyt79vHz58nJv6+gdzeJeVKbyeeutt5Z8yiNNsx6NJ3zpBcfqbft5pFw8k9RjxzNf4sj42vvGE/dUvmbSQJkF2cctdkdBFj/kAOEtUYFv2rOr+e2uHc0dMTdysSAr6AELuxSMgg2LsNksFgYQL46Hz9LY+mDI/RYuLoP2lsTDiB/yTCjQo6lsbX2mOyizsgBkD1NAA2Q8dDyYgfK6deua9evXl4ebhtlDYzKWdgPnASht1113XYEs5eOBOxwNHYBau3ZtafDSQjWW9AnLSgeALC6gcPvtt5e/3VtAefXq1QXMV61aVR7yx6vjMJa8Tea5aYmko1XjZUvHhGRb+qpfGm5gBjiz8aa1xkcdY3UCUTpqNFfO5557bikD5aGxctyqLmhwEyInIt/SpfOYoHHLLbeUjpoOlHSrn8droRN93I/qpftTB4Iu9o9lSdCQr6z72SEAVvksHEuY3c5VrsrIClKVGVhiNVXe9runpN8+26PpAKtT8gaQ5Uv5qX/KU57UH/VJvVK/pKkT2LvlY6L2SYM6BIyljxHg2muvLR0V+/P5xhigbKWXTtI42iLPwvQsk2erZ7t96vREledoaRjtGNBUZ+XJc5v27nFlXzhmtItbx9yDylbb5Xktn3T03MnnSev0cf2UHnUw66YyyXrruaM8pNtx9dUxvyezHo0rY0dx0aSB8p64Qfgh3xGVdsPeXc1tYUneEgP1tsbfW2OQninfzHYRNXqgSq0wZ83xSek54UYRn5wO94p1MZPFmvhgiPmQV8bfLMmLA6C5Wfyh334Uak3zS/NhQtvpDMryCUC/+93vNj//+c+bq666qoCNh5C8u+nPOuus5hGPeETz0Ic+tLnooosKME9G8Xuos+7+7ne/a770pS81v/zlL0vaWEmk2wOKNU2anvrUp5athnesD9wE8uuvv775zne+U+IB5B7A4rcI00P9fve7X/OgBz2o6KEDMdOXvE/ooNHSWNHuiiuuKA1/Wo8dA8bAU90C1QnI9G+Ho96BKqsGR+dHPUwgBgwaVuVxzjnnFCvz+eefXxrcowGrzrIEFuDlV7/6VakXV199dWmEpX+iGuLOOAf9OzWiDevchRde2DzkIQ9pHve4xzXD0Xkcy6Ke//73v29+85vfND/96U8b9wHYkE9lM1GLNOvIKFNrwgUoBk/uXXmR/vvc5z4FpIAHGBnPkm/I5O3rX/96eY6AR/stwEbH4oEPfGDz9Kc/vTw/0tVhPPGN9ZoEeffKF7/4xeYXv/jFEdDrfL498YlPbO573/sWw4V007LXcscdd5TyVG+V54boHLj3ALRw2/darzCO5X73qDwA5fvf//5F/4c//OHFICNfo+WtnS7PFnWWbj/72c/K2wJl69kykfVWne2st55F6kpCs7zorLoP1eHJrEdtTSbj9zEDZc4S0RQUFwufnd4aPV1+yLfEYL3rYzaLO2Ow3vawIu+J/Rwsyv9RofstpUJFxWJBnh8gvDSAeFlsT4vBeuZCXhPTv50WlZKbRfmoSATY+/bqF9vMOp4PExpPV1BmLfLw9ED9+Mc/3nz/+98vjSSLSz5oPCD0/jXCj3nMY5qnPe1pBUzGY7kdSw2iP7gCKj/60Y+aT33qUyWd4EWaLfnA1YA885nPbB796Ec3F1xwQWlMBn3YCicthx64H/vYx5of/OAHR149a8wswmNd14CDkRe+8IWl4bJ/LHGVwKbJP8qIPhon1khWSI0+MNHhUnYabY10QnE763mPtfe1f3fq6m/1UacFWLFEaZyUyQMe8IAGLKurE2UZZKX6yU9+UiAZaAHlbvlop3kyf6c+Og5nn31289jHPrZ56UtfWsBDJ4NWgyzA+Gtf+1rpLLvXlNtk5FMa3cPKE1jo/ICMLFPWXp10953yBsyZ50HypQNw5ZVXlufa5z73uea3v/3tER9l13uGAZ4HP/jBzUte8pLmUY96VOl8gZ/JWLxtkcYf/vCHzUc/+tECtZ552TnP5xtDwDOe8YzyfPMb3HfTIe/Ha665phgWGD8YF3Re0+ViMvLVLw5pV/byIT/alec973nlPh6k3mY+PWOUq3xqw1iTtVvZdvVLx3iPS6O6A/azg5egrC3SeU+XQPVaOXYrr/HGf7yvOyagDHfDw7hA8t3RqNwc1mOAfGs09ptiwN62AOY9YUXeH8cM6EtQ7ilGVDKLf/khzwkIXhgzWSw31VvA8Tnhh7w6AHnVcZquAAAT3ElEQVRJFObiGMg3FOewIuc15Uf9p68C2Yir4NMRlOUP4PBHBIbvf//7CxR4eOuRt/OvMdEY6/W/7GUvay6++OIjr8r6CjmOE8TtYccyCVC+973vlbR1NuDZy2fZlSYAy7IMGgZ9MKUOGiw6/Nd//VdpsOgAFvKhKzwNOh3E87rXva555CMfWR6CgwLJOKSY0pekRQxQsujoaGiwlFNaj3VqUsfUMjOVdSz/7tx2lqG/rQlYaWUGVxonlv5LLrmkdOQmwqID+nXQvGUAWVxIAEdnPjrTPVl/pz4AUn4Bx+tf//oCfBpxDfQgy69//evmgx/8YAEO0KyjPBn5dN9YlWe+OZAXzxsuJfzRdX5ZfP0GzM7PfPfLG0vqN77xjebb3/52ube9OWvnS1g0EjYDwOMf//hiEPCmYjIWFlHaA70vfOELpZPpfsnOufTRRXoYKqSP5VsHopsG8uYtwI9//OPm3//930sHQVkCb3V2KtVbZa7OuneV8WWXXVbeWKYBplv+skx65VN7Jo/9nisZzni3yiXLRv2xehbpoIN/VmVtg7ePOnraDOePlqfxpuV4XDfhoAx8dx3yVb0DzT0BwrcHGN8YFmSzWbAi7whAPhjHFGwp3NiOumgoQnAfAplXIHhOc1IA8qkBxsujh7M25kM+O2a0WB5W5epiMaqSfQ/mzaZyTzdQzvrGOst3TUPyH//xHwV0Uph2/mngRtdbfsELXlAe2Kx4Gq5jcfMDde4VrCFp4WWtlN5Me6ZT/NwvWJKf8IQnNC9+8YvLA2rQdAkP1LG60OG9731v0SHjya3wskH3YH/zm99cLHhpMcj0zIRtaqIRBsUgkiVSebHg6XxZsgzy/LY29g2yZBh5buff9isDdVHD5BU1CyGYUC+Ahro7noUr0n/+53+WeqF+qH8gpp329u/xxDHWazrz72+rPGqc3/SmN5X7U6M9qMsCsHrnO99Z8unNgHuvEziONp+d6c58d+4XT+YnO8BcvpSpzhAQAdKd12V47W12dNzXgBSYtvMhDCtroPCB6LOe9azyZmKQ8NtxjeW3NFhZfrlcfPOb3ywdTXUsj2V40sElBcx7vrF8c1folj6QzWXmW9/6VvPP//zPpXOQ4XSG6+/JXNrp9Vt9BZcssp6nb3jDG0r9VWfds+3zO9Mpn+5F5fr2t7+9WOSzI9CZr86/O8Pq93evdNifx1JbwKyDyuedUUm99aZreHhkwChDy3RYJhyUTfd2a1ilbgr/4xvCF/n2AOTt8ffO+GDInuj57AuIjjuDp0XZ9hOxQHJA8IJYF8+eG4Pz5jUXLFx0eJBe7Ite2tKogPMDoovFuV+A9XhPBfIGczNMV1DWKLIgeeD893//d2lMMt+5JVA+FDQo6QfJ1cGr7jzWU8hxHPAQBGBcQbySBGCsBSyT7XRl0PnqmaX35S9/ebEsjiVdgA+Ia2BYlMWX8dhaMzxb1uu//uu/Lg3XeAahZLpP1K1GSVmA4s9//vPFgmUQEhDRUGvILLSypJblj3H+k2XQ7XINq0YIULDgaKSe/exnl45ddmQyLd2u77WP2wWAZFHm29oGyInIU694B9nfzo/fwMM4gje+8Y2lXrLIApFBFq/+AYfngFf/6Zssj8cyn+08dKbTMdChAzQcoKETBDzc48pYfke7Xng6cFzKgCh3IG+N2vlxvRWscdnhuvLa1762xKNT3C/8zjQP+rf7R4eL/7COufrlbYV7p50+4UmDslwfLkby/opXvKLr8811LMc6qZ5j73jHO8pbuEyT47nmvuOxTc1t1U9uLlxeEpTtGw2U5cHbPvejcn33u999JJ/t/Pl9rJasF7nNuNRJadeR8yzSPsqb55HODVexvOZYpW0ywp0wUOaPbFaL28Ot4uo9O8tX9W6MxmNzAPP+sCKXmSwyR/0KNCoU7J0LgAOOl8yf3ywLQF4ev9eF9fj8BTEgYW7MSRnnzYl2KW79DHlM26xW47t6TFGdECdn5Vexpysoe6iyaniwfuQjHykDI7JwMv/5Nx081DQoLACAFDQDFD3piVy8ymfl0nCzuPANzaUzXfaznmk8WYRe+cpXFuvQIA1phgmUdRjooMPAfUA8uTqv/YB72MMe1vzVX/1VARIN+aAWrozvRN8CRg27MgIiLK85SKpb+YyW39Q1t3l9bke7No+51pp+g6w4z3/+84uFCmDozOQ5ec0gW1byf/3Xfz0CkBrorBOjpS/zMkgcE3FOWrISONyf7lV6DLJwOXrb295W8untClAeLZ+TlT/xAFYdYeWog6oDBDoG6QiA40984hPlvr788suLv3xnuYmjUz86pk/0IPqN9RxvzOjMEABo6U9zLgXd0qf+sqZ7vv35n//5EYtylkOWFWNCAuS73vWuApDOyePS2Rm+fRmO35OxiM/quen5qYNyWbheAEoW5V6dlMyH549Ouef1v/3bv5XnT6Y785fb3N/ejjW/nWGNdn3mzVZbyW3Im54nP/nJ5a1ndtzb6TnRfk8YKO8JSzFXiw17dze/2LmtuSGmfdserhZ7Yl7kLOx+4hwpjBDcYL2hOSPuFWeGH/LaqEynh7vFKWFZXuZYnJOD9fqF2+04SD54GNiPJpxuYZ+o+/LmUA7TFZQ9VFkCPXA+/OEPNxqTXLKeZj201fB6uLHsGDSkQfYw0KhM1CJes1xo4ICy3waEZXrEk2Xjt3RNBiiLyyI+oMwC4lXoWF4Fj4RwYv9Le9Z3Vki+48qIL3mvhj5zm/Uo/86t/e1OTb7yb5dxntttXx7LcECPNx/8lVng+Kx7ba3xFc9YFnlMUG77ekpHr/wIf7RjY4l/0HNBMWtVAof6SYdB8wvU3vrWtxbLZoJylkO3vHTbN2hae53XrWzFYwVPAIPrFx9dIJuuX73Cs7/t2qBTpwPeuQifTuqHOqOjrd5w+wDjE51X+Wy7er3vfe8roJd6d+ogfn68On9AWQeQD2w7Xa6xtkHZmxAW61zynPy7fX37dx4/1ltx6gC4N9XbP/3TPy15ZJHtVW8zD0DZwD3t1nve857itpJ5yHPy7275GO1Yt/OF2V7a13cec57jVtZxbRNYfu5zn1uAmVuGjt+JvEwYKPNJ3hhgfPXuHc3Pd0bvJ0B5P0iOVy59FyL7b3Y8IOIGHorp3pYe9kE+LSD5jLAir4q/VwQkL4rj47UAK3pT0PnYibmcfSJbaCvjAbso4Hu84fbN3wlyQt4AKvxMAWVT7chvPmwUlb9z67cHGf9PAOIBp1HWqHi45bnlgnH8A7a4XRgYxrLLoud16WiWPHEea1CmR+bNdqaCcg6i0aH69Kc/XUCZ+4UOV94vuW0Xv7phTYuvV+o6XBoS+9qNo1fS4mF18ypZowgA/M5Bgd3iaNfRfJXOAqkB9uZD4yS+sSwJyhrknI0ggSbrg/DkDZjKixV0TcYiHvHprHnNy/VitMFevdKUoKzTA+K4znTLZ8aXZTZoPpVXrsrXqixtxWO1dCtXOltpbFCbew/IstB5Dqk7vdLBfUsZKr8vf/nLxSjQqUG7HI1z4KN8SQwIBTc6XO3jndeO52959DaGAUC6GAT8znjaGuS+4eHhAsk65tLm7/aS2naCMtehDCPPyevsH295Zhjj3SozbyKVpw6AMtWW9HOpyTyoo21Q9karM5/5tzTKp86We3S0+tKZn4xP/exWZ/vV2wzP4HLtpY4O45IZMdrpy/NOlO2EgDIANfXblQHHV+/c0Vyza3uzKWa5IOqhsDTPCv/hnktU3lKBZ5vNIj43HQW77vBUb2fMXxiD9kBsTI8U5/FDztkseobX40BakHdGeu4OQPZFwKsD6BdGmI9YdnKB8QLrPa6fCbvdJBblMZ1BuZ/rRfuG9luDBUzd7EbZmwXDQJijBQR6sxwbgMNS+ZnPfKY0IJ2WyiyXrIPSJD166hqSY+F6Ic7UwXYmgjINdFg08sDqQx/6ULFYAdn0Se4sm7x/NE7qB1hVThrE9etHPmCTr7idYwHJoJgF10BT1mqzFeQHExwfeZaO3J/lotY/ykeDqCE29ZRX9eopK5zXvGNZ2qCcFmV5bNcH4WmE5YMFkm+iuLtpMZa4+50rn8A//Vfdg/LovnQ/jGXpBGX3XLd8ik8ZilMc/h4kn8rLCo6VrXqk3vit7iQwS3O38OTVqnMlbh2CV73qVeVVPWs6/R1vL8LRgeO2BUi5lnW+MWuf7zftvCa/JGDULBjcHY7FsiFm45CmXP3dme/Mj616rMMHtJSxjlEelz7XWoEyw4JwWZT7gXLWn3Z5Hov8tsOUbm8HWMlZkz1LgaR7Uwe6na/2dX5nPscKysI1sFedFbdn0SCLOqtuqqO0taq7/rZ6FmW55bYdrrxYczCm8jMYk799Hmuff6L8njBQ5pv82107m6vC7eL6AOXNYV2OYg5Re4AyQeOMeQEhQ7PnNUui0VgUD/uR+ZAXBCyHu0UAs/mQI5Si58gVY5NWv91MHCzI9wQgb4717kjrzXt2N9cG1J8S8V566srmvKFFxbp870fP2OI60c/Oiq9CV1D+Q2nSI8GHT9mrX/3qYuFJX90/nDn4Lw8jDx1uIDmdE2uyV6X5cMzQslzyb+lpg7LBLiyIgN6xQZZ+PsrizLBsZyoo54cMNMRmI+llCUvNNUjgxitWrgFABCQPDw83/UCZBZfVCOgAZdZBsGx1LBuqjCu3WU7+FgfosbJCinssy6CgDJJZx+RL4y+/nfV0LPEOcq58AkTgSleuCDQeT4d1UFAWF02zswOwBslngrK3BCAc6Bi4BpatyjPn286OUKcG8ptly9oLlHWMpUU68lheJ12gBiwbLMfFwZuqzo53nu96QJOz5yTQ5PGJ3PKd/uQnP1nclrzF0/ns1FF6PGfBLFe3y8KHl9W1m6uXa61jBWW6DUeddV9YPUc7dZzIfAtL+J4J6qq4c977QeLJfHrryEfZGxCuF/0syiBZB0Me6ed+HWRJUFZndOrUVXU366/B8Mb52O/cbmUovzrOtNbBe81rXnOvDt4g6Zhq50wMKEeFvTMAdMSivL25ese25q4YxAeUuy2lYoaYtkvDD3l1zIO81hpuFr6otyxeGywJQGbt9enpsS4Zqyu5Wfgi4K0B7r+PT2XfFunaEWm1bg9gPiOA/Jmnxmu8+Ny188ce21hTN3XPz0qvXGYyKGcJlXp6+A8Q6nWWh49XlXrKXqHxVx7rQuecDs48vFwuAIoHoQdSPhwz3CyX/Fu6KiinGsd2mx+mAMrmfgWvneWRKchy0TgZfOWVI/cADQYrICsPCEiwy/olPLCUrhdgR0fGahYDHSlbAKTxGi1+VitQBah80EB9HcsyKChrfOVRxxGQg7fJWNyHaT2nKz3H0kHMNA4CyspHZ4A7i3zqjLrfs9wyrG7bLCMwwaqskwM+AI9y1eECs95ugT1ln9e0w8u4WHrzVTZ/5V56q0fiYVkFyt5UqTfqlPAzDuFaAZSy9DwzH7UO8bFYALv0uI9MCZezXXSmB1AyQLh3GCTorozz7UumLfMyVlBOVxb5FPaxcDXJNLa30q+TJ3/5RqB9vNfvzOdYQVnnzrSR6q5n0FjeLIkzrcppSQbHys1zyL2zId4I9HILU6/SsOQZ4UNVOjzqsI5Z1uleeZ6K+ycMlLcEjN4cMHplWJN/G6B8WwzqOxjW5LwRRgg0BCRiQPCC8EP2gZCV3Cxiurc18xbGV/XmxWC9+HJRnDPeAXYsyPyQfTK7+CFHujYFEN8UbiFX7o4RsvHQ2hf7wlOs9IjOixk0nnXq6RWUQ7csKxW5gvKIJSBvWppYPVhzyiZfjhrPoCk6aygMEANfBhWanq2X5SfLpZ2WCsqpxrHdAhqW5M5Blu1Y1YsEOADjVTaY0dgPDw+Xhj59Sp2bS/5ul2/+1giBG/7QX/nKV8psG9KiMzVaA6Uh0jACZYNPvfIcyzIoKAMOoMFyfemllxbf2Ywn85V/H+02NekM52jiGRSUEzjomT6l/eLN9DrPbyvwyDJlTVaWX/3qV4vFl6sNS11aobvlE6DnvMfPec5zilWy8zx/Z3zCz9kv2tPEtdMmfTptXs1z1TH9o3rbDUy7xTXIPnn2XFOvuEaY9YIxAIBlWoUjLe6hnB8euJsf3mDGbnrntYOCsjCsw3E/Clt5Wv3dLfxB8tbvnNS687yxxJf5HCso6yAbTOf+ZNBhzR5rvGldVob5tsvc3D6IZZakbh0eec14bPP+ofmg90+nXlPh7wkBZRnZHVC8JR4G1wYg/3BHQEC4NuzbvzfcHkYGLcQ4vVji1ZmBegHHp8fqQyGrw6LLD3lpAPKiwxbk8UKyGExR55PZd4XF+MawHt8S6bgz0rQlIH5r7NtzKCD58MNLks4bWhygnBbluJkEMkOXvLFV8ArKf6gE9MiVBYbVToOS08VpaFi5xrKwTGqsWZU8eDSW7VewWRbdwpSWCsrdlJn4fSz+vuAIlJWZBiMbL7FlvUifXTDDt9IrR/VEOYFk5+X55UePf7Lcs5FiyWHVZiH06Vo+pxrNTtDIsBOUNZDjeZU+FlBmlWO1Aso6jCfSMggoy4+G/klPelKBqvE29FlfskyBB9cDnSDpMC+336zKgDrrgPizfqULCOAwJgH89FpcrxOezxcdLS5eGW5uha1usv7p/KdLGSj3TDvaRTygmDuR55z7iMuA/Lfz2b43hof/GGS7pUPY1qMBZfeItz8Zf7d4jve+zOfRgvJ433yKX71VZrTmBgaSPSd09LJeOae9pKYs2Vyk1NsXvehFRzo+ebx9zVT+/f8BAAD//+pcx64AAEAASURBVO3dh4NkR3E/8CddDso5wR5CAuMccPbPMthEYRAGTAabjLEN2P+GjQ3GmCwyJtpkMBgZZ2zjQEYIlANKJ50u7AXpV5/erbu+0czszO7M7t5d993b9+aF7urq6u5vV1dXH3dfhG4C4UB3X7c3orpx/77u/2Z3dtfu2dNt3zvbzR7Y3+2P+Nced1y3+fg13Ylr13YnrV3fnbN+Y/egdRu6M+K3++vieZJyXFwvNuw4cKC7cd/e7tp9e7rvz+7pbto32905O9vtundf1913bxzlfycF6Vy0cUt36alndhdv2hL3/Dt2Q83/7wXf/u6e7d23d+/s9szu7vbtV4qHB/zbEmV5+qbNhX8/t+mE7oJ161clD+XNcdttt3Xf/e53u3/4h3/o3v/+93df/epXD2Yq83/wxvxFyqPzunXruk2bNnU/+qM/2j31qU/tfvEXf7Hbtm1bd+qpp/Z+1vf3/uDjbMjj17/+9e5jH/tY98///M/dt771re7WW28t9CWdfT+u6DnppJO6BzzgAd2v/uqvds95znO6n/qpn+qOP/74ItPDvs1nd955Z/f973+/8OE973lP97//+7+HpY+OOt8/8zM/0730pS8t6Z155pndli1RX5ZQT5OO1X7+j//4j+4Nb3hD94//+I9Fdu65557u3nvvPaytwgflcd5553W//Mu/3D3rWc/qfvInf7Jbv359t2bNmkXzSRns27ev27FjR5GXT3/6092//du/dd/+9rcLLTUd+IiOs88+u/vxH//x7v/9v//XPelJT+oe8pCHjMVi8f/FX/xFkQsysnv37oNyUZe3vJKJX/u1X+se+9jHdhdddNFY6az0y//6r//aveY1r+m+9KUvFf7uif4q616dT3X7EY94RJF7ZfvABz5wSeUp3+LHV23Rl7/85dIO/ed//md3xx13dDt37jxIR77rffXtjDPOKOWqHj784Q8fSsftt9/eXXXVVSV/H/jAB7r/+7//6w5E31jLTObTmZw8/vGP7y655JLuJ37iJ7pzzz13yUWEnzfddFP3P//zP90VV1zRfeITn+i+853vHKw7nmceM7GHPexh3VOe8pTC7x/6oR/qzjrrrHx02DnLateuXaXt1J6rp+pr5ivfyTTcn5mZKTzUbsrrUsrzMIKm9CPzcNddd3U333xzKc83v/nN3Ve+8pX75TPzjZSHPvSh3ROf+MSSxx/7sR/rzjnnnEVTmOUkAm3RDTfc0P3TP/1T9+53v7uUrbqjX0takw7nrVu3ljZJ3XnBC15Q2oy1gfn0VUdSOC4yNxGgLJLoPrrd0Ylsjwp58/693TV7dnW3B3B2b0sw5oING7vT124IoLy22xrgeMtxx3cbg5lr4jg+jkmEGwKc/+c9d3ffDXC3/d793T2AyYF93b57D0T0qJwHw5GeFOeA8lnzQNnTYzekKBDwBpQPyUFWfHdUcODn/PPPL5UeIHnUox7VPfjBDz7YcB368vAr/M2G/V/+5V+69773vaVh1/gAz8n/PB/+9aFf6GlA+RA/pnkFOL72ta8tHZTOqgaO0lUWDh0RcPwrv/IrBXBcfPHFRVaW2iEANjohnaQBlYHVxz/+8XJdA5+U0W0B7B75yEcWOn7pl36pAIFx+NOA8qEBIr7h56SAcl0Oym7v3r1lAARAKleD5x/84AcHAYf3U74Muk444YRSrq985SvLAD2f1fG6znYGEBfv2972tu6//uu/iuzWgMa7GYfB74/8yI8UEPnkJz+5A1JTpry3mIAOgzoKAQOS//7v/y5yLK66javTUYde+MIXFqBsMCbP9fOkw/eZT0qGBpQPl9tJAuXkubOBuz7s3//937u3vOUtnQFnPaD2jnJJudqwIfBeKBEolF72spd1P//zP9+5Byz3K1ffr8YwMaBcZw6j7g5gem2A1ttDo7w7AOum49d2DwgN8mlr14UG+fiJaZDrdF3TIn/xrju6b+/ZXdKdvS903dEo3UebPB9KAeng4ncDysmVQ40X/jSgfIgvvRXa7xNPPLG74IILDmoQaXRTg3joy8Ov1ItbbrmldIga9o985CPdN7/5zYMveS7k+eCDngvpN6Dcw5Qp/TSg+dM//dPS0dP25YCmLiPlMTNzSFNFW+V3r9wslkRppQaS5v9v/uZvioYQcKfNAabNdNA60uwCyj/90z9drk8//fSxkm1A+XDAMS2gnIVy9dVXF22r9gCYvOaaa0r975UvwEL7YiD2R3/0R51BkDI3aO8NvgWIARoaaxpIgGb79u0DB3pkh6zQ/AGqNNaD4u9Nr9/vHODRfL7zne8sMzLXX399d/fddx/WvqkjDvmQ3s/93M8VQCWf2jigql89kkdHKh4aUD5cbqcFlJPvZgne9a53FZklw2TLM8E5y1WZmoFNoOxMy+x+v3LtJ0ur4d5UgLKM7SPEAZb3xHl/HGvj3paoDBtCi1w0yFPK/dUBlK+4+87uO6HNvic0ybNBw32OoOFgUDnjh4JqQPkgVw7yCF/GAsobN3UXb97SFdOLMMUYtQJkiSiLaYes4IsxvUjaMl/OqeExQn7+85/f/cIv/EJ3yimndBs3bszX+55NPdII6hR1IjfeeGN5r5bP+rpfJNJvQLkfZyZ/j0buT/7kT0p56ZRpAXP6OuVBqg960IPup3mcJDWAD5BuKpu5kAHWlVdeedAEw8BtJsA5TTazIGY5CTTGoaMB5cMBx7SBcq9pAg1stlXOZMyRM1mABo0yQAtwaIf6hQSqtLhMq5gOXXvttZ3BVcbvu4wfUNV2AapMO8RPpgYB1X5p5j3x0zwaWNI8vulNbyomQzmw8zxDpg9MaT8NAF7ykpcUOoYpHjIPDSjPAVP8wMsM0wLK4peWtueTn/xkaRfNVjDHyHJNWsisAZ6y/dmf/dkiV8p3sXKVeVuJ89SAcmFo5mi+YtQFmY8mfU6gfGUA5R0BlPeENvu+0LhEKR5KSuMTv9DTgPIhtqSg48uCQBkP49gawPisAMoXhY33wzdt7c4fESjH0KUMpti1G0wZWN0bx/FRMKycN8aAasP8zMOh6n+I1nGv5M0xKaCcjcAP//APd5dddlnR9LDzY0eIL446ADq0ghoVHRdNJZDcq2HxTZZD/X19Le4GlGuOTO9aOSVQ7tUoZxk7A6a0YLTJ7HYBrHw+KerIRQKD6667rtigmnY2jX/yyScXMwuzHOxL/Zb+uDQ0oHw44Jg2UFZ+wLGBM1vir33ta6X+Z3uVZZhnQPYVr3hFkbNhA/P83sA8AY2BOWCez1IuM273zYy96EUvKvGTI2B8XBkST8qpgeZb3/rWYmJmkJmmH71p02ZrP5myWfvBDCTpynfrc+Yh02ka5cPldtpA2cyHwRe+XxH257TKWSbOyi77SIMtQPnFL35xGYBpmwzKxpWruvyX+3qqQHm5MyO9BMrf2R0a5Xv3dnvC9EPBxZ9D5OhA4peCakD5EFsKn+b5MhQoB9+E4wLInhjA+LwAyRcHSP6JDZu6c8O0ZqEKoCRmwxSGec4dxZ59X3d3lNPeuLch4j45zHTOWLOuOzOmZ04MW3YzEIfDzpL8WH+yEi8FKEsw8+asIbB4ymIJGpgnPOEJpbGnnfGsDrkIAvB63/veV7TJgBfNS/I9z/V3/a6l3YByP85M/t6gRV+ZkrJwWHREkwssW0RX23h6PqkAaAAcZKcG7qYyN2/eXA4anMVObTagfDjgmDZQrhfdWbNg0V22Vc4pX+THNZMItp4GZAblynxQ8D1gzFwHmGELnRpr32R7U8ungf/Tnva0Ej+wJY3FBAsTgSdgKhcL03LnbIw4M11nJkOPecxjSv2RR2tA8nm/9JNHDSjPlWPKSvJq2kDZQN3CSQO8z372s2WBfJZJ0qL80mSoBsoWvjegnCW1QucaKO8IoMzrhoKLP4coigJsQPkQO/Kq8Cl+EPC+QHmeb4GQu41rjo8Fmmu709Zv6C4IoDyzYXN3YXi8OC2A7bAGDkC+K8DxXVEut4W2/7ZY9Hnz3n2xADQAQDSk6yON09asDa8o67sHrN8UXlHWdScF8GSys5SQlXipQBkNmT9nGhfaECYYz3zmM4ttaI6YvStdGj8NCxBCw/KFL3yhaAOz00i+59l3w4J0G1AexqHJPTN1PMgLhFSURZaHzl0nb4aB54AjsUNoQHl5gTJA+b3vfa9o5gDlXu8ztYy5Jl9MIy4Jjw1ALNviQUF7YoBu5oqXArbCtMoG57Vml/xmuPDCC7vf+I3fKJpd5mRmShYTTMVLi8bxU5/6VJmq194J2c5JN22TLeLjvcdA0yI+0/M1Xb00iMPRgPLyAuXku/LlqQVQ5o2HJ6l85qzsHDVQNlNBoaRdNJgfVr695b3Sv49qjXIDyuOJFwEXCPD9gHKAvTnhDxvz0JaeGprkbaFBfmBMoZwfgPb0+H1C3KcR7g05RPHkB+EF5ZthFnPt3j3dHQGU7+IVZR/PJIwxmF6E2UUA41MDdD8gTDpmIu4Lw5XgqQGelxKyEo8ClEetwN7LhoA28bd+67dKQ8ADxmmnnVbI1SFZcKVRsfiBRpkHAx1Y0rRQvrJc8j3pNqCc3Jj8OfmNz8rtjW98Y+kQeCTodQ8nde+lRtf0MaDBlrTXLZP3VntoQHl5gTKNcrqrNNPE/jzbhVoOU3Zo5l7+8pcXja8B+jCNMlkDipl8pa2wGZKFvLdwL5gzI+R5MYHJBw02IMVOGlhPxYD45MdhWp6yQX0xAKBwkCf1aVhIHjWgvDJAmeKHLJkx+Lu/+7sy2MsycVa2aXqhLJtGeZg0r8CzplFePNPrhhlQ/vyuu7pvxwKm2XC1F61c2Ayv6TaHhnfz2jXd2eHB5EEbtnQXhEb5zLjH/V8NA4BjB3OKnfHtnjhc37Rvb/fNXfd018X5rgDKNP4H4ih25EjXgIa2+oQ167uzAyBfHD6afzr8M58XwHkpISvxpIFy0jQzM9NdEloeU6I6mfTPaXqcpwsdhtXnbJR1GHWnkXEMOme55HONUAPKyY3Jn5Pf+EzDl6v2TSVzhdRbdt7LwBSHNpmtp85h27ZtBQjQ/DlygVL9TX67Gs4NKC8vUO7nBSfbKueUE2fAA5D8/d///aLxrWeuhsmOeHgpSDlmX0qOMx3fit+hXTEzog179rOfXeSYMqDXlGxQeuoGcJ6LCGmygar0iiDNOj3u39QZtsk0jry1ZJ4HpeF+0r4UoJzeaZKeYemt1LPMp8HNSvlRrvOe9JgF+fznP1/6NcofZZxl65zySnbSRtkiTYv5Um5HKec67ZW8bhrlsuFI86NMCFPQCfD39s92X9h9d8fWe3bPbLchngOu5wQwPi/8YZ8VGuSTQst7QoBnvrBtKFMHk2wHosLcESD4mgDFNwfwZmZxe1xvZ2MZCy0B5/3RsEbCB9OOGuZ/gPLYiCZ8bj8kgPKvnXhKaJbD+L9OYMzrrOCTBMpIyMpuOonnAx3M05/+9LLpg2lFjVs63LeohqalF2gtlJUsl3xPmg0oJzeme+a7+KMf/WjRnLAfVZ4pS/1SNqVIFiyEMrPA9tIZYLbQzkyDjkMHkqFf+eaz5T4vFijL46RD1q1Jxyu+QbbnyqJOV7lNw49y5oknCuZYBtJMsgCQXvlCT2rnAA3u4bQz7DxrOco4+515KTBFzlbZLEntpSDflw7ZNKBjdmHxFWAOzBrg1XzJb+ozutnPW6CMv+lnt7alr98XH/MR9vxAq0V8bKRHCcmjpQLlVGiMkuao7yzEp1Hj8V7mc7UBZYtOLT5lWqNP06+iNWnGAwdtsjaRHJkxMHPArGYUeSqRrZI/DSg3oHxQFFPQCfjVAWq/tGdHd124pFob5gMnh43wuQGQzwlTiHNDu3tKgEC7KYZFcgGwc1VkDhzzZEGLfHdojG8OYHxNuOy7oQDlcBkUphYH4v6BeF7Sm69cB4mYv1gbAHxdaKrtmPjok07rHhxmHisBlHNKHVmmMOvFd0kzfum0NABsCJ/xjGcU90ZGzjokNno6Q1qWfqvOxQNUazx0iPjCrlla/UC19BpQTu5P90yLbHoRkNEp2M2wX5kkFcpGGZpOBoqBYyDSIEqnbGMSZUdWdCCAiXInZ2TA4XvxrEQYFSgbCNiZD3Cz4Y78TSLItwMf8GRavFhpoEyG1HGL65go0LwaUPcOxJIfADF5AZBf/epXF76nrIzCdz6Mc/EVwAw4Z3uf32da4mUz/LznPa+kR4YXshkWh/iAZGmpL+94xzuKnXLWl37psYFmtwooG5CMKkficowLlNM7jTTJ7mJtsGue5TVZxTtlNSm5zXyuFqBcmxIqX3KbJmlZvs4pS9q2NK2xCNUAjByr2945UkIDyg0o95XVGwLQfmV2V3ij2Nede/y68EIR24+HJ4qtcd4UoLmAZJ1afF0qc5xpkXeHlvjO6ABsI37Vnp1lC3Hbihef1qFd3ncAQLaHY/nQ375hpYFyVuIEpIg0vaTBqhuEJF4DqVEAijT4ADNNiY7PVp8AiFE37UrhVzQmGaSl8aCJFEfaFfbu2Fe/n3TpYNoW1smZyZ6VExtSGhMd/4c+9KFiQwrg9JZhnbLy1FkaPClXHQWgYeDEOwbgoYN2tiOacvcO20zfkAHylHKWslinMa3rUYAyenKrbOYlps2XCjgyPwk28IEm00BiUqAj03BeSaCsXAEOII8plrUL6GGG0bt2Aa8d+KHOq+/cw9HQ5bM6X/2upWfRoC2trwiNMltosyMZUs78Fid+mwl59KMfXcpWW2aBnWcLBbbI43jZ0EbaCVC+aJPVj1HSQbNjXKDMrITMcrOX+VooT8OeJ614lnVeXSa3nuXzYXEMe5b5XA1AueY3c4vLL7+8DL5qBZJ3Ms/O5Fa7Z1DCth7fs30blu/V9qwB5QaU+8okk4mrQgtss5jzQrPLEwXPE0wsVAZBReD7mInFrgC/ti7nveKOA3u760MT/b3YHfH20Ezvj2cHyg6J81rkvinO34y2WLzrI73Na+ZMLx6xjKYX0nZkoDlLuzkLbXQEOrkES/mes+8An4c97GGl0ecLFNAydW+qqt93mZaFOVz6aFiAa6CaXZ+FgNlYZlq+aUA5uTG9M77rBPi6NV1tqtFZ2VjUJ2Rd6EdFlq1nOlKdJ9+3OmvAA1AGDGieAWnA0LS3s99p10wmlksDMypQlg8eEiz2Iu/yMYmAZ/KKBwYQ6hNQDnx4VvN0KemtFFCmXdUOaBeujtkK/NY+aFvU9ZyxSrnKPOOH2QiA8gUveEHR5o+af3EloKQBZBJBuyyt3nYs08t2jwb7cY97XNnIJp8NSzdtVwHytF3N9+s8GQgqZ20rzTUNr/zJ5yhlLK46X2Z73vCGN5R85ff5TqbvPlMP7ayNeRza3aUG8arf8gMUklfpqNcGyksJmYeVBspkNjc8stmRsk13g2TaIaA3+e+sHdPeGUw/97nPLTbvyh6/jqTQgHIDyn3llfnEPeHnmPhvDoHntm3On/EhEOnD3IHxpmh0vxka6BvDm4WNXnZGxdoRWmk7IwLTWeH7JlbdPC52HDkuKtLWWMx3ZthDX7xxc/fwzVHZlmkxn8qdFR1ZNCuPfexjSyOok7FCHUjKrYwr0st3GkYgQkOps/HeN77xjTI9lVOQ+U2dDtDBjygwpfOUjsYx08G/DL5rQDm5Md2zDoLdZXomYIZhW2DTy8JCcp1l7KxzoE2hOXaQld4jO9qZmZkie8w1yJIORwcjnpSFjHuSHBgFKEuPnKamfNjGF+PSJk/ySb5Ta51T8jmlPW6c/d4fFyhfEgt1gTnlsZQAnGo/gA3eAvBb+0CbDLT2thHSwhOgS1uEDmsgeNkZJ5BjQJz3C4AS0NG+5EA845KWgxzOhAwCytxeWqCa8uf5oPD1r3+9++u//utipsS+36BSqGXW96lpTFtomkZ1AdgcJWS9ywHAqEBZuuoS+XImx5MI6jb5JLM040xX8EwfsJSQ+VxpoIzPTCwM6D73uc+VAYlBkZmKpLE3n8rZ4AcfAOXcZ8D9YTLUG89q+N2AcgPKC8ph3cgVDXJ8kd4sgOntAYjZIH8zFv6xSd4bNsj74n7uiJjfD0xIxYmHKs+66CQ3hgb79ADGDwx76G3hn/misI2m0V5KyMqs4U7Q8/73v79U/IzXO72VmLbsKU95StE8sDHW+PteA1GPpMWR32owNfqAhHdqzXCmle/rGIAmjQlH/zqjD3/4w8Vekb1fA8o1x1bmmlzQKit7QAPAAW5Mk+tA+oGbmtLeTqH+rYNV5gA0udF5p3kGbe1MgBWdbZpn0DKTrTTTID91fHW6i7keFSinrDvLw6RoyPjUHdpk0+Rs/gEP2kZ8mkQYFSgzKQGQAbqcql+wPasIzDYiB1xkhscJgIPXAMBS+2DmYlC8eJImA4Ayk4hxF0+K2yFd/poN+LIdy2dJtvTIF5mTdxps5QBkJljOd/MsDnk140JjLf5hpiTi3rZtWwHiz3rWs8riZ+k6RglJ87hAOdMgs45JBfHijUEtcxLycumll5ZrddSzxYTM57hAmXyQEyY6+jB0jRqyLJWngZ1Df0c5wGTni1/8YjFHw3vPvN8bsl0zuEu/3Fl/Ri3j3jhX8ncDyg0oLyh/dUVgirE7KtBtYWJxbZhV0CDfzifyvvCJHPdm79tfPFkAyaX69KlEhyWocQwt8pow6zg+ji0Bks8K13MXhJeLizZu6s4JwHxygGRbWi8lZIOzWKBsuk6jYPEN7xVAk85v0NSlhhHwka7vvNcbNBg0NzpjDSs/zDQ8OhqApWmUezm2cr+VC4Cj/GmvTF0DOcxkyIFOJUNdX/Jefa47CtcJNJ3JDEACqACL5IM2UUcHLJGVmQDPTDcAasA6v6/TWOz1qEBZ/JkP57xebLr1dzUfAGRAio1jTs3X7y72ehSgLE/AOn/YaU6lHOqyHpR+yoC6DwQnQDbgAjgs8nUAyWYsBrUPGb9B0xOf+MRiesHPMV6MG9DEy4a8p5cNdsvuJ73ilO+c+QC0XvjCFxb+08IO0sCi36Ce/Lzuda8rGmt5lrc6/pSVHIAwJVnMlu8Z57hAOfOXdIzLw2HvizMVJAYWz3/+88sAw4wLvnk+bsh8jguUtQ9oMPMwE+2FshslSI98KzdyK10yqp0jtw4L0ilxlHm/uiCf2Y5xk2kNTW1aMwodq+2dBpQbUB4qk8CuysPEYk/YGt8dlePOMK3gD5k3C+fte2e7XaFFjubWy3ONbpyHhdJoqFABDtaFh4vNAYZPDJBg45Kzw+TinHUbuwfMe9dg8nG4l+ZhMfd/lg3OuEDZNBqNsqlBnaSOhUYGUFpIE9Sfkrm7wAAwnSBZQ3JJaIs0SHaCo5FpQHkYB5f3GfnRMegk2JubXbDzGK2cMtNxJGD2rpDnQZSO0nECLLTIwDLNMrvmmej4mAA46xDJJcBMnsjVUsI4QDnTGSUf+e4oZ/FlnEAqjbKpW+ZJ+DCJMCpQxlc8x2f891tYqGzznQTK5EN9BpQHyUuJuPqDB1n+AAeTCwNqtCQd1esLXqLZYO/qeU8uuRNgAp7Mk3RzoG+gkkAHHwYBLouUTc1rt9761rcWzXIqCDJeBJJPB62rrd6Vq7Uc49q4i9OxWKC8ILMW8ULKrE/ZXvMLbSBQ29iPG23mc1ygnGsIyAo7bG3IqAH4NegBlMmtfk6/aYZgGEDO+PHBIF+ZGuCyQccPgwgA+kgMDSg3oDxQbgtIjqfMLe4KU4pbQoN8w7493dWhXbslAPJO2pIAyHsDQFiwdxAax/vDgoo01xjHAsEAyFvjODcAwUPDHvmc0CbbGtsGJg7eNeb+DYtx4WfZ4CwGKPPvyVbPVKFO7iMf+Uhx98YbgkU54q5D7++6AfWe3zniph1iA6hB0RGzXXzta1/bgHLN0FVyrVxplnUcFnUCyVb45zR2bbue8jaM9F456fduAhZaZlopmmYHTSd5JD9kh1stneFSTTEWA5T70b3Ye1lX8mygqv4BHGZ1DAomEUYBytJJ0yid/LgdfcoAIGoQBTimps41QDJIBuTfwURhJgZE/M+acVLe6EDXYgIABHRxV2nHSaZEAFEO8jLOBLQWvJnCx39gHfDKssl35cEAUl2gqe63yMu7viPPaAfAcxGfOEddxFenKd3FAOWMY5LnLK+MUznJH74ZYJgZ6n0n3x12ThkaFyjnAEtb4XocgCpNsjlIbpOmQXTLpxkP4LheDKrsPTsSQwPKDSj3lVsmFrNx7AyAzA75tv37wv54T3d9aI8d2wMoH4j7xcQi3lswRAUpDUXAXp4zNtIgh8b4xGg0Twm3c+fbha9sZLKugOOlapB76cnKvVignB21hllnkEc/v7rSqkNv4+B32mDqAJ8fU3QaFUCIjd+f//mfN6BcM3AVXqcGzcDGIk9n2jodmilnz8kKYK3D6ZWJzNKg+/ncudSb+Q4m3yc/AAYgmVo5phk0rp7pHBcTFguUe2V8MWnX32SeaRvZ7qt/k/JSIJ1RgXJN01KuMz/iyDLMc794gUmDo5kAyabQDYYuiRknv5cSACCgWDn/1V/9VWln6pmxpCnpBXiAWoCHza0yAKKzvL0vTkoDJmkGjWZaDCQzrqTXNwngmHTQuDqnSUfGme8PO4vbsVSgPE6aw+jxTFx54Jl2Hd/UU3nMZwvFUz/PfI4LlOs4lnJd05zlmed+8Spf7Q9ToUc+8pFlgGfQsBhToX7xr9S9BpQbUD4oewnvjPlsGHJrgOPrQ4t8TWxh/YNYrLcjtCD3xL3d4eptNp5HSzXXGMZ5WFDZopUo3izWHxcLl+I4MzqCi2K0e26YWJwCNMdxUphgbOT1ovwbFuP4z7LBWQxQZnqho1b5dWDstHQIpi5tEqDjqcFQb0NS8l+R7LfpOAv4mFxkB2TETcPTgHLFrFV6qcxp54BjU5KmnZ352rYa3PS2rYLNOKTGTlZSFvJcy0p93ZvtfD/v0xDRFpli1RGbyjboYqqwbdu2cj/fHec8DlCuaaqvx0lv0Lvic6Tm0WCAZo7JwSTSWm6gLJ9J96ByzufeBTZoz+X/N3/zNw8uJKR5XUqQtgOYtWGEAX+vf3jxo8UhPXRop373d3+30KENBJYFIJl2nCkak4t+G1CUF+OP+OSLKUAdHwWBtm+ckPlYDFCu+Vxfj5N+v3fFhS/qpsGNnejk06yAQc9i0sp8rhRQls+kGy39Qv1ce2R2S/55i2IjTX60VUdyaEC5AeUiv3whx/rVMKWIUXoA4e0BBG4KcHx9LNS7JgDBHXG9L8wsbDl9vwozoAKJ2AK9NdF4rGeHHAv1tkYjYnGerbAvCo8WZ4VW2TbY3M8B6I5phGxwlgqUaQY0zmxU3/Oe9wzcKKDmUTYkzjoEHQPNzK//+q8XjUO6EfINoNKA8jQkYPJxpkwBzcwurAy3QMssgwNYTrs+GmbA2tR7HgBGHjnQquWml+KUo/p+mvCwWdY5OeyYNzMzsyjN8qhAGSAgy9J3jAt06jzU13UdAdIARQNVMy4AFrODfnyo4xjleiWA8jC65MkBUMk3MyyeC3gK4DWA94DFAMp+aZIxi1L/9m//tgDlekfA+n30pHxZo2FnNZrt1AB7lyybQQGQX//615dFfO6lPGd8WWZAk0GdgQ9TEjMitYY631/onHVvXKCcQFa+AP6ka6H0Fnqe9YH5E7CoHrKtZ66iTKW3mJD5XEmgPIzuzHfKrTU36iy5JSvaJXn33pEcGlBuQLkAX2YW28OU4gehMb4mTCxuCvOKO8K8omiRD4RtXUwfH0g75CHAuK4MpaEFDMMn8skBiM8PcMwW+dy1G7pT57XIG43Ao0FWjaYFktGUDc5SgbLOWidAW0ir7NBJ+E27kmnVZ3zIIxtSYMbiHA1qAgA06sAbUC5sPCL+pFwBywCCjtsBPJjSdljARePsTMPsAKppoy2O8S4QTa5ShurMS2NQyI6fXNFcMVXgjxuwpNnRaY8DBkYFyjo/oFW6gN1iTT168yVecQFUFu/RkFvANhPA3/3FAo7edFYCKGc59pZHtg0GG2zPzVxlvnnbMG0NnCrr3m978zXKb3QY0NEC0ygvtKW1dPtp9qVlgGjdBk8wNMp2GiTDWS+8kzQ7K1M2z0wSgG/mQpl/744aMv5xgTJwTGYdab87apqD3kN/1gdlpQ4qPyBZ/pRr8mBQHIPuZz5XEiijQejNQ+YbSLZwzxoCZhbMacgwWTaD4L3ebwfld7Xeb0D5GAXKRN/BH7Itprl2A5JvCA3y1QGSbw2QvDt+84k8lh0ySY+KsT40yRtCU3xiaJFPDoB8RtgfnxcA+dxoqM6yFfZ8oz9NcIyUDNngLBUoq/wqPaBjMRegbGtj/iX7mWBkA5GNRa1Rueyyy4rbqWxI0diAcpbYkXtWjsBCapoBYiCZ7OXhngOQ1gk6AOY82DbTNqdmLjurXq6kXLnveiYAJTMhGjsHjU7KYO+3/X6PCpQBDZ0jsw9aJEBuEkFdAIgNHoGqbWFG4hgX8C9Ey2KB8qi87Fdeea+OI/NrsReQJa+AlilrQItmGQibpEYOHeQuTcje/e53lxky8pogF/+STu8DQdorsoU2pmMCuaadviJ24vvgBz9YPMLU33nHb/mUD7Nn3P0ByvUiN++NE9DkGBcok1M8zcMgb6lB/mqgbHCjHqofgOJSQuZzqUA5y2QhWqTXG/JeHUfmV700GDD7Id9kwywBWVbmk5TbXrqW83cDyscgUE6QzNyCP+SrAhhfxw557+45LTLtWGiX99EgzzdICwplNBYq0nEBgPlE3hJg+Oxw9cYf8oM2be7OCI3ypri/KWyQ+USmRV4ukIz2zMekgDINoM7GDldve9vbim0x7QqtYjYsybO6gTGFaktYHU7vKnLfNaCcXDuyzylvwAdZAXzJBvBbm2Do6FMrx1yD+0EDMIuhaJvZNyd46ZWr5FDKlzPABRwDydx6ASalXsazUcKoQBkI0CmaGaFB0lkKg2hcKO06DzpYZgY0fgA5sDEpjXXSMQ5QTtp8W19nXP3OWf79nuU9cdHGmQkAMix+opEDQi3KBELS1GTUdDPuhc7kkNxZE2FRn3asbr/QX6dpMATcXhILCtPvsXf4ZfYtzbQNVNjn1zIgDofyVI7s6F/ykpeUWQLlS8O7mJD8HRUoJx0GdmZbHNpfcryUkDxyTvAon46lmFwkTZnPxQDlpE1c9XXG3e+c6dXPsjwzDmf5ozQyqCMTzuSWLBuMyLv38ps6viPxugHlYwwo84fMi4XFersDCN8ci/Wu2rO7uz6A8u0BmHeFmcXIGmQSrzLEiT/kDeHWbVOYVGwOzYGd9c4LV2/nx2K9mWgkLdjLsepoXfZkq1M2AJMCyuIDgrhEsmUrd0tADi0hYCN4JxuLbERTo8J+S6NNo+GdpK8B5cmW+2qITdkK/ToNgAUYpplLoHzllVeWBVZpomFABjQnkOmXp5QzgBK4NK1tRzVmC8CzjmuUMCpQBoylATQ96lGPGnunuFFomeY7owJl9RbIwz9nv7M8+9HnmVkAg6Fh5eVbZQZwAMXKycDGwEObIK1pB7Ra1Pf2t7+9AF0aZnLmvqOWV6AoPaywGWdn7B3eLj72sY8dtHXmJs79DCmX8kSLS0FALgHVpYSkcVygvC009oBdzrjMzMwshYy+32b+a/71fXGEm5nPcYGyAUialrg2+BwWpJODeuspDOoz9OZHviyqVZ7aACaETHPcWw65TbqW89yA8jEAlLPZAlDvDA3ytQGIr98/W0wtbgugfFdUCj6RZwct1hskkVFhSkMYIHlzgORTw8TinNAgXxBn2mSL9k6ICro1TDAs1lvJkA3OpICyvADENH/pP5Stn46jVwOIR9lR0L7xm6xh0Ummpizpa0B5JaVk+dMmKzWwAq50isAx8Hx1LAi0A6Dpbdo6A7HsuHqpJWc5xU1DyVsCQADUpMlQ7ze9v0cFygZ57OuBDjbR9ZbK6FjtYVSgbNCBd0ymHDS8g/jvvrI0e5ADH+U1KOCT+AxkAOUXv/jFhacADkC+HHzUXn384x8vQBdoTqCbeUSDQ/tlOj2BLm2sd3xz+eWXl+/ZPddAO/Pte5pbWkfyaBEfmVxKkLZjXKA8E8BYHtDh7Pdy8Hmxec18jguUlZc6yoSJhheAHZZPIBlAJrdmCbQ/0u4XxENGzXjoz37nd36nLN6Tpv5sWDr94jsS7jWgPAJQJi5see/WqYXwbAhB2RDmA852jVutAd3o3atBCfp3zS/W+/6eXd314cXi1qgcO0KDvD+OAwfmvVkMqByH8qjhnNOGMLFIO+RTY9R6xsZNxd3bAwIkn0azHGYWcyYWK8+jbHAmBZQ1BuLMxgXAoFm2mCWnzD1no0UbZfQNHNMk83bB/hKoyUYl6WtA+ZCkHWtXKQPAM7AFZHHdBSizgQdKAGedmOeCbzKkLDmz/9SJAQS8JpC3fJ7v9zuPA5RpP2mUuYE6WoEyoGFhkvxZHEn7W/O85qH7OUOgnJg1OCsr93uD8sgZAG0DLwkAs7YC6PB8lDLrjXec3+QLnUwnPvvZzxazH99nHpMGQMvAPk0nEihr7970pjcVkzGDPJp03+b34hLHTABSwDQPv5cSMo3FAOUEyUczUDYwsaCQqZ8BTq4hGCRPys36CLNa5AFYplU28OsN4iC3wDI5YHNOLqRDRgal0RvPkfS7AeUFgLJuSKW8NTSx346FbnuiEzs9QGA5YqHa5gBCqzGg2456zCtuD2G/ORbnXb1vd3dLaJPvZJ+2f1/k5UCxRb4v3olXZXR4VqKClH+RZ6YW649bG7bH67oHB0A+f8Om8I0cG4iEZnmzihRH8WYR59UQsmGdJFCWr5yu+sY3vtF96lOfKh3Gt771reLlQCMDJBt5M7l44hOfWDRGOkJapLpBSfoaUF4N0rJyNJADgezoqAzEdGDslpn32JAGaOZpwLtAdR1SpnSM7EqBguc+97mlQ/Msn9ff1NeLBco65CMpjKJRxisDDoNb2nNgVt0dFpSHNsE250wSlFe6CMyyrb/PGQB25UAyv7sJ4OqBdP3NJK+Z9zD1uSIW473//e/vvvrVrx6MPunFBwN+U/jaMfLEPl0gi+9617uKP3mDAfmvv8vIzHDQJMub61FnOPL73rM0HA0oz+ETvKjrtkGdATK5NdAzG1I/7+WnstPWKE+L07k/pfAxyMvyzG9SHsines/0SrkCzbTYw9LJOI60cwPKIwBlgPO60MD+284dxXTh1BCQMwIkA4Z2lTspflugRru80rCw4N3iD/ne7o7obO8MQGzBXvFmEXbId8TvvfF7f4DkkW2RM19xtqPeCZFn206fENODZ4Ud8oPL1tNMLeb4kBVrNVUYNDkmDZSzwpt2pF1hhmGXNkBG42NqVSOlY6F502j1sxlL+hpQTo62c9YjnDAlzt8tLyuf+cxniokP+QKoU3ayvjnT+NDuAF5/+Id/WDQ+pvMXWoXegPIhwIGPAIcZIAMOWjODj+RzPwnNsgA+DZyVl5kAJlpAZO/ARhziy0WYwHJuVZ1T2f3SmdS9nBHj3o1mGLBPOmv5Szr5f892jCwx3bBltXO/971D7oAoU/QWBBpsLFXzmHxeClC+JMyGxvUKMym+jxpP5nNc0wteSp70pCcVAEuzbKHdMLnVjtAqA8of+chHyqCcDBtICXXZ1vHQXFuAajD5+Mc/vpjU9OvfRs3van2vAeURgDLzhavDI8Q/3L29uyY0smsCDW8Is4KTAjDaevlhEcfZAZqZYtCiplDVAjVNAQgIWKIH02M839l++qboRL+2+55ij3x32B7vDHC8I7TKs1Ehij/keeC4IF2RH/lwrAlb49PCrOLCAMYXhLu3M+L6JIA57tOsr/NOHKsxZIMzLaBsQZZGxSEN0+MaHo2G6VsalJwC03n0ykbS14Dy6pGe5a7H/XKeNCQg4GGABo8PXCCH1jllJ2XKOQGKDuzVr351ASgGbUDLsNCA8iGgjE+A8iMe8YgCOPByFGClPLiPNI1tFuB973tfASA0zTmwqctAeWknTGXT2P72b//2QVCeU+b1+5O8NtjSdqHzda97XZkRI2toTdnL9NAJcKVnDuYYFALA9UJbVhsAvPzlLy/5kk/5XUpImc96Aei/4Q1vKPUi60G+Ix33HDMzMwftk492oGwGUx5HAcp4RTYpfAzsav/aWU795EGbwtOFRX1mGmw0YtC3kE10xnmknBtQXhAohwCFEF0V2tgv3HVHd2V4iOA2Lepc7DYXO8wFQP6RzVvCw8PG0LICjGsCOLJfPj52pQNdpxtAZPTNBk0749gVtsZ7AhjTIP9fNHg3BDjeGzvt7QsN8r0BluvGYyBlhW4NS9eti7xsDBOLzQGIN69dEwOC2FFv09ayechp8hv5zDxmAzUw3hV8kPmeFlDO+HUwpqscQIzpKZohJhjDplLz+waUV1BIqqRTw8Lu0hRkDR6AUJ29Vd5ZtgsB0CrqsS/JBi0fUAOU2NiBptLCG/Sl7GT9y7OEABRA2dToKBrKBpQPB8rbtm07CJRp50cByviurJSN8uI+0gAHeAZKs7y8J9Tl1bshB9MPz+t35r6azF+0kHXg6J3vfGcBSLxf0GB6Vgc0kHlgGRgCdpkF2Wyp9/2kGdCXhzQBYr7ST1FQpzPKdfKwAeX+phc0yuMAZTzHUzJr9oq8MsUhF8o4B+R12WQZ69d4RDEToo6kqcckyrlObyWvG1AeApRLZYzSoaUtQHk7oLwrgGc4Zo97tmfeFGDZrnOnhKbm5NCwnsdvcBxnxG92urFca17fGw3iFEqa9tiuerce2Bc2yHu7m2b3dNvDTOSOaKi3h5nF7qD1QHSywHTUhPs1fvcjSaMcQMBCPfnbGlrzs2Ma91yu3kKLfGaYnNAipyeL1WBucr889LmRDeu0gLIkMw0dT05fakyAqGEguf62AeU+hbcCt3KGgFaQOY3FLTpl5UpbYnaAZo3GMRexTJNMsiVttq8WjdL4mO42g5FyJ/3svFy7Dyi/8pWvLEA53Td5Z1BoQHkyQFlZGTQzw7JVtN07lZ0dGuvyynLIcqOdY/dJe/3Upz61aAMBUqBjGiFpseiQTNHMOvvtWW/IxYfO2jQACpAye5Yh5cs5/S8Dyul/OZ/n+4s5J90NKB/qd2q+9gJlbdQogcxq+9iqf/SjHy2AOU0w+smDNMlmejUht5deeulRZ4LRgPLYQHnnnBu10N6CvgSFSQLb3ZMCRNIwPzgWtp0TwPLEuMc9Wppk0L0O7qJGEeOoFPEaUwv+kAFku+oBxPwhfz/MQm4MTfKd0XjtuTcWVsTzbFDiYmgCpZJFXtYGOF4b+eEP+aQAeGdEPs4Nd2+A8nnROJ4cA4OySG9obKvvYfJhmkB5KblO+hpQXgoXl/6tcjDQoVUBbNgFW9jCOwBThwTKFq3QjgHLuYgFcJgWoMmcWSjKhhCY0Znloj50C+pxqctx7R7PFwmUafcWmhJtQHkyQFlZ4D/tLK0y04YvfOELZeEccAmQ1CHLTfkoJ36GmWAoPyBkqTa9dVq91+ik7eYH3kyFgRhbVTSS9zqgs5Zz36ZiIN/zjnrg4BLuyU9+ctEoA2/Wa0wiSNfRgPKcnOFF1nv8XSxQzrLJgZN2xkFhQBak0xuka4aNRximF9yfWkRo0Mc042gIDSiPBJS7olH+/Pbb5jTKob1lflGAMikIQWGisO44ADP8BgfIPCsA8wPDlvfc0C6fGYDzpACfcwBzaVCZJhtIvjtMKW6LhoyJxTWh5b7FVF/c2x3mFbPzi/WQVsS6j3B7loGg0yJr2DZEHmiRzwlQfHHsqHdumJQA/LacnrNDnjO1WFouMuXlO2fD2oDyHM+5HtP40SC95z3vKVrT5FGes+F15grspS99adFMsrfmXzafL18pTj8l4IDZDHD8gQ98oPvyl7980MQBIMAbQIEZgyloHQIgADBPwvZyoRwCyjQ9Oi9gpgbKWR55RmvTKPfnqAHpa17zmsJHGtFc3Y9nyT9fbtu2ONOLTBWQ0+ZwufXe97632NBav5AmGPmes3S1wTTIZiqYy9DQ1YsIa9rqb5d6DbwzMcIXtr7OaGRCgid1QENNh+f1O56ZRWNuBjhZxCcf2g11ZBIh02xAefJAGW+zfzATwsberFoOnOqyVpZ1eTPBYPKhvNMEYxLlvdJxNKC8CKA8G0B5f89IO6SlCAyhYbJwcmiXL6BZDnMFm2/wknFyNB5MFsqit0XqlndFurxY/CBouDlMLK4PU4vrAijTKt8b4J2JBW8W0XINl62KXlpk/pBPCnAPFNtFjxb54gD6Zwbtq91f9PCMzj3NhrUB5Tl+ZEPYgPLh0gMwATI0a7b2BXCABSA5gzoOzNCW0Jg94QlPKICUfamFm4C0dyYZUn5puQF4QNkmJOQ5n2Wa9RnIetWrXlVAF60kuvN5P/qaRnmyQFnZ0MT1M5nBf897g/IhRzxMsPnkvYDXHOYO07aFJ++AMvkiW4BoPxp7aa5/ox9IphknfwbYFnuNspi0jmfYdcp8A8rTAcpMaQyc2CizVdYupJtD5VLLhPLOg6mNWRBye0ksJDTgm6bp0DAZmeSzBpSHAOUiEKGTPRBt2VWzu7ovbL+9+06A0r5A2csEppzCPVMAz7IALrSzm9ccHxraDd1DYhGcbZ25l+NOLpvIcbrUWwIQfy1ouTo0ybcFWL6bJjnA8h4L9SLtIsB9Gl/kZSDUhdagY13QuT60yDTgDy0a5Jj6C/MKJiMnztO5HIsSk7ZpnbNhbUB5jsMNKPeXtFzMAihYNKej6J1a9iXNH9BiutFmFACBnfAAGtPnkwTLZBfYotHh7cLiMJoeHdegxXzoQ4MO64//+I+L1wt0LQS0GlCePFBWfvXGHp/73OeKmUNKYGmz80ectc9ApQVzNLK8CQCa/LEDoKX9rt6f5CXNIa8q5H+hnSAHpYs+9vDcwJG/5z//+cWUhOyRy0mEbM8bUJ48UFY+2jztDRMMC/vIg8PCzZTXPHtfmTvMNDKvAZZtRGImkiwY5E1TbtEwzXBUA+V77g1bXQAScKzBo0INriq4ixYEynNeJQpQ5vVid9goB0DdR2s7IMwJRKQRLuTWRMPg3+kBkC+KjTkuiIOWNs0ZeMegYR61+QCUvx4eOLiro1UGlHfG6G9veLoo2uTevNY0ynccFuAVIB9a7i3ReJ0cYJ4G+aHBi7Pj3tZ5mo5kwa6z7Tob1gaU5zgzCaAspqNJRuSHFgWooWm/PLbmZYKRslN3DJn3XNzErddTnvKUYoqRG8rQpACrSw3SzcWFpsTf8Y53FJMQIDlXo3sny8I5bV0BlVe84hVF4z0KUGlA+RAfldu2JZpeiEPZmKUgV2yVzQiwfR9m2pADMZtzXHbZZQVwmspmvuBZlrX4JxksEP3kJz9ZQNEgt28LpYc2dBo08pvMNMmW1e5Pim48dSwFKDNtmZmZKdmZFF0L8Wbc55nPxfhRrr1ejLqYr5e+2s3hBz/4wWLuZdYNiEZbHfCQbDqYotlp0iJOdcggb7XyuM7DoOujFijzTmF7Zq7S7meKoMIGRxTcHFA+M8wM5mwu3a8DUQBAD7mHS6AcU7GHy0n9WVzPNwoRoXQ2hub2hDBpsODvtLBbPie0OzNh/8sk48Si1e1NuSe6+Z+7A6DfEeAfYL5+/5zpxY2hUb4rPF7wxcHDxf3y61t5DgG2o97a0CAzDWE/fV7Qcc7aDd3p8ZvJxSbP43Va5KMpZIPTgPJcqS4GKL/kJS9ZURvl5WhoAWW+RGlPaG4B5VzE0tsx4CQgDIBa3Acss1lmn8dzQS6ey+9GpT/fr+sf7bHdH5mEfPzjHy/eFNIkpPd96eiYtkUHpaN69rOfXTou9xeiYbFAud7CuqZ7Oa4XylM/GpbLRjnTTu8QADKgjM+Ac69btXxfngCO5fQmQI7IvlkL8v/pT3+6LD5MmlLO8pz3e/nvNzMkO8ORP9rFhTZqybhGPaPBsVSgPKq7v1HpGue9Xr71+zbzuVJAOW3XbaZlLYt6w3NLzmT10pxyi68GSQYjl4QJxszMTO+rR9TvBpQ3bOkuPTWA8qbBQJn3CKYOX4oNR+YA+GzZuCNq6v1GVYeX/jzYzFM0ILxjbA3tMlOHmbBftliugOXocC2WWx/aXK/Pf3J4dPGLHhtwvzumRm4OsHzjvj2xoG+2uzXsle+OUd49AaL5Td4/v/BIBIR3XcTPxGIrYB4dO622bafPifNZ7sXzI8XVmzyNG7LBaUB5jnOLAcovfvGLS8fHfpK963IEstt7TDPd3KkMUGB6ATTQnuRCvn5po8/0IlBDc8YMg0ZlZmammGaYRqd5rjWBvukXUk4TnNM6KiseCdiPooc5CECT7zpnSF4BJugAVOwsx1ZwlDAuUBa/ndoAo+UMmc/6PE76yw2UlZEyZc5wRWwXbcCD19wOki/PeoO81d4EeMEwEFP/JrUork4TjWTNdDvTnlzkm6ZHKWd5zm/RKTiTcYNHm1w8/elPL/JnwMYDQr6X3y3ljAbHYoEyuQXkALrlDHjQewxLP/O5UkBZ+mTTImJbspPb3kXEvfTLn/LWJmiDcqdJZkMLmX71xrVafh/9QLmYXvQsbiOsUQIK9KIRgLJuCBj9SmxhzUb5ltDk7gxtdenMaHBDmEYKkR7PF2ujIdlQ7IBj17aYnj03AKsd/i4I8HxqAGmAlSlGv65USg7+k/dE2rtiAd/u8HZxU2iU0XZDAOY7I8+7A0Tvj0NYG0B4cxynxcFGmvs6OwluCk22DUM2RuPG/KNfeiWCo+BPNjgNKM8V5qhAWR0RuKsClE3l01ayRVuOkB2vzteR9Ewr7dT8AVIW8znrjNPEYVC6zCx0BHjD9MKUOc2yM22z+zoJeUjA3JuXlNG0D6QxBohptYFjWh2AWdkB0Pl+0iQ+h/hNewNWNDq0vWypRwnjAmXyQHM4KhAfhYZR3pHPlImUi15+DotnuYEyWpQXDxt2sWP3+e53v7uUbZpgJL3eEzKPBlkGYI973ONK/VO2PK5MI+QiLvyxqI88JH1JV54zfXTmoR4A8bTIZqB4XUn/3fn+JM5ocCwGKAPI5BaIM6BczqBupglUyu2w9DOfKwWU0YYG3nUsSAWU+QXnH7zgn/lyqPNAFsgsz0D6DQMmvCaz03RzWNMw6eujDyiH5veKu+8MW+LdYXrBn/Bw0wsmF4+nUR5geoHhmq07YtR/FQ8TYRvM28TttLcBRGcjfrve8YJBoEYJBCnsIIopxAlhH0y7fF5olx8wb7/MM8aWeJ7bQg+LU4rRZBRPGFcGfdcX2vZ1d+7f2+2e3Vs+3bzBhijheSMasfPXbuwuDHvk0wKQl8ZtWORH0bNscI5GoGyxz7g7Xo0LlNlHsnmjKZpGxzdI1HQq7G0tbLJIRNrZ0Qz6Zin3gVQAldbkQx/6UAE0wClbvdQqD6rn6pPOjwbZbmQWYgHKOmNaQPlwpGYlATN6xZkAmQ0gcOJM4wgk66R4ubDBSIZeOrKDSqDyghe8oHRQeCfNUcKoQFlZAG/kQWdoMLCcAZ/JAXkwCGDmMo5XhZUAyvgDXJAv9r+Xhw08zS0QAkBneea59BPzTDX4Ik+XxDT2ox/96DL4qeVnUrxPOUSfGZVe+jxP+jLN0o/Mg2XgyMwKMPrCF76wLOaaFp3oGBcoA2tMpMgtV2bTGnAkb+pztg91e0ZuyTIe9QvJb/LBt7u1E29+85tLm5Dyke/kb/Es1Y9yLy0506Z94GfbzFa6OfRuLRNJhzPPLY95zGPKgB3ftROjDBB601/p30clUP7SjjCRiI7m7gCLc0B5zv/pQWar1PGP5paNMqB8EdOLeGGQVnVvVEqbe+wIYHw7G+EApFeHlvmW0OSyD94AIGq9AAAdQklEQVQdGub7KnOHg2kNupinYV0s+OOaje/iE6ITtcEHre95AWzPC2DLfjkFb1BUwPLe0CzzrYzGO+N8R9B0S9AnnA0YBxg/OeLizeKEOKeJR3nhGPiTjQmgDPhocPiHtGlDBu/gdc1vjakdskzV5WKa3nfy+6Wckz4d+Gtf+9piI0iLQMOTzzJ+6WtgTRuia5pAOdOkEU33Zxp6DTu6phWyDIAfYIhWlIbWeZStmBdLlzwBM+zwTDcCCp/4xCeKfTCt8kJgGV8cNO54ZgoSkJMH2hRn9MtXLvaTV9Pv4geQlTtbaQeAjhZnnWW9A1pvHsUjfp0RoPKc5zynbIaS6fS+3+/3qEAZ/fJmAAAYye805aGmVT6BZAMCdcDKeh2yBUt4O0oYFyhfEgCVFnKpU/UpX3Y7YwPMxMdMgZmDDDUfsx4oV/lTB573vOeVPI9Trhn3KGfpW9RH7mkQ0QekuZ9HHQ8ak07AEwjVLnFrB7Dls/qbpV4nHYCyNp05Cw04AJfp5TuZlvvplYHcOkYdQGYcizknPc7SI6PaMXXUWoZ029gv7szDSgNl7ZO2hyb5U5/6VFEg6DutnUCjkGfX8uroZ4Kh/1B/j6Rw1AFlGtX/uCdMJGZ3ht3u3mIiUTq36PxKmC9AG4RsPG5t95DwFfzIk0/vHhTa3EEguS5Qm33cE3FxzXZNxG/Dj9sizbtCS7AjfvM+wSyCXXNITv3p4OugSee6fs364sv4XBrmmLq4IOyXLbLbHOCWiUTZEhv9A2KiWUbfzqDvrgDMPwiNt2Db6VMiDgv15kwsBsUwIOKj4HY2OEsByrmzVDYCk2RL0pdAWQcFMNEq5rNMT/rLDZRzSlUDlxqBumFM2iZ1lkdBo6pjAYQe8YhHFOCnk9HJ5TuTSrOOR6dAY1JvPAIs6LAAacegkHThT/INqHPoqIGeGiiLRxsFKOv4peGwYAZwRksC9H5pSk/7IS0gmX00oMJ2WEc8TgCUX//615eBZJp4yKu8ZL7El+mZYlVGZGKa8lDnAR3kEOgAXLlOA5Zpts8///yDnXT9Te91L1DG4375ZFJC7piwTAIoowOfciqbFwyA2aBsmDcBZUtm5NHiTLTkVHZv3ibxG3AHkAHQz372swU4J38yD87KopaLml9A/VIHFsPygo80nTVQpgnP4Hktk+gkp2TWgafkeNoh+eMsXcCY0oXJkl09KSAGmUZlHhIoG1jRKCubjDffyd/yM2mNcvLITpMGI/qnz3/+82WxZ9rY17z2Pnq0DfLLtt4AjymOvJLlIykcVUAZUGQSwQThyj07u++GGzUgdn8AxuIJYr7wjovKQoNrQRuTi4dvPTFshDeMVG66R4vpZkODCzBvD+0yQHpDpHlNpAecM8fYW7TL853pQbx88OJ+aRGq4wIMbwjaNtIuR0fAC8WZoV1+gEV3AZ5Pi2fMMUDlQVA3urQA6l0BzHuCRoHPZgB5bXw0t1Twfskf9TeyMTF1TZujwaFRNqUt5PO5cjjEXRplbr90lCsJlHsLaLmBsg5FJ+Pcy6Ne2ib5W3o6NFP9wLKGlgmIskhaJplexgUUmCK/et6PKM0yu1K/B3UM+W19RmMOLuqz65qP5E+aALH4pe3st/uOfiHj0AEbUNgA5fGPf3zhE5BsQDFO6AeUs27U8WS6ZMLh93KG5Gtq0MkFW0iDBLz1fFjoB5R78ylP27bdf2e+YfGO+swAyCwBwFPvAAkQ9dIhzswvUAW4A8ryzMRnGrw3SCLr5D4X9Q2S+0wf3eQvbeOBQfV2WkF6/YAyepKHzhncd+Bl3Zbl8+U4ZxtgFkYbZjBhwyJtW/KxpiPz0QuUmWNlyHcyf+6nqdwlMRNCw79Y93CZRp7RkTb25IL8kmXtVc1r76MHn+UZDeSCFt1giqb5SApHHVC2cx3gyizia7vvKTvX7QqwbFtnYW2YHWyIguPX+ML1m7sLQ6N8YdgHnxr3xg2A+Z577wt3bTxQ7O2uCftl5g53htCwX74nAPNsmEHcF+/MCdGhSjsorSLsIVy2w7YZyGkBEgBli/3mNMPhYi6eA7+DvFRkKtl19f4elPbRfD8bE0D5u9/9btGY2XGo1/QCD+oGK00vAOVs+OsGaVI8S/oAlde97nUFyNNopka5Nx12p2xf0WWKfTE2yjpCAwYbDNhoIGnIc82HTL/fvXw2ifOg+HPKVEPL9pa95nJohIAZW33TLH/xi18stsupWU4tL34NC5mn+r28N+y7fFZ/l/fynAAKIAaM8YUmmW00GaHRGSfwrJEaZfIHiKQ8DIpnnLwMimPU+71p5YyDxUL8RVtElhruYXECyn/2Z39W5F/nn/Ws5rW0pqUhlQ75YXfO3R8NXXoTMCiq6ch8oAfAspjPjAH/xMBWL0/y/aWcE8jTeL/lLW8pWsRhgAgNZJFmP73jpEnOUugY9i0epY3yFaH5tvg2TS88yyPjqPlUX+fzaZwHpWNQaxChPXvRi15U6i3+9XtfPsioWYi0UQZQM3ieIb8nFxQK+odJAmWAmBxwc5hrOPQjBlZCP1rQhB4DAvQYzE4KuGe+p30+qoAyZjF7oO3lOu1bsYPd93bv6q6L464wlaCG3Xx8bLARIJlrtp/YfEKYN8TUQABPZg2LCXPa5dgQIBq33ZHunZHuTQHMr4upPC7l7ggAvT9A+n0AcyXQw9IiWA5AmHeMraFN3hpA/tTQNNN8P2TD5rIA0NbSvGi0sDAH8N4BKLNRTo0yoJzlkufkv1gB5ac97WmlYzLq17jVzxdOefQ3pJ8aPfQBaRqlpCtjkj6N8szMTKErgfI4dGnYLBSTzjvf+c7S8Eknj0zLuU5fGtMMg+I3zS7PANHLXvaywwDRoG8mQSdzCCYQtChmH7785S93f//3f19kqLZZllbNp0Fp5zuToFkctDV4Q07tDAgoMk0hp4sZSMgfW08dsroCiAwCbpPMyyB+9d6v+eZaHpm00Mz93u/9XpEP07r4MiykiZN8sgUfBpTTH/AkvSTgnYONJ7tP9fCjH/3ogt4EciYJ4Mi1CTVPhuV5nGe0x9oeAycA1GxKbQpWxyV9mkMDFDz6gz/4g6LxVi7KZ1oB/9JGWTn+5V/+5f2A8rTSHjXeQWVjBgh/AOVXvvKVhW9kFljuDfKpDSIr8vnGN76xaHLzPc/rIE3AlI04OUkvKYNoqb9d6FpbYICXpjlmHD7zmc8U5VPOeiU9mZ5zzswY4JkNoeTJ5wuluRqeH3VAOZlqYdt1BbDu7q7dEwtkouIL7H1PCeB5QWhpHxoHH8ZLDbVgsA+m0b420v5+mGLcHBrmXfF7ZxwWFuaOfkW0ewS8Hx02CWEqAjBvCQ0zt25zW03HooAwzdgSz3nJ2BCLAuf+9Yul3VNGDo09O6sEiPWGEsklFdih0TL6TZtA9nYWaOXzfH9SZ/Sh5/LLLy8Nog0JdOIpX3U6NIgaQw2hxYaA0jh0iRf4w4d6Y41s7Oq0+qVfP5/ktTz0C8CgaXYd8ctf/vJlA8pJi46KRofm3RbEBli33nprsWP2DGiu+ZT5qO+Jq/d3xl+f81v38rr3O6AEP0xh0tyZUaBBMvXtvo54McGU7tvf/vYiF+oJOVlpmch8JC/q34sFygYEgBXgYUCamvOM21l6BsdMWS6JKWw85n1iUkGZpkYUIH3ve99bgJ42is10b5lL1yzBTJ8B8qRoyngSEJF3Jmo03rmldb5Tn8kc3gBCbFHZUqd5Q/3eJK/xxwAHv9CnPPFxkImItPvxdJI09cbVK7P5XP00oAOUX/WqVy0IlA1ayKl8AsrkN02zMs76rB2g4NE/mAmd5JoOPNTmmVkzgDIzq92g9dYO1iHzb2bmkY98ZMmvQW0DyjWXVvDaojYa3uKpIrTJswFghXVhsrA5gOWWAJ822bCF9CRD8W8cae8IoD5nv7y3uzEavZtCu3xT2DHfc2/4X47nhK1U2jgPDdFYEzbaZWYjfB+fGLbVpwbAPzVA83mhYX5QmGWcHqPRua2w+wONoWkcIw/xW8M6rMHJiq2R1wmbyk7/wUCJxi3fmQbbrDbn2B2ABZo1Rv2CRUtsFDWENpRguzgqXfig4QX0NLxvetObSged9rD90iuy2u/BhO8NygPTC409bQS3UxaHKJ9+GpgJk1Si0ymRHR4omO58/etfL1p42sD0bZzpykPmo+ZbfZ3vDjv3xlN/jxc6QB0it0tctZEBmuRBmqlhaeUzu/+ZUiV/ruW3X6hp6fd80veSn3W87qVttgFUml64p/72+ya/zwEBoJwDgnzm7Fuylf6oAUCa+kGLrupvx7lOuSJPvEwwdcB3C9T6BVPWyhs9prLJwLB89otjlHvK13HNNdeUNgKfHKbZ+wVKBDQ5tEkzAebRNQ3a6vSTf2biAGXADWAz0OgXVovcWuCmDgPK+hf9DHkbxC/51GbLpxkf+QRWBw2oLBLUTioLMsPUY1Dc/fi00L2kx0Dqwx/+cJFbJmppgpHfZ5q1KUhquPOdI+F81GqUk/kWtwHNBZzGTVszrwvdK3ichZjvTuoM+jLJ4FJuewDmm5hjhP0yE5Bb4/qemLrYE/f3hYa5bDkt4Xh3aJhvdNC8JsDyxtAwnxJAgSs5dtYW+9Ewb43Kxn6ZSUaDzPfnaFZwHSUNjpE5wEij5JmGVCerIQM6rKh/5jOfWTQktJoLTeneP8Xx7tDyok1DyCYWCNMYArECcIgOmi6LegAEYMkK+FHlWR7TpCD5wLYvNWvSqjuU+nq83Czu7TofOg8816mwwTU4uOyyywowHNaxLC7l4V/hg7KgwWK2wqaUOQaPBaYidVw0hGmSwZ4vBx+ple3lZea19768OchiDtoAQNO1Oj0aGR2OsjfrwdsFmSUfSwkJjMgf8wS/5SFlopfOpaQ17rfJK9+5xhemCDSZ5OIZz3hGAZHuLyQb6f4sganZgrr+JwAHSmnmtANnnnlm8VoyLt3D3sdPB7DOYwONKN7T3gJGuUhKnswiGAwBo+p9+q+u+TIsrXGfoUuboA0C0JiGmEkh4+gSyBvlAVlkM830B42UCtOiq85Har4NLgA2MgvMMxtCY9Y736yU7CYfpJ91mSwZ5ChHM0ELDXh8qw7iv4Fs1k3lU8utslAnAO/st/wmO0lHzb+lXuP1FWEfjh59iXaRQgGtQvZX5MMOfeRD22Vm9kgKRz1QBj/nQPIcECUsBSRPGUYmWI61oGG/zAfz/mKvzH75qtAu3xyV+J7wkFFviLJgRU7wG2fu7dYHYN4y7yHjrADMFv0BzmcGsOB/2aCggeXDq2M2ODomIFnnZGGECq5j8lyjYjW5UbkGJ1eXa+Sm0djUFOqEaPGAMBomZ9ol9wVTnECRDpwjd4u2UtNdx7PQtQ5EAwsI6ZjxgHYAXzR02fguFM80n+N1AhYDAwDBYiHaibQVn2b6/eLWAeiADayYJQBYeAjY8KbCXEZ5AdPKDC9zoFN32hl3ylNv3c8O1aAIONbZybNORqdKuzkTWjtmF6bjdZBL0SQnPTkIIA/cltGY52I39PfSmd8t91le5Rk/AEb1VCecXiCSr4PoMji2kE4+dfSAs3ySe507zbHpYnGzUcbz5PGgOBd7H0+1PUCPQRcbeIulyBINHb5LG7hS7+3QZ4EWeSAb0wwGffiiHQJEAWbyTk7wONsjAwleDQzaDOTU2+UIeOeoy9MsmbqofqbGdTXIbd2ekadLwpyHfLlWlgsFeTDDmGslgFODGG0RGdFv6RvIhnYSCNdGqCvak2kEPKYkIB9mHNCmTUST/Bq802gzW7r00kvLwD6B+zTomVacRz1QxriDlWQeNS4XfEwdsWRptXeFFpn98lX7wgwjbJe3B1C+OxpmZxrme8NUBK0H6R1W6iGEx4Vd8poAzGvDQ8bJYY7BM8a50UABzWdE5TgpQDQb5maScX9Gavw1OtlZavwBG7zXKelwdUpAmWuVezmCBk9nbaRuoQSgAnhpeAQdE3rQpXNyvZD2bBjdOjx510Fr7ADl1GQN+265ngGKOl5aKg0/gAgYur9SIeunjoDMKB+gRudswOU3jxE0zHiZgBnAVraO1NBmHsSlHHVqgJpODwhicqKzkWdAyRS3QQOASMtOVmt6Mr7FnnOmQQdsAJWAQz5WG1DGn956qn6MEgxggFBmNMCfgY5OX/6BPLwlc+pZPWOjnKYZcpEUDSlZQiN5Sa8v1iIwP5oJALQcA/fMq/boihhQAPBkA6jHC3JJJgEhNqjbtm3LT5b1DBArP7SZJXD2m9xm/VhWggYkpt1Sn7Vji2nPsr1RL8ktcwf3tCfiTqDMFGs5NLfSxXuySvFkwKlf1fYJ2m40GQxkfzWJAf0A9k7t9jEBlKfGvTEiZgLCHINv4x0H+GA+0N0dWmb+l7+2e2fZ4W//fTHFCSyH8I1UuaOhiv+hNZ7b3W/LmtCyxGHB4rkBln9489ZynoYt9hhZX5Wv6nw0ooCiRj+1SYhVkTVmpocAZB0y8LIcQbk7AGNaEoALnTnVCUBpfAACWi+0LaXzFq+GFh90yho4vEn5y/Ny5L1OI/MEPAIuykF+5VtZTEtDUtMwynV2FMorTS/wU+eBj8lbz8iYs3c9x3vgUyBzypbcKV8AxOHafZ0gsJTA2dn9SfMhB2poBfiBjcwLOldKHqRdhxxU4JcZFfJh0DBqPVVuqS01TZ/5lH88xW9xkjflgNcpkzUdk75W15MeZYD3aCIf6jpa0gRkOejJ/JFZXhdoC53JsUAO0cP0a5oboCQdg854pD6l3GrPlK9yFlZabrOssj0jVwZj47Zn2d6Q15QT+Za/lBH1Qbzqxqj1YRBfF7ovXbwnH/pRdJENNAnabnSgp+6vkh8Lxb9anjegvIwlERBoLrU4lR30AhTfFNrkr/L3HBpm4Jl3jN1x7I1rQli+iPNCgeAVDXPYJx8fGmZbYT9sU2hcwpXcadHInhgAmjlG845xiJOFv/MVXWX3W8BLDZqj8NVoZJlD0uascUza0JSapEk2NplO8iHTW+Zs3y85eZTfLAsvTDLf90twETdqXrnGw+QjoKPz1pE460SA5xz8KFv50ckBeoAHcAykOYAjzxw1D6bNB/nII+Wvzuci2DTRT/DMUdeHcRPI/DgrL/kUlhrvuHT0vp/0pBzVNKUMoHE5A5ocNPE5qJC+AQQQ5Jy0LSddvWklnVmefq+mkLKFV0vhl3ylfDgLddyuV0pG1KOkSR6n0V8td5k2oLzcHJ9Pj920Zhk45h3jlgDHN4T98k3Rsd4YNsx37d9bTDGKhjlsnKOVWpDSUjGigvCQYbHfSbHAz4K/U8Is44LwG33x+rBziw7X84CAC8Z3LLyQDWtvg5oNzXI3NjXPk6ak0bNp0ZVpZJo1HSt9Pa08TyNfyUdxu9Zh0Cw7aFnyuhd8yqMOBSCmBaKJSc15nX/XyxVSFuo8LVfao6ZT82bUb3rfy/xlfj2fRLy96Yzzux9NQIewnDJQ04wm8kyOayBETpcC+uo0JnHdj3eTiHdScWT5pYwtJt7Mo29dZ8g4M428v1znpCtpWml6JpXvBpQnxclFxmMsyCTjrgDMtMsW+wHKP4hr9ss7A0TTLu+PBuo+ZhnSqSpGv2SLcM6PWAHmE8OV3AMDKP/45lgtH5rmZopxONeyUh9+d+U6pF46eumbViPYm04vHSv1e1r5nVZ+ko+9dOf9hdId9F3v/YXimdTzUemeVHrjxjMpvvTmc1LxjpuffH+10ZN0rfZzL99WK71Lla9B+VxqvEvlVy9dK03PUvPj+waUJ8HFJcQB+Dr2BQjeE2B4l3NMXdwUGubvhDs5WuY7AyzvjuPedCcHKI8AlkP1UNzE2Qr7zFjo90ObYhHBpi3dAwMs2wa7hcaBxoHGgcaBxoHGgcaBxoHBHGhAeTBvlv1JbcN8WwDj78RCP7bLd8QmJXeGhvmuOADmfaFhHtX/stGcw7bdD9y4pbs4Fvj9SPhdPnsCOxIuO4Nago0DjQONA40DjQONA40Dy8iBBpSXkdnjJGUnQdtws2G2yx+TjCtDw8w8Y0fYL8/GvfviHZrl3qmOOp0ClMON3OZwFXdqaJUvDrD8C1tPLCYY9XvtunGgcaBxoHGgcaBxoHGgceBwDjSgfDg/VtUvADgcdQUovq/7QWzDfeXs7tAw7+luL/bLselB2DDvDZdyc/bL/QFzAuVNx8eivgDKF4U2+Ze2ntQ9cP2GVZXXRkzjQONA40DjQONA40DjwGrjQAPKq61EeuiZ844xB5Z3BCi+M8DxzaFdZpJxfWiWb48VyLNhz2w7bBrmXu1yml5sDc8XZ8XOfQ8JG+WfDvOL8+K3Zy00DjQONA40DjQONA40DjQO9OdAA8r9+bKq7ib4BWx3BRi+NYCxxX7X758t3jHuCNC8I37vCq3z3lgIWHvGOI4fwzhOW7uhuzBA8oPD9OIh4QHj9PCr3IDyqirmRkzjQONA40DjQONA48Aq40ADyqusQBYihyu52Th2h3cMoPm2AMfMMa6bX/iX/pdpooU14fFiXfhmPS/MLn423MNdGL6UT7N737xPzoXSa88bBxoHGgcaBxoHGgcaB45VDjSgfASXPChsod8NYX5xfZhjXDu7q7s9zDH2xhbZALWwbs3x3cbwcHF+aJF/csOWYnKxITTTNh1poXGgcaBxoHGgcaBxoHGgcWAwBxpQHsybI+KJrbBpl3eEycVd4TrOsSO0zLTOdt/bGJrjrQGUaZHPiPPWssV1uIw7InLXiGwcaBxoHGgcaBxoHGgcWDkONKC8cryfWMp0xzTIe+PYGRpmLuVcA8rrAxhvDa3y5jivb5rkifG8RdQ40DjQONA40DjQOHD0c6AB5aOkjBMsA8xcytkam9YYWGZmYR8+56ZJPkoKvGWjcaBxoHGgcaBxoHFg6hxoQHnqLF6+BGrvGHWqc9bKc8C5vt+uGwcaBxoHGgcaBxoHGgcaBwZzoAHlwbxpTxoHGgcaBxoHGgcaBxoHGgeOYQ40oHwMF37LeuNA40DjQONA40DjQONA48BgDjSgPJg37UnjQONA40DjQONA40DjQOPAMcyBBpSP4cJvWW8caBxoHGgcaBxoHGgcaBwYzIEGlAfzpj1pHGgcaBxoHGgcaBxoHGgcOIY50IDyMVz4LeuNA40DjQONA40DjQONA40DgznQgPJg3rQnjQONA40DjQONA40DjQONA8cwBxpQPoYLv2W9caBxoHGgcaBxoHGgcaBxYDAHGlAezJv2pHGgcaBxoHGgcaBxoHGgceAY5kADysdw4besNw40DjQONA40DjQONA40DgzmQAPKg3nTnjQONA40DjQONA40DjQONA4cwxxoQPkYLvyW9caBxoHGgcaBxoHGgcaBxoHBHGhAeTBv2pPGgcaBxoHGgcaBxoHGgcaBY5gDDSgfw4Xfst440DjQONA40DjQONA40DgwmAMNKA/mTXvSONA40DjQONA40DjQONA4cAxzoAHlY7jwW9YbBxoHGgcaBxoHGgcaBxoHBnOgAeXBvGlPGgcaBxoHGgcaBxoHGgcaB45hDjSgfAwXfst640DjQONA40DjQONA40DjwGAONKA8mDftSeNA40DjQONA40DjQONA48AxzIEGlI/hwm9ZbxxoHGgcaBxoHGgcaBxoHBjMgQaUB/OmPWkcaBxoHGgcaBxoHGgcaBw4hjnQgPIxXPgt640DjQONA40DjQONA40DjQODOdCA8mDetCeNA40DjQONA40DjQONA40DxzAHGlA+hgu/Zb1xoHGgcaBxoHGgcaBxoHFgMAcaUB7Mm/akcaBxoHGgcaBxoHGgcaBx4BjmQAPKx3Dht6w3DjQONA40DjQONA40DjQODOZAA8qDedOeNA40DjQONA40DjQONA40DhzDHGhA+Rgu/Jb1xoHGgcaBxoHGgcaBxoHGgcEcaEB5MG/ak8aBxoHGgcaBxoHGgcaBxoFjmAMNKB/Dhd+y3jjQONA40DjQONA40DjQODCYA/8fw18+0cBnb0EAAAAASUVORK5CYII=;" vertex="1" parent="14">
                    <mxGeometry x="16.389999999999986" y="40" width="147.22" height="40" as="geometry"/>
                </mxCell>
                <mxCell id="17" value="Seldon Scheduler" style="rounded=0;whiteSpace=wrap;html=1;" vertex="1" parent="14">
                    <mxGeometry x="30" y="190" width="120" height="60" as="geometry"/>
                </mxCell>
                <mxCell id="18" value="Seldon mesh" style="whiteSpace=wrap;html=1;" vertex="1" parent="14">
                    <mxGeometry x="30" y="105" width="120" height="60" as="geometry"/>
                </mxCell>
                <mxCell id="16" value="Deployment microservice" style="shape=hexagon;perimeter=hexagonPerimeter2;whiteSpace=wrap;html=1;fixedSize=1;" vertex="1" parent="1">
                    <mxGeometry x="600" y="515" width="120" height="80" as="geometry"/>
                </mxCell>
                <mxCell id="2" value="" style="shape=image;verticalLabelPosition=bottom;labelBackgroundColor=#FFFFFF;verticalAlign=top;aspect=fixed;imageAspect=0;image=data:image/webp,UklGRnQuAABXRUJQVlA4TGcuAAAv40ZwEH+goG0bNuWS2EMwBW3bsCmXwx6AkUnbBgMzNgETMzWRJCnnX9rl+EwZO/gAVPVjgeHQEVHvNpK8/19MCBAEx3HQNpIkxfxhd/fcgyAiJqC/tFncg2N/M7zc15evPkRvFtGqFHqkip5xKCi+VaUnRmmpPMxRKJpKD0rV4mVlyetCqyds2145jbbtRhVWrTZIXlUlCWZam40xMy0ENsxUOM8kbMA9UwGdZiU50J6VcNM5FJI7x6G7SgIPH2trwhDLAQ1bctLQoYOGj/O2uWGtK99LqklE/2VBthW30UEeogjJliaI5bEJ8I+cSJIESYJw/IVDeEim0rO+3lqJ6D8sSJKiSs81ej0nAi9kaBgH/XE7TOqF8/9Trm+mOqcPV6Pb1cS3AjmcP/3c+b7FT4/WolQVPxnI4PaTSc7lQtpfeYPvHalFVCq5mM0D1YhOPVSB2K0jUfwsH98EX61DEyfP8/A04Dzic2ha90bJD7B3j/13nsTxSq5j6/033+jeplbeePfLivk8EJGqUhYP0n7mRpjNbdbgRS5msu8x3O5iB3j5jwfIz3rbvaGIY3/qZc9vS+e9f3Sz1Dtf2n4Z90e0JGGGbYuI1WImk7fbyoCJOvokqX9o3wu+zmUUR+/4r8B9slR1Iq95Yd/rdSFq9d+h3dC+AC7JKDUJ1LIu8DBFcJbxOUpaNcSn/zVaj6IC5nSy3P8Xcxm3/wT74QurORqR00znf4Y4/cKtO28APOwlOc3jAemLY5m8878CwX2ZpxDkLz78Rxej3h40mZkqPXHGOjkDGYzf+XECCetwvyiVh6mOvNJlMPtA/xUO6dk/k7t4v9fFqRWTfzkSMagg1aoyOMxQ57HIQpXqvlQW4aNPAijD+DvVAch/Ws6Kqbnaxat/hWaB9I9x+kjvpmcaepspEJHtExa0PEhwudDOewn8l1oFMJevJBHLXQr1dsVcXR0NqNs0IAz6MNsUxYd/BkgNzTjoKoR56rXUpVEbQ8Zuj9SRQNklmiipoA3VaMSfPAyDTqCQ517wt7V1uV8f03ogFb8doEo0wEG7CgtB56qXl5YaDwErTZ1EL4nwX7xIBzo+K85N4vY7XlQbK8aucxyIlUvCEGKmTvfZcZAGzss56Y1Sj0ZzsNBMxniY5qWolKgpIpZ4joEqVBSaj7jWpVafeW3vaJGVONRKVEQlECMUb6CAR73mtg03u/TqT1ZS5VkPWJlzamnAGSd1oMk5CL4EeYjNHgMrgzbS4tFfdJwkgV6iRbrt8ZPPf3112ucfqUE2UzMMvgRhDjKUegTKg4feSuhy1nESl5xikpDo0sfn0qLbTteyN2NAJ3S5mJ73sZybDNGbsdbk8efOE6kfOSjTNB+64oSSfXonH5kASrxJ3L9Ghi1s789Op4IAu2UuwxEv5R7Wulxqj4XsTYv3JPQKgJkl+thSgUmRTt0DCLaRiGVOZF/+xzK9xAiw99EgI6BayEe/89WvRlI9WP4A4hfF2cYD+Cw8j2fdLWgZyZLjdPLToa53+dTnBjKcliTfG+D8ok38kU9QZBQuk1JLd0zTV3flnSN278RLB6zfyYLxkJXUFFewppOQIvf4BUpa2cnxRvISy5x0P7KPWkqIxle4B9GGRwH599Dub0LJeNqHzTzJS7loH75dcjNkyzQyo+oiUXkYJUL2pjCbyWzO0ZnZ2AbgMnYIstepUqAcSF8lZDjNTc9VvNbtcmtmMu8x2jXU6mh2XAzFrxJC0lzkIJu88xbcmplGEo/hJlGrNbJkzcfS3WcyZlJvDtnkHN1z2nBa4MljuBFEWpVWlk6lFaCgTDYB5JztntNGUoul8wC4CBeohRzPyLlDpjWhoEwOALjNWnynjaYXH2I5k6G7AP9ARXSwppq2gYx6mrOdp1gWwUd2Zj0/4TFmUjeAtySk98SAimqaFzpHsdmVoQZNYzIr9bC3cMOpG6BbFvBMpW4gYiZV3JGjuCyET02jFWUt3mISumGStkj0WgrzQDAm53MUWz0hrFQMLe2hUfEVnSowu8A+2vIX7k/7kESMprnFEK61Zs8UtTKSXQGOL4BYO9jlGUlfp1yNgaBM5iiWxLBhAnTF+cQXPcUk1mGMysTekDIJnTSTDsJp5rbWsFFGybOegMTeuXbG3qTucxEGwuR0juKKID6zL7VL5uENZjZ4A5BlbFJ7QwZgYEzmJzo9QaxaW4pYI/ARB9McRpjVBYJwLWdhYEyCuE4+F++ld6mDyrf7jYeYBFm8sfTCZWg3TMNA/HcG+YkrovjU3KIy42f9QzuFSyDnL6S+RgkMTIAVxF2GvbJKX6PN2RABRzmZP7IAV4PYsmFsaeioJNEUTKWZhHGWYVmrBrex4XiFDqKmZUgnVVpaPbXGD2qDAQFjaW55fuKKMH5qcTtSkjIVZCWf62cvxCtaJShgCO5elkEgRBgwzqJ298Rq0qKL+AeSiBb1MwYJz6VF4tCfZwkEwiSMs6nd3/niV19/wq/ee9P8jAuuUwfXJSKJRDjDCVMwi4tUoFsDnk5qUrTcxKsUDUYZSktq/SYBd1lXmVYNXFF+RQ5RWTbDUdEAAF0i1hoOuMn8xDI+jWaWY/nhEkHJRkYvjbIcBtTTSgNgGyv0scm7QIBNLgC52Fo/DrPlTFfRWYVCq5f4ohhm1dNOc0kBEAotccBN5ibWOKoOuWZYqdBpC9SekcK0elxaaDGbBAksV9ElPGn3zSA38TK+rh6G5Y+GN6f0ROgrxqkA2lQg0NwQuYll5FbnOJYNy5sM3Aj8QE0VUyk0oVxrykaIKDgau8FA9XgV3nbXXATYJJRjTVkZ4mqKw6CNLVGHH/5ZCUY8CLAYiWJu4hW20lJuGigJpGjCPFgIH/IfyH+ATeYmLvOFA5cNqjUyY/g8NEU1u+Tdf4BN5iaW+DylmyYn6YQ0KgGcopo7dZn/doOazE1soY7I6Srb2Q6+b8IPX2ZOQW2ZHDCmYwQneQeaHMhNrCH34dP22HnZW3X4O/LmErIkdZnUtC5Qk7mJV1hLA7tMYtBCITx84cwJaxEzDK1Cr6U4mSCAJitgLjXnIAGbJAYNF8LHJYtLe4Ckl2bMs1DF5VmAlr+Zm1jitazLmNQupqqnq+AdjCrRiLioBoiFLJJ5OSIqJtNM5iY6zEHAG4iwp7EXf6YGbs25rcBiURLGvOczyLznQJO5iU1mwUKnZ1lqFxFPSHXGbEZTYGxgxCSyfBWgydzEDTg/oyoLCbmjBw7xEhPGlSE2jQPmZlZAAE3mJl7hdhzXyHY0O0V1EhpNFXJ9RshF76NpgkMQwIpLchOX2VOrLOFKhPbBIeYsgvYz7gKVNFvBAXGLGzBgJvMTy+yFXV6h2tHuFNVx4I/6DvA7wgtUbyI5mJZqPD+xxB7+W6NK0Wl4iupFk9kb4RzBBUcsSZyHATJZyk10+POytuE7O5vVY5DU0CZTB9ZbR2MQ5GYWYMBMIrjSujYEeIczHxbL8BTVJYNpp/nFwS09oa1ssoijlWoyN7EmoEyiV6kOZXiK6gsGM55CA+jglmi3RAEMkMn8xA0B9nQNzG5nniJr53LDTkBhunnop6FgMtXNhAEymZ/4G5iQ0mZQCAKtF8JXDG5HSnpKMtCOCQWjaaFNJMNpDnZ+4ooEmcISvC4tw9WDWRvMZRxa6sRUapCY9GaxgCTt84X5icsSMvlcRoreffCOA+ZSB5p07TRmSW8WRRytVD9/fmJZglf0FYTo3Rc/znujzXv1iHDn4VS/PFE5SdFsjmJJQgTnmuUQNQu7aS0jaSzAH9a/QHizaDggkPaT5j8GaUWJfIld1qxPctpYZtJFmPD2RTQIb3PzUCCSjhyFiIQqHT/khcU18dpY6lH6lqwNWaFCom6YKOLopJrMT3TA7qIM99lZr4YNg6796E3MTaBBpscVHFOp55Gf2AKH/WTE+gxZz5hpUPUSSAH1uJuLVA3/mHY4xtJiXfMfn1JLNiyGuNZ8c6BrzUBcQQUtk4DmKNEAkpG0KKAcxSaUP1BL7z3FlMnch63Kq0bTfyDHolQCMIDGX+Yo1qB8Q0YKtT3m/2PXCvKVvo7t3IOXSPzDDQelCGjgbP5jNzGvgMmtv8YWao0Tr89k1ehA0cqWRTCFzPDodO7mBhhv7Nawkpk6RW2V9SjDDP5uEQdgLmWexbznQQ5SjwPLq20j7UerJHXnHYuyFrTz3EQWBthKFSvmQTQ40JvavTFrId8/UiWqAr1dzaydD1Y+L8YCj6Q5ulmh0WBHg9MniVT6k+fvAtE4SaUCsNtE9KGfC4EArtEErITPIjS/Ha6fsZ6uoSu83JtemGGrlprRLwcy6C/2RxyqQF4bMiZaZJi+r3oqqZB/ZLJ+Gjn03J189zBBhZdjqY13P78/NaiaBxnyFkcjFsqEAAuTZiU6w0iRsNs4kidPnj9/6pF7SCq8nITfC3cw/mlXNfTEC8CB4iUqs9EQ0Rkxi4QfOnA7F78el9ATLxwaMxfYKCP7RoWxTucquIEDOxiM8LDATVTmJeFiDiVt4dDxF252J4MqDyV2CrxElVSk9BvWfazdHHIQGlbdwaDN80ocO5eYKfFQQgoUq5xRPlPAAHbofZCD1FO0eJjjZ5aZIgX0PS53jCp2FqhqIJouF3JXnqCsnQIh+E5PoTh9kmx7o7Cj5kO+kSOYdnb8Q935c9hfMYoRp2DraHblo5ywn+YIigI6+ms+1WWS/GviRyz/Jqd/uA7aG8q+vMIWuN01+WG3JpsgEVpgwj4OgrSLRvgS0I2PJ2hFqWX8JyzkI1Z9RZ2euMzpOsNaOcOb0KYOAf0Ud6RvRfgovZ0awDTe41vOR+VkrviK++l5ERBHyGFXQ2KxCMYeHSThScKqmO6jfqXerSj0rEI0E5c36IGTUHuKmVRSSfP3c/uHR1iDrzNU3VxNuGBe6A8M6eBYpME5l5fqO/BVnoUR6heT2Brn9kzRZxMivWjxuZC63XFszzDTrpEFV2eqd3Tzb16q08cP0FnUWcO4j5HzDFXSLnir+wgv2qFvVTg6R5yrK5xbtdRmASLjhXzalc1EpXPeygk7c3iCSiF6oP70BK0C3C0epf3UvyG7aE89x+SAtY8AmqRZJq6iPf41uvq/2y98XqqbVUj5Kv9B3feOZPz0HGVf3RN20X0O4W/wR5PYlsFk4PThe24LCJIPK8ELlGO/kJuavDcog0fRrXXBBvtYbMLb19zHYgve2t8+Fq4H39DHYhn+sIB9LC7DW0Lax+LvXXgrEftX3OjCV3eQyFHPWdC/oo15rKudI/LU8/L0r7iMeey5vhUvY3ojqm/FjS5G61ex2cVo/SpcD6X1cQg+Tni/ipdx3Q3Sp2INOaQ0/SnayE4K2QHiYD7D+nynh5t58PEXfSluYLtHaU8/ijZ+iBYYeRyaQOTB+1C8jO/pspCN16EJRL7fjg5n837sZzs3XM4z4j/vO3GjS6D+3Ddh9mHC8e/HwQMZxL9fn4kbROPkSM/rGCQaJ0dyXsgggTiwv8Qa1biT7dxwOcca/7mvxP9RDUbGnn4SW12qZYiWJzIziTiwQsozmZkgy1D/CLdMtnzcR+I1wrGp3Gnhhs0u93MyXhJ0/0zFU4KVQSLeEqwO0fBSgCjLEAmPCbpv94twy5TLx/0i1miHjHmnhHw5Duh/7hOx1aMdpWkCXskipMsQEa+ELUSXZQjLWxlFmGWoL4Rb75Kqj3dMyJVjzP/5zgd5dIJ1/GKng1w6iUhW/twXwm32aJf3+kK4NeIFx6taeZ8Id6sPh7vWh6NzVQqPRV7/Dbe1JITXog7sv+HWtzN0bh9Tnm2ourktoXX6kYla+gScez4Uywsnhannf5uT8i9sO/gOcMLeTZwUaYnaRyJ5Kn7ouZCf04cnCrqHntMtDswTnP/OyZMTLOrJH8rZ/5EaqgsnxO3eqkUClYQ+MZi5N1Kijgeq50ZUPqB1+shExKlOVETw3cNoO/RUIOtn1hfB9LzjnV5ualQSqH4///PCI/dE7KohYPnevTTuVkUQw6JtUXw25HTvFS0V1e/nUcBTVEiEmg653fYjZHbonBiOibdGv2G7/ahSZ3RnGfI4rSNyvE/P8PIo5dkf+o2QMIx8Ryx+Vt3tJ+QxLsXqn5YDX9ES7pDiHctOWnU2tEuPv28bnZo2GrqzDFnIgqnyTc4hktUYv1fTEQ1Z4ej2TC9pW+D38zGPyouOC9hGjpTFHb+oZHZk9SVj1fXR1PF6Hf5+JrOOvukCkwPPdf7sbzYambTMRApVoCJj0CoiyxAHhxjL2UVkMzW+CL6Q13Q1Mmk5qJGCCin7KkYc6FPaUhNUlFgEzYqE/Ql3ginKGuJ101cRocRVlDjQn3xPbHzFAsewyGoV9o/ZJGxrRxqJVcSErqKyDHmTx6tyHRKWF/MivGd2+/SjkyqJyhpyBK3isgx5kgck36lDhpfWRZm8rUTp4Htnw3qPoKc0rnuR++y4U0/xOfGo2UJEOwSq9iRVHtHJvGg2eyR9E3LVf3T223GnnqkKS09iWvT/NKFJow1+SgIlobNMyz36aJfC1PlnTNuTfHZK1XTSEP2GWf3vgnk/Uu7RR7OkU+RCVsJt01JxUXb0Y6SThJepaOoqgafXa9wn39+m8gq8xIS6X1EFaq0+1PfsmqsUETse40BkBw/qyyuR8h1y1+mopZRI7hvS9urQP/3FUQ2hEZ0BuCS0kCT0LevU/ah0y1c8oSI0orRMgzMWEs35htlbwlUav6+fmKkawrC8OEgLiQOzENtuFAjo9/MR7ZohEq+jEuMg6VGpEWCxkSn6zyrVZ/UQ+yMdqHXkGxYSlfEYeaDIdXKVrD1F3uGoISknOjLTdLxoIU2jaIh8Q64eaNvseYapqhJmqd9L1ltRo1SziaZAbvH1+dy6bexVONWA4oijhoU0bWJeHv/k7GW9W17hgCVlUtXlppkkR+dB0NiYSyiSb2WV0h/sEaYsyVd5THKaSWp0HsQkyvIEgMz9238VzznGRbFu2cgZA4lDJEYea4B/wExnGc2u45QcS/klKNtHtIjELpP5A3WV+FZhCitWzLSg/BI0DCRBYteWfGR0ldo77AXqmgIj2gs0KNpHVLKHQBbXZYxTxroPeMKSdBOT4s87tI+mOUxLyxgkZBSKb+JYcxlD1uvyw2f2EVesoSgsY5AU3C3zeVBVsnyKgiDla+YRFYyhIewN5eCuGU+rakmq/LqGSEj7mDaGorA3RDMrz3YOGKNr0MwjCkzhjLCMQRhYzgJOztAXbYirXbSPBUtIKrIEgHSMUYYMZ0TVjVqYfmgiZXw4qTXzaBhCXJaVMQgHU2jUBLYr9PhEKEmPn3wu/bb/wqkJUo2K6kEzOB7IyhgkD7duNqN67tNnHbOOHzaT1qM1Qs08BqiJTWyd1HpXIu4WED9tT1j+bL4VCPJXH/8hOITyGNkPBRrMgg9eOH/qMM3OCLhl4902ocjEXYPhnaNMPPX8j7T7qxsXcSNBUyWSbWkC5geoUgjfTWQ8B6ZQOldBGKgTN9auYoC/+mwoopECJRnQJrEUbUCYAFAqrr1sMAcpYyS/VbHgppP8Rkgll01OkO4x9CWetQFZb0gA500EgNkpOYFDPiydY2LaOfPNKkkmdNkIYZN4hmtdClg9ytYyThZFo6NRnTWSVmrIKbh9QT5x9mHgFa53ZePWraVO1x5CDUxKqn6uTXA5E05K/i34hJtd6bibtjJDFKNY1pLkhqS+R0lLkY2acoCbHmG9Kx933VQO0LYeT75pigpWRS1NwSAVYSbEGPeGGnDXtAEZ4IScmJIaTFPUaEy94A1z0ZNaFtBi3BuqoLNsJ+MUr98oCslS5lYRcrAFA3BTuA3WwCmm4yFCGTKTYYKIjbIZIdlGKC8WssFHy6h5Wkx7vis6BHiajaRlShPE70dfAInFNJWZ6LlnbviBa11CJCQYtZGDprT5vYb0U5dExkddkAYXMnHoA251NeHWbaSGzwZpQ20L8CHWFFD7XcJFD5Q8wHpXF+6WhcygXyWVmQORf8nizJSY6IGC/az1tOGu3YHh6y/Z4czHgVRRxwUmemDWfLZ6XXV0rtpHDcmcc2asL4qNBU54KMrh09CPADkBMZLOdbeF6yb89ezFXwGhvyqxUHSOi83kg/Ho1EiS8++2eF3lAAzXBMcbPYgTvrPQFOSB7VzrcgGoA22jjjRkiDM/JzkJV4OFphNu0XRudbXi1r/GaLH7GUOc+SQUnfko4KBp+w9Yzs2uXtxNyxg35XHXhlH7yPZDFEQAh8us4ax3NeOuS4dNPVxUF5+GqlFGuFe5aQMH4TFVdrPZ040bMjmDUMMSZ74oPIttHApAPhMllNiTMYgHpWoPzVtZHaO4e45wrcRC0cKUmJMxKK+wF+vH03ZUXKVpwrULDFSd6AKjudrNLdSRIkAzjtpQcGI2MA53+G3mWje30MYJ3tQxhmlPhYLYqQoHRSstmMytbn5hUoquRzaTUMFVLqoGP8EnBixmvZtj2GuJ7qpwFjSEUOdtYAR8TQxms2ccW199rUKDtpQVpuRW4cofQ2ywgYPgmDN72ep17aL93zffuPMc33j3S5VbUEcxZEtTx7zqqfCiR7anzaW91DWL/76Z3eFY7/zSkC0lhYzquASjiA3kVMUuEkL2IAZZxfvAO9Dbv7QiyXJDaYZc1UVSLpiAq/qBa12j+ADh4r89SIP8aPpFhbQQppXcT6bZ6AgUY7nVtYn2W6iTXfm3BdGSccUS+UigxDcR01O1YMVUbnbNgHhqo789pD9actYpZB/c0VPjhJep6dIRBZay3rOJ9wnOd+Uv6jMJFC3JrVTQc37UdCUTlw1ls9c1ibdozvgXyuXuidNIFe6vVnN3m+ehJUxKdKzgWS+L6JBFIX2hRO5uyfoMZl3LasMEptjZQKAAVNdu8rlqkyVLCp0o6Lm9xSYwA772dOxKDOpB0S0k+bkG9wyxbonJQJHss2wBLXZWVQB+vAxF+cX4swJBAGLdEJMNTfe3ggV02NlU4NuhFm5Z8+3U2mdKx+LUwGJ3Tad4yQKc6ax3qTtZG4z23EqrQ9IZgfc7gSVJuUsiGQUn1DaMXSay1aO2UHDU98XSRqjTPZu2pGClWJUnPjGBGjfda6f2NCLQn1vpM+H/OxGUAUvKx23qcsfDXMd16ogRDAbkVtqjcs+yJXngB3SJP8t5js0uKT93KCRKJRnMKNwzNqVE6rKu20ohx9FZIvYv4rAgt9LHkhmD5zo3ZM9Y2S3uUo7jOrFFQiIut5I1vxq1ZEsHcdNRtaGZ39js0UZCYjEht9JqqM4HWVLJDOKmo2pDw64DDZjHMnHoDIsN/bj6mbpjhZYU11lS5quIc5vkfY04MQkaG3IrrYjdpWNKv9qNQalok4FU7E9dVr0M3YBT4jEit9JHynyQs5YUkNtQ53ku5bQU1K91CfmFU0J72aovEtQUscnOfG6z6irrK9qfS2g9/NylI70dKTZp4zwmy5JQBvSdp/05YbfDj10GuK1ERml3g8NsOkG4dcoMzttf2sNyuBFmYdsDZpU2Cs4Fa4kYsKIuhqhpaolGUtVDv2HQSTMGZUHbvGeWNgz2ERkiBkz0SUEa+hmlLLVPrjpLr1MmkyTCKMVMiKYoDDWvkynxNx0ym5LoZ1gJljnGa5S5upWwxfJSNAGGa+D4OEPyCM0qDLDqp05Z+rpk9aLMZC5/dkpoL9n2vSczpSt3x+DyEXU7BkbVMBLLQzKcdZOwdC462ooNFP29pSH8Ywl0sg9601EoeCwbWouWGf3GcIUu4w0hcYGi1J/U/Fk5FHVKgrLCe0vJ0JoireiNkHaPbHQpKUkLlMWGlliSxJQWUoUKQ6wF7ewjrQ3ZCO0GWSlBpCDVCVl14HFTkgTWwTcdfYca0M4IOIWtaNK3NMtkxScoYb0rjk+V0FRKDZh5QqPkcZd2qlB2KWSBzDRZaa+0AApAywzfDRUDKqWq8KbThspBrGq5jXCiJ9lXiYaMzBETrU5IoNqjgwGlqMyuVAViVeukZJPN17dEVB0cNQoxyKj0LqN6Be9z++0ujR7oaata4KaRopz1zx05WXvfJK6qoKgUlTedYYuowUvM1cglMRMN4WOnhWtdoWq3CklAyZIE1EWNeW8TSrrqNNPItJT1jZCBpAJQ5qoKAqUJqFXedEaBGNVaYJUkQtZXK46BoECpq54lEM7dQCxtEbd4RbM3SVFcHGQFmrdzzZLEZeNQVCbaNrXV9wbI3pcpql1koYEY9Pq/f+W+Vl+9t0TBTz2LznM16skmdFKSkJbzz44Hnxj0dmqDUf5L0dkGCkjyPDVEemarWCNosQITOjFo5YusD/2WrvywVUsYA14CpWFWm55QySpexteMwwUucGMI0rYjTQeNLOHuXMAo4inMlFJg3/K208It4leFIbrnI/lM+x9DnzRQf2KXNnp24mjhJv2LflnxKg3x6Wus4WCE2NOqlTV0/aZ80HY9DPE0C2DQp0xbC/yMaCWreBnbHBNG5Eb4HWRyoHdvWzmGyj6glDLvls+dEraoB5qZa7jfP829lLXSqqLSeSkFH/7rIAsmYcUlBv2CTXa/mnspCcB7NPlZpcS8WwZ5YYlBnzMWIV/ZnjITYRgAoz7z+Su4Il15Ye194/Sb79nmQLoCoKyUWTyXUVUJM6MqAENOr8Ift6VGDiC9lUoZ4MyT95ljBhVYcZx3ro+2ozyBzJKqlTKj3H1liJukQOylYNRWtzGovm5YAFM/5yaqYg4VbLEIABk3V3Jj6rIZsXCuuSkpZZazEOhBFbSXOBoky3oltw0pqFv62CmlyJjSZcOxAxKDfk5X5aWC1C7V7QHfq6JrHlBKwhnBsZsfUKCANo391J85YWPpTEKTeGiDoFcRC0pZJGAJUQQQP5zAtx0dm4gdhRPn67znp++hKOZEMGEPC3QwtkIBN+U2/ncJvqNHy1epeI7vn7qHJsmJThY53aHdCljvMbWKlLdMtFB4qX0VnUzaUWpfDMN0fGqNrG4dnTQ4pWYroQBAYpCE1UF/lpNZ1tgCscSc/o8tIbDHUfAKIqglAJAYJGF1j/TS13NKWdDFju5HoNf3z3esuySAve0g1FyBHyrX1jDSsIYLGHD/GTMea1ACKjGIWfj+B3/WojUgnDphnT7Vw+QkJ/nVb8lsKbz4HwlICkBBU6TtIx/VFNkhrckJTyJuwqgextCeN3AJbCVEIBGDBF3ODem1IZtSN6vKUzWGBcOAZ2ETgUsMYvWkr/qzxv9pjR7oS8ZQVoMgb98eEcjEIMao3xXprdqwhERjtOwuW2g4XciQmA2JQCYGcYo3Q2+23CbWKOwv2ELBMNbgbpAIFGKQND/DkI9aJzWiMBXAGFQmYwpxqAgx0fcbMkCIQeImRfSgnBCUJYldRqGid41nagpzTgnUfdanMmAFMktb9violYl3U8ok9bx1plC2jL+Bv5s3MtCIQVJSu+z2Z0tKL+mLI4pCS2g6y3gZbCFkQBCDWG9hYHzUWuBJqIREn6w/dpZQVAB4CdojA4EYJDFg/A0ftYh7ijJa3k6ualhCw1nMkAwAYhBz5K90Ri15XJ4WoVOnK0EtoagCL2EjlEGeGCT0i/UjKJrEkrywuPJRm2wWnTWEhrOYFScDhhjEJggEY8vTu+ipR+r23GUIRZNZFUKaGMSfUFU6k5ElOw5Dd9R3ZwFSih4nrQAUi5eewmxU219uC+yi2UHROpagmWmEECYGyb2iXnrSwLvJDOrRirIZNJ3PCROD5CL+uYhDnaJ3tMEWixacFcRlr5MlBgnGS0+MO0UVltVDPDGDOed1WDMGScZLT0XdgjIvlirUolhBEuYGiN/wZ040fnry9ypRWFZ8XBWUxmW2If/4qXcL6jTJAMTf4gaM4IzzPJx9Bz8kGT/14MQIOM+SspOEUtmkeNuP3fzUSyFjujZUwZmAbaDkPM+GUXJAP/XEy6QqoeQM3BevA6oRfjE6rYsQS2VUWhdbepvHj1kHmtzxhglMu9xBx4j0nJ7qUaUqhSRQvPxz1gKSiul0yS0VlcexbUOeBQUPaDNryY5NTb3TPQCmLJOLRqQykysyvnFy7Pny9gjNl+epnjEbVeSznoT7KBQD+zJ4mZz3fFCGpTIq77mnen9uTNElGAVTAVPV24nkL9Lap8AWyuovX0XD42tcUJmiU5HPugr3UIBp6rUhFrUlw1IZVYaYKGfGktU2/BLouaU04RT1liKiRsW/05a1eUvN+11RwHhkyWoNfgnUrA8oJyk7S7khotq6y1hLxSsO/AwsC9pXvbE6Cr8EatqeXdTN8cD5gA0Zlsqo+g509DhuaIjBJNTSsbkVuTAOIp/n6vTpgZ0x3XX6tFU8wsswogonlaldlKQDGEGEU1G0vrplBtdbNyi66rtN3fXWiWIfnIbOYdNACN9VdI/4rF7ic6EzlzaY3bTtWaCR3nNmGcLqZvVX74gP6+hu/3GEZ0LxP2VnL64noHV4L8MtlU31j/urB+D36eg37jrCvimmqZ9OYxSWsZZKRF1alI0Nanq5P1CYUQgRvtL0rGNC2wNWw2sGs8zfHLBOD26pbGpHir9GcqEdaTA8gnDgMABnnxm8ZjBXJHz9unjSKnfUtpXIY6OVUUf4rDU8JcuAaNwIXrOXv/M3JOVVKkvFnWXo17EHzJYROam5zpcVPNFAmQEL7OVGlz2ktUxlqfizDDE273ls1GkmEczKedYxzBYGMDCXtS63jHqri7BUNrXrUtHICp3Rt6Eq/qZzDOO6cYCBuWzB2U3mNnPeKda7GtsuK9JBM6P4vmGMz1r84/wVONDAWlwPHp1It46QcZvUPmdVI+Q1rY6DEUaT/jh/AQcaGEL8UB1idpo3BHYn8B9hg7quUWB7iR/oeJgTrieOAw6s5TJzxz+9RmepdGUZ+j/E8/bLY8yU2T5ZQ41+rOzx/55ngQNr+Tuz67jUxUjcTHqWEJHV6RiyyygqDZbs8Q4vseCBHTQ8Xc5al25PQVmGsoExqG0YVF8yZGQRS5KfLi4OWfDAWDa7rB7Sy8BBtansmbC0jcpoEmg7KOGktZNl05qOBRBsxfUwtpXkLjG3pEQZ4rwYq/oGbXnaG4P5WEdR4AEEY1nGRJFQ6N9uPjd6tkeFo+v7jLpVqe9wDHdCFR5EsJUrXYxG0mU2U2UuW5QhxovxR6mDb26HmZZYZ75VRZ4PDyLYyg0MHxG4Yt9SIzd6RmONMyAqLtsx7vaLUk+nwAQJdhB37tAexgcYn/119DyHuNiRQLfjAONC7zlHI+Q6EySYisM9nn6I7L1VSpMYZYgtJ8Sq6tGuVzRLGAQecKqK9SQzYYKp4KzZx0g/KKVJjTLEdTE+FRtqs2QZZqgOn3/uYBW4MMEO8h6M+hOqR4DRcSP7+EzjLr2zFiEwY8oy/EDgVY1DLlCwlDWsrUJYTXy4cyG/oOidmQ9J2YppORGX5M2si1nHBQqW0ulx2KqtHkU3lO3j+xrVs8/ioqY0ncIOcBTfqAVVuPvwGjvKNiCXQZCdujO8RxWOd11+/w7pnn8xZ9XM1jRpHuvH8afhdNGqojVLeZV+IOM+/Dq0R7GF92EU/cXYLZcZoopntJiqESyiXtGCMtwBvKYbzWfU/wZ1iRfFFt5PX7/M4j2C/qNWP1NWzmmZCTYEC+kLT8AHC8xY82WRW/0yvdvX5PYm4JbwvmizYDbIXNQhChQUffQYSdHnfLjAi0Hf6rN3vwr/N9qv795uG0lCahUODnzn33+9vb/1/kHxGX8qfMbjEM4WI/lqRE7VwQ+QNDCPERcM5YYdvcK5JrpPEa2Y1T/PhRbMdL1zZBOomcA0IzDYyRY1ZCG1dfxmacfMNXryeSdb1WXUH/w0jW9hkRMY7MQty+wZ7W18Q2rM7Gw6+XygPDAbPyth4kTHAScy2Mmr1FAddSv/x4pO1EludGLioZPj3bcqcgKzx39INR2icGUBciIDI/GEbPXUb2Wv/sQb4UTqui8mklh8TlBg9vjz0J/oop8CVmhgui2rbJjAsqz1fIMSCF2XzoymBvFKCswe+lYAmBHzVcpaUVmhgR69U4DsNVP8jVsil91emS1psgKzh5567vwdf//nTx2u0tb8zYsNJNT+0a4yPSTBNv5I94gWLcqenHCUOi820KP3D+ayRH/jLj6398ust0sCEy5BmRkclJJIVb4hUcL9z2lXgpIrGpI62aqq0JnBwTCiOcyYAhow0nHXpY2dhHemdp8FWpkbHQjYAq5jYHsQkFXaB0TLDF00ZbMCnRsdNDNMq9oSKARcvg1cjJs1+IlTr5XZwSEODCPJMixN3raKvM88PNMy2zXxghF2dFhgQOsfzJq0nAGEPHmmffIOC8rd+TjgR4eEAbV/MMtSo0YWoAx95OUZc9qpi+YZxw8PZcOYdhmaPZnf1mXpZu/C9+hZk6IDQSE/8m+pA4YRZ0aS2BP7f8sOfaG3vL2sOrlb0QlAvNZEo3tDlmZQ/u5rMnTVM8lbtm3T+w7TTgLitcQyipmaMAG3KePn6KFfDZAISeTuIwL5WmAYAy5Lk1iEyQKUoUFPzajfWcVCkhedCORrJcOYdZmarDRcVoyDqq+mqmqTRkhSFUnDyUC+VuChdIfZlOWK+WCsbzf7Qjym1d504rIQ5GsDhjENiyKRMyTZVoxnsUJaNTtwdZG/E4J87ZKlbPUkuWJGjNm0tybcdUImoRZ4RCnI12Ytxb1mRr4AKdkp9nhuZrArPGASiEGK5gvcsqCsb5aMvbuPDtBQKpcsOVNwB8wG8SsBE+HBnPHlVyaA1/NrZek6n3FyEKNx0VEP5FfseU0teb8/q54e7CrQZ+YES8HUYMRobGJS5QcC+h25vY2GvN9nOeGbejAlyFBFDg0nR2PazdV0S94x6UskPBu/AXNhIi98Gx2OyklVJihF+bSTo3H9t9R1py4DO2T0hkz6fuCsDOWHb1zFg0JeJUl5g2edfK1gwXccYzpE1m0Kp92ifn39Xl5byurij+Jfi3r2i11Ovoa9LY3pziWEEXZLmJUq2uftife+OSPq7jl8k7OzBn0SQ/ka1uc9qTonrAyH7HNFNucq7cWwQT0mWgyobPmBsMStZSdJ48ma39Z9LMwiwU75av7VtH2WKYhnHadftL7cQWhvxYjSeKKE6qpLNEIthHZK16LkZe2Jcr/lN5IW4fP9dEr+cxge4OkVtPtpaNxh3ieeskKm7LCSdjG8dYiE5/w5jyau6VYDTr5WEvIVOmncYT7scU/LJMVzRcmD362dOUmBWfnNhxuR/+CTB4DxWQJWW+9Ctq4yTz0ovfMhyodf2CIuy/d0VeVcsR6HPcGyeK1pxtfcKnOSY55eV1rn/JV/vuVWogJgM3UGzoYCingCPaW5eK0o6ntuVbjDbCJ++Q6BG6Z9XnuZs9NhUbKkMqO1yzqEktYx3s/++P8kthYSupanlWXQ+wDY8ieaqYmmcO6Wvf5LZ5l64UhV2nYuUzV9sw+8VZU/zcaORaAzs2nzM4RO2Zu9zATT7/yVxuLonp9sRh3mUdJvCNr3J3Hh/aW2adx8DKBL15LQgqp0hYzj/333jTs2rbzx7ldmTA+699/8R+ocnAudier7jxD8osDa55nDYvqNgCkzblFB6RpFuYkiGr8xpf//6ivi+EdF80xvyNjvCtqpw7ybjovIkPXdeykaLRZIjcWcU5DV/4z0r9pW9mvByvWqc/7UySP/G80Vcg7JmWfq30MGZpNz0v4qZ6rwR8GT6HyfCCk/7amJWs3v0EM/dNt/1T41oalNfq17xTfftr3/Dp4M3Y6map0+UoNMWXap5/idr70SJxHPm+C0bdLERZeT1P3j1Scnbm9+3/PnXR5WDgA=;imageBackground=#4D4D4D;" vertex="1" parent="1">
                    <mxGeometry x="141.19999999999993" y="680" width="117.61" height="30" as="geometry"/>
                </mxCell>
                <mxCell id="3" value="" style="shape=image;verticalLabelPosition=bottom;labelBackgroundColor=default;verticalAlign=top;aspect=fixed;imageAspect=0;image=data:image/png,iVBORw0KGgoAAAANSUhEUgAABLAAAASwCAIAAAETRBQOAAAAGXRFWHRTb2Z0d2FyZQBBZG9iZSBJbWFnZVJlYWR5ccllPAAAl5hJREFUeNrsnO1R4zAQQB2GAkgH0AF0wHUQOkg6gAoIFUAHoYPQQdwB6QA6IB3kNHjweCR7vZIsR4b3fjA5f0Xn59XnOrPj8VjAlDnjFqAQUAgoRCGgEFAIKEQhoBBQCChEIaAQUAgoRCGgEFAIKEQhoBBQCChEIaAQUAgoRCGgEFAIKEQhoBBQCChEIaAQUAgoRCGgEFAIyRWWZbler7l9OTDz+hm92WzWup3f4ptGFHb5q3YJeyELhRpDWMxXod4NDWSmbaGlsHmKa5d2MbsoFPxV/7y8vOQ+TmZQsVwu3Y0fHx+0iFlXpE0lXQfLkQo5Du1hqgqpJH9nFFKL5q7QUmKEXV1dBcTlarWaOSDgNONCvW/lFQjc5BVp5C3ufQIIxzHawl6LZoDfeoxSDxbH6M4cv+naZQ3wu8Qcf7i/v7d27fd7QXBX89ncUpZl1xXm8/nr62vzmOpD+YN7yuFwEBrvjFr0oz+Pj4/16be3t8KRvd+lLIxwjLVls9m421s/11WLpuTut0fewwE5G/NZcTfudruYa67Xa3PZZhxcX19XH7bbbbXd/LW++t83VjxNuCZNF4WWnoAI6z3GiiRTMHd76ylyFAoT9386CtNFtvlrBp2Fs1pZBagVpho+Pz+bYa2pYKcUhV4XSXpMHXOaz+bE5+fn5pbqw+MPKYo9Dh7pT73Psnup3rk35eScZrVkyPkOz8WZ00anNvHCN3emdwDAWHAozocddMdMxDDNlnxoX7NYLAZv3vGXKgqtoDHds/f3d/fWy7E1n88PhwP+Th+Fy+XS8ic7qMP06+tLnu9AQyqFVmxtNht9JAmTZ7ffjDzSqrpX+aS5lmU51KyQNKjw7TenW74XSiJ/qfwSSOtllUubKYrU3LXb7cyDnqo7kw9hNyvpeGb8Ip39QX/pLEYWKdW48Hf4k18imHSRtFEojwqy8qfpaglds97lydab41Ukt4se02/QKjRju0GG6uY6VU+sWltI4a+5ztBVktY3C4Kxbk7vVPDFxcWQgyuvdQmvFQxh+l9fgIBzw8ocs1LhVSRleUyPNMl6YVeV3br96empXjeXe2I3NzeJqtyR5w0ivy7s9DPfizZ93N3d9Y5PNQ31fr+vcpN8eXh4yLmTNd6DI+PbbAQ/iQEVadGXUqWvn4eqSIcq0pAV6eYbL3/mb2uLLScxKB9hr8GWqSfGrz+DYzHwxMiUC/3TVwyahCicuN1uA8IoMvHCnQyL/G82o7CnrxSfO2PF1ji5M2Zopbxlpj4YQaF8QStPWlOeWmHRkRAbnsHmJiF2rUAJudXxuBV1V53pjrtfXl5S9DuE6tTKajS7rKkSZTJDawglnCNVTrQPdcve3t56O9IV6fqxgkVrVz3FIXfp69Wx+hh3vezE09zNrOqkt+xUQ8NmkfS9QlehuWz1zskpFbY+a/GVbZhFOZEg0X/cDM8CshdWq1U1aDYK22clk6YCuy1W9Q6bkKiRgsViMcK3BN/GrFOBiyHeEIaoCTYvE63HKMXgL61CfSS1TnX6rueBX1s75s/o8Zt7KTiP8Vc4eVdEW75tYdecSDFWkg+EV6T8jN6vikKYvELfJCjIriItIt7UhZNFodxbofMygUGF10jfXYmFLIb2RWhiC2TUnVHmznBDs+6RCq8i5PuzOlSkwNAeUAgoRCGgEFAIKEQhoBBQCChEIaAQUAgoRCGgEFAIKEQhoBBQCChEIaAQUAgoRCGgEFAIKEQhoBBQCChEIaAQUAgoRCGgEFAIKPxV/BeAvTM9aiQGwqhdtQHgCIAMIAOcAWQAGZgIcAaQAc4AZ8BmQAh2BpAB22VVTU3p6NExmsP7vh9beJhD6Klb3S2Nl+9gwwoRCBEIQYhAiECIQAhCBEIEQgRCECIQIhAiEIIQgRCBEIEQhAiECIQIhCBEIEQgRCAEIQIhAiECIQgRCBEIEQhBiECIQIhACEIEQgRCBEIQdmq73b69vdF9U1Da1+gtl0vvcb6LbwZWuDwpFS2aCsIYQlA8h3AGihNF6IL5bcn61dPTE306uXCmjfDq6upwOOiMCW0m7UhdfqLNZkM/TtcKxTHudrtOC2sbIlY4LSu8vLykj85qLvSezFw4p7mQtOEc8sI2xevrawvq9/e3cqErAAyB0HWMDYDj8Wj96uLiIgQvxJVUsvpcGO9CY2bKpGtRn460s4tL+KGB5kKB9Pj46B7//PyMt6FQZU5fBomZO/+e5P3Vz89Pc6383ByXiUC5Spm5pzWd/6Yr8nJrXjwcDsp9lFsp59zd3TUHG0/Q/uj+YAac0cvLS8xD9fH3O7b+1Bsc7fG+ONVX3R6xhnbqjKgYkKHruvrn52cztoRlY/3Wc+fl//8M8xjTX/1K+JmuX61WJpnZ7XbmiDj89/d375h4fX1t0z2DMGoghK5NlGu9XhsAjbmbqTpkzRlWPgvGydUZy8nIx5h9UDVcU7NsYnpZJjbzsflBjm+3W/l3v983/Nr+XAbW9qR5m2FGCOOVOKiMaKV9wtfXV0n01KOSmj16OLPohZ/198g81DlcBFh5RArCqIg0yQfqJ5PpjzAXeju94X9/f9+jPwdG/wjdrMtyIx8fH/Lx5uYmdAeJ9WPYwK9WOBN/prfwFjObyqzZVzGIcKa0oZG8JeKXUL5d5RoAYTvNmAhCkyjLvxURWvWUYfo69bbu8mRMLC2eP3TbjBq9/kTxTy650J3zOnBR7kXHQqjzSwq1+kKoTxP6za2Q4vwR6vyU/R/1EFonW5WKeitIs0SY6j+tKacGQm8oHtmf3t0qPaT20ojVapW9tFRP0irrWfpSkbf79BclU3c2dz5RP8H4jOy6RzAv9A4NvWc7zzkej4WL3XKhzs+NJmpnoqnbaPtPgnvJCzvvXOL0U6/NaHNJUtF5cpPSlDRJUccSWswQ001K8VqRAzP17fBIN6iclrqBPf5kkxNnNKnn9cKHh4fQ8mFeaTvPrxYWzWusQnc2qcbuhSI/NkxLUq8a0ZF2rptuNpveHWmV9cKY2TFvB5uEJ9JH8bcdAGHnH2K9fzkOQpG7/yzJGmL6IjRCU5Ow4RF2/rExTVIqmh1DPCnL9r7lWxLQZkeY8dFvxnOn0yRrWHtHecWtwDUwR16bWvvuBaGylcTdiRLZpLajbm9rHgFhaN90YZ4Xujw12uxrsUlZpsgL7kxp0PqYlhf2lXgtCt4QVh6nFNuSUo6SvDC+vJfRJLN3stly7t0KW/GbEK3Q8fb2trA05S3khkq1Xs9WscqVOxqMJFoMuVODLcQveUmhPKVTFoMG2Ehhemp0tafGpA0MOQW2pEKae3C/3zelnKGLv/+Nohxp+/28JMCRS+dWIRilhSYZ62GpxiSGKOaI/Y1mheVfo2e2m3ptFH5DWGHhkjSaxFyo40ld30eDIlyv1xnJGZquFaLZz4Xek60qF3Mh4Qyq7Ejdd+3bH0Pv96J5p/ZofCsMbaiF32wQinvsLGPCb9KOVPeo3v/5AA2mtG9/wtRI7REIEQhBiECIQIhACEIEQgRCBEIQIhAiECIQghCBEIEQgRCECIQIhAiEIEQgRCBEIAQhAiECIQIhCBEIEQgRCEGIQIhACEK6AIQIhAiEIETz1j8B2Dv/o9SZKIDqNxagHUgH0AFWIFYgdKAVgBWIFagVaAfYAXYAHagV+HbeztvJl8DN5u6PJHDOHw6DYSGbnN27m5vNKcuqAdCOAiAhACAhABICABICICEAICEAEgIAEgIgIQAgIQASAgASAiAhACAhABICABICICEAICEAEgIAEgIgIQAgIQASAgASAiAhACAhABICABICICEAICEAEgIAEgIgIQAgIQASAgASAiAhACAhABICABICICEAICEAEv5jNBqd1sFhACSMzGKxcIJ9fn7Wbo+QcMycxS0u3CJbwu/vL8cG6AmbsVwuI/Zj9IpAT5ikA1yv18Ph0LwwMaoZK/oUS5cI9IT1XF1dCf99fn7+/Yc10GBeuDfNBknjW4COE6GrETzxL1woZDKZvL29caiAnnA37+/v4QbKGwtfAYCEJ09PT1QiQEfD0aYlRwlrAY6uJ9RJ1Wjj1WrFcQIkVA7nfC731W4zHo91P2w2m+3Mkvv4+ODAw0GFo4p+L4rhVZbL5f39fdKvAOiuhNE9HA6H6/U651djI/R+TGgvvscqytPAiAluphw58QCg6xIWVXx8fFR/Nsolfh1muEiOTqNmq4pPQiLsPu+Tcnl5ufPbzfvqMuX9KqbLNf2solrU5Zhtvr6+5NKq//L5Ae791WpV2tK+mM/nir0+Pz9Xn1rtnoSdJdOd9be3t/skjD7+NGeJ2bHpdBoSOc9mszw9iamBi4sLOShw07lur4sfsf2PoqHZZ7gcJnx/f9N1dT0cbR3TsYTPxLy8vGQw0PzdbDam0662KcW7nO1FGnenpcGYsFgs3MbVPq2IGegKt03731HNgBkJ/9ckK7zq2mjKvbC9bsmBUgflBHC2PDw8bLdb+6Z5LXxXNRxV9IRyPpOuE4asEv78/EQsTbh8r7hO2JaB1RN334luOj3T7pS2N13oYDBw5ahX7glcW0QejoLXIUhRWaaFtudHU8xwzjOYjJJoakZWwginUc3ESqDtftdNLXW6J3RpYjoDDUaJ2la5ts32bNTlOQYacuiZhPa8jzuZUXJJHWUVB5DFbFLdhA1A58LRm5ubA7vpVlchhKPUkpqzFAemaf12JEnFDEf9r0QDtB+Oyua4hBXPzqd2xacSd3d3pdlC/2zvfT8AA6FP4Wi6MVWUkn2C5M1mo87XIRwlHI08BIqbtxmeSicUXlwrsVOoa8MtA6kuofYQ2zw+3a+Ne2ol2sfas8LnvnDPbyxlPsQ5eSJmY5/Ey8RNKnlHJKyNfoXPqmPv3kkof8V0Og1pnnZi6rYHEmYw5LAlDNFPTkyPHha1KKFceOBdMmpSSHh2AhmRc3RqR0dHcq+jvJvuYQoHU0Wa2VH1yktHrl9tjk6IgbXNra4LTRdJ7ttHYTftjZdqA306MSZm6guvXpnofjga5RDEqnA5Ek4x8+RTSG3CcGAVyUPHRkWlCEeV1wmFuZnAeED+uE9m3Ha7PfWj9cjKs/WNuCyyOd2TjirVYUJgFcm73OgSdP5LJkoJN5uNOqgI+ZSQ4e3e908fb/Q44RQBSHghik81PSPbItZqQ7ocDBNzdV1CnzPAUwmzQYi0Ubq10WiUeYWiducPai9Odn96xhP18u26lcp0BM2O2nUWhFjCBYe9aHpNf5jzsaQtPgK1Lwl6R/Ls9P/CD6dP2kf4vJHuEYWmPWs6/RV9LSNhDNbWU8H79SCAkCpSr4uTtYryTBI2ZTKZhHzLfD4P/KnRL9bXipptLlqYimxrdrT2h/l8V9wzXIhvO5Exk87GzNdI5EXKUmTMqHc/1u+UT/R2JfSpIqF5zdCk7pTQxvbVEqopu7kl9Dzdx+NxXMnlbKZ0R86/EHXGtjzREqVl7IKEIa1VeBPvM9NT2r742h7cnf9tf/HfbEOaDl4EKyHnBwuDUuFTdkqpushI8f1+5XPJeQX7dqe2Yi2lgeLNzY2uihaLRSl7rNTZmFFVcXnYTGPC1nvCWG1zujbeUTt7nj+vqjs9YUjnFnJ7d2BPeP6Xo+gJY02mCVtmuKJtGyD551Un9wJVtKdIv7pE4br5zu7LBueBKy34O+l+gB1yu1G3ed93Sj9DN2g6ZeEHNB3FJR3hpJsdTTRV6xl+l2Zfe9QThk8vN3osgnp2NKRaUl0v1o1AGj0Y9KQbjwcGCCRyOOpmAvJ8PLot9mYZTgvoq4QR0y/9VYw1XWGjYhZcg75KuFwuPZ0Z/yV6tKmePHRPKe3+tQ04WMLnXXRT7enmSIqUcuGN//YyHUB3iDAxE+WWU6GQyWSiy94GOIpwVLjVvZHewsYH9qwLgMgSvr6+UokAbUp4fX1NJQK0KaGcUhRlYJlztQ+A/klY62GtirXb5FztAyA/cdLWBoPBdrv12dLmkfrPtZC/AkjoS+2KTwowEAhHGxB3xac21yQH6KmEFpePovu4u0+EAwPHQ6qnMhVFkudd4j4xFwAJGdoBtBqOAgASAiAhACAhABICABICICEAICEAEgIAEgIgIQAgIQASAgASAiAhACAhABICABICICEAICEAEgIAEgIgIQAgIQASAgASAiAhABICABICICEAICEAEgIAEgIgIQAgIQASAgASAiAhACAhABICABICICEAICHAYfNHAPbu9bhtow2gsDSTApwO5A7kCiJVELuCKBUkqiBOBVEHcgeyK5A6YDqQOpA70Lefd8LhEMBiASyufM4Pj4ciQQDcg/fd+/nb25u7AIiEAAkBkBAgIQASAiQEQEKAhABICJAQAAkBEgIgIUBCACQESAiAhAAJAZAQICEAEgIkBEBCgIQASAiQEAAJARICICFAQgAkBEgIgIQACQGQECAhABICJARAQoCEAEgIkBAACQESAiAhQEIAJARICICEAAkBkBAgIQASAiQEQEKAhABICJAQAAkBEgIgIUBCgIRuAUBCgIQASAiQEAAJARICICFAQgAkBEgIgIQACQGQECAhABICJARAQoCEAEgIkBAACQESAiAhQEIAZflpsm96eXn58uVL/P/VD9x9IHD+9vY23tG/f//+888/p99zf39/c3Pjl4B0tDBPT0/n5+etBgZ+//338M7r62s/BkTCcgc9P+/3wVHDMnAqkbC3gfGznz598qtAJByxBpjDu3fvXl9f/TYQCTtTxMAoc6go+m0gEk6XhaofQiRcSgwc1WpgyxKGBLL1PTc3N2//kdkxqN8C0tEyIev19fXdu3e16raGUEkpRMICVbtaA89+tIK2Ovb161c/EkTClkQ0Ec0yD56OpYIhRMIUCQPv7+8zD5L/TkAk7BDEOh251HEAdUIAy5Cw63TBxPufnp78TiBhZy4vL0d9P6BOOF2d8PHx0TR8kHBOCTXMQDoKYMES/vPPPz2CW+93AiQ85s8//0z8NWdaoKmDIOGIfPnyJT0TIvx1vw5i2Qrhy8vLeR1mZmBplJnU22MiReZaGD1OLzO5vbi4eH5+VgKw8Ui4J/h2FJFyDOy60kw8cqdQKTBiI5HwbJzGlfxze3p6GqKTXhBsIRI+PDzMZeCHDx8GBjTNs9hCJIwy/Pvvv9MbOP2XAgutE+52uyJDQDtloaUMFA+xhUgYCVaE6DRNOJq3IgosLhJGQjDsV45zlpyZIHC9vLwoFjnc3t7W9sSaejZ/JOznyRj9gVdXV4+Pjz1OqeDJtB4qFNmjOSL7Qlw7dyR8UdMxgxV3d3eHVx0PdXicw1eObLn4QamftXqSvW/R9nkbn6oJw799yHW1dj8WPJ/0p2KhTx+q+tfqcapV8cNDVQ9e+0V//fVXkTvfdOEzlsCFM9EtmFjCaY4w/AKbNGuyqPawMawdrq38/PycKWH4bNlnHwl7sMqpTOlqW2ZZCQ/+ea9iP3I9kd1VM9Lq4uUhqwwR9XDFusysUuvxCaWjxZ+C6XpgkeNMcIGxLSqOX82JhIePmP1lxjES6bO6OiCRjqYvsOtgDJFw4+loKXkSq2aEeuyoFxgDVzrnrL4eq21xKPzhJfQ7qx6ZMwlJOF0E+/jx46gXePjXmGEe/Sn4tq/aVZtwzn6smBz+EydV59c5e9cJSUjCqSUs1WJR++baKVRBs9bWmqaA1vTImEbC2qZaEm68YWbtvH//vupGorUpNuE0lemQnX79+vVwbnTOTnWdSPS/V+3a7Xa6/k66YabTcRKTejM7zfpdYFOgCLlla/jK6fEr3k8YIu3wGy4SNvHTeHrf3d3d3t5mtnrP8uyMEamWz58/j/Sl4ci1vSPhxRjBjv4aImR4pXo+j4+P+wAV716cUBIC4340QvWLDl85+muimargKHnUWDBG6e/doZR5MtfX150SpB7n2fW2bHtMVtPV1Q4MPM1bNITCdcKgx5Au3cz1KZp2He1UI9L1PJxffvnFTRhOyXS0VLEOx2la+j5neajwhtaHa/ogI404AcaNhGUDS4ioVU8yl4eK70xU6sJf09HSKmxYmYShQI+R2h0e9sOHD12/4u+//z5aTG2/EqlfHVtLRzOjU++DD+n1enp66mqddgKsLBKOHViK9zunSa/qDyxOwnwDD4dBtnaUz0hifxtgcRLmxKj9eMhqe2PiT50oOC1QIoqV1Qlbq4KZZTqGxB5p7X5oyOfPn4dnxQzEyiJh65JkXct0j/cfLhUzRKFQD2Qg1hcJE6MueysRPpUT0KobPO0/Hh4N6RMTALGpOuEYxTr92biiaWLM2tGUvJzKqhKAVUp4d3c3y7nmj+Xft8E+Pj5+/PgxLq9yOFVne2NiQhYQB+7u90KduHdnFcTmgz3pDWqnY96J7bMcf1ETJgf+QDkdm0f9Q01Tlqqz7PNnSOSc9ly3KOcI1WufsgSaWT8nrXXgRGkI+Uj4eE5WEurJ6x2sN+QWnWXPy4kjq8abRDpdnbBUl13iOFva5yBdONI7c4TPtk6Yrn5kv9LpKRgYLrbfeON1p6MTZHdd119abDqa2W5UZOGz6j1cRTo6pOiO17goHd1IJEw/bi8vLxPtRsMf1au4h0Ni4PAZBRPHQ3XCZRWvm5ub3W63kMKxRgNDvW51zcIkXJaBh1tKHDFk69XTaYkJ9brVXfLKJEysvbf24nX/g8QbWrtJe6z2vzEDWz/etKzjzP3GC2w1SRSauLDsGhtm0r9CXNO+d0tDzqL9OQ02XT/baXXWgbeotawO33YyvYDYeA0zOuunkDD9u+Y8WYYInFnK55VweOkvIk91u1Wto9uv5AQDW3/49Kj06o6F/XK59WahBS880Sq2rDrhqM13BRsAjwYKRiZuoE9fTsigWg08S04c61o6F7h+RxEDE+MQWtPU+R9VxTPGrjv7deodDje0SGbfKYsbY+ewzGtJH/xwi+xRq/SjpqMJ4rCh6aswK6gTvpXe8L3r7zRQvzFaekZ99k3zAF2ahPkGJg4eZ2wvc1jY0DrhwJbigZ+qXQW4dUnfWnqsaFok++iUVJf99q7p2SyELL3Iea5i5a6xGmYyB/hH4oSATsePSwPH+WDh34EiTexhp02Oivc+98gXpue09oEaOwcbo6qw0lvR77t6ZI/9jrm0dDQupDBX9riCdHR/m3KCTLVZMk7fWtqi9FOejNX4c4LhiSwOMGgZ/N1ul1+YDreFWCzhciYLzlN+10rJ2WBrAwytE459j3L6slddyHp/dkvzm088ZSjQMDOeh/f398HA2ItQpJr38PCwqF89pFutLRCnsD1GeuT69j2csbc6TW1fdpHrai3WE48dnbiRoGkmylwNM/Ehm26zbW2kSR984Q0zJQ9asO078S05K9m0nmrrEMGJZ1H0O3j+mJsld9Zn3qK0TmUfqYnH9NIlLBISM4diDb/p6apmcQmHaD9N0J5dwiGPqsSvOcGwtaNNjdJLBE0xi+Kt7xTJeOrp6kEkMVo3PxpPPF4+lJL0ufVrpGndFGRd9aveI7EKTirosYxd9VHS7UtHnWWX2bBZ3b1wmvG1CSu6DkPPPJ/0fUh8aZFLTu9Ct4RImFPd6HGLCg4qqL65tlIQx9zNlo7OOAS5YBqZM1e93wUWL2GZV936QFyIhG9914NM51CZk2Y6Ba1QSPajzM/+W0ty/0r4T+aoJhJ2LpHDL3AMDx8eHgZW1JcjYe9GmiF5X+ZKPEdfV/1/7YtT1wnRSrqPpF+17dOnT+GDR3PwQ/VmaWMDi1QOmxaea514kRhBOXzwQzhCz9EXImGTJ6NeYPpHaZpKN2q5X1QkfOu7cNOU/erV/pWj+qFIOKip8I8//pjxSf/9+/faXbtOaqxpeBKl67G1P9+Mtyh8db9IuEoJE6uPlkq90g2JE3jY1A0zfKrrisbitnYj1Rb6yTwMicBReQu/zv6V8J/MIYerlDBnCOiQMDgZaaNqzzC9W1OO+auY1JufMtTW5YbcojhcJOedcdGDmLPEj+x/nfhi5rz+n842R84UoYVs0RozrsQY7qZrCS/2eIisNJtNX+z19XXTLQqSdF2XoOstiucW0pbDD+6775eSjsZ1KIqHo3S6mF5vJuQw6Z36piysrRlX0y3q1A6xtEUMupJehq/pFgUJW4co7Ikdif2eEeGzh8tqdj7UeC2inbZA6LFQYmYRz5lAMNk9GYkmk8su67h2aivDS9jxcpTJ3SG/6reFUKeTef/+fdeRkxvO2bBeyqejIRz33sRrv4BaDmPspLOuRgtspBWj7IO/SJNjnE0/5TcKg9hIJCzlQ8hm81e8LbiULQOx7khYvNut04kN/3YGYt2RcIz1ITt59TbV1lnAQiXMHDJ3cXFxdXWVPyIs3ZtXFSln+ZnqpxiImRney9Fa9JvmBIy0O3HmWCH9ZlgIBcriwLKe/viQ3Q5fX1+PBgx0mnoDrKazPlF5yzx4uvonXYQ6YYrEdur5Hd+6yHHKDI2Ew8Ng2eMAJ9o6CmBxEnadmZ54f/H9ooGTkPC3334b9f0ACVv49u3bqO8HNoOGGWCjkRDA/BImuhB7vxOQjo6SSRoxA5FwNMUzpiOl31Nwzi6wWQlbVx9syjbD662WGtGGzVNg8d/n5+e0Sy8vL/ENl5eXv/7667dv3xLL3R6Ss2svoE74f25vb+/u7oqfnNogSFi4+sdAYJQ64RjOaI8BCef0cLfbaY/B6VB4V6Z+uwXJQiESFvaw9w6bDMQJcj5euZ9y4VBAJKz3qnVBxP3GVH4JiIQANhcJAZAQICEAEgIkBEBCgIQASAiQEAAJARICICFAQgAkBEgIgIQACQGQECAhABICJARICICEAAkBkBAgIQASAiQEQEKAhABICJAQAAkBEgIgIUBCACQESAiAhAAJAZAQICEAEgIkBEBCgIQASAiQEAAJARICICFAQgAkBEgIgIQACQGQECAhABICJARAQoCEAEgIkBAACQESAiAhQEIAJARICICEAAkBkBAgIQASAiQEQEKAhABICJAQAAkBEgIgIUBCgIRuAUBCgIQA5uN/ArB371dxI2kfgO09E4DJADKACAYiMERgHIFNBOAI6InAZAATAZ4IYCJwZwAZ8NWhzujo49JIddGN5/ljz66XbqnVav30lury8eHhwVEAwN0oAAhCABCEACAIAUAQAoAgBABBCACCEAAEIQAIQgAQhAAgCAFAEAKAIAQAQQgAghAABCEACEIAEIQAIAgBQBACgCAEAEEIAIIQAAQhAAhCABCEACAIAUAQAoAgBABBCACCEAAEIQAIQgAQhAAgCAFAEAKAIAQAQQgAghAABCEACEIAEIQAIAgBQBACgCAEAEEIAIIQAAQhAAhCAAShQwCAIAQAQQgAghAABCEACEIAEIQAIAgBQBACgCAEAEEIAIIQAAQhAAhCABCEACAIAUAQAoAgBABBCACCEAAEIQAIQgAQhAAgCAFAEAKAIAQAQQgAghAABCEACEIAEIQAIAgBQBACgCAEAEEIAIIQAAQhAAjC/2e9Xn/9+vVjH3t7e1dXV84AgHfu48PDwxz3++LiIiRf2ffc39+/vr52TgAIwgnv7sePw2zo9PT07OzM+QEgCCdha2vr/v5+lE1fXl4eHh46UQAE4QhC+IUInMKe7O7u3tzcOF0ABOGAezZUK6g4BHjPpthrNFSBE0zB4Pb2NuyYvqYAKsL3VQi+aKa9bQGYbkX469evuaTgjAIbgHkEYUjBg4ODzDfZ3t5+6Cb8pSwEYCpBeH9/n5OCh4eHMd5+//7d8SXhL+NLModGyEIAQVhA8hiJ4+PjEGaXl5fJmw6vDe/w/fv34XcegCkYv7PMycnJarVKeGHxPU8u725ubnZ3d51MAIJwuPiptNvJWagTKcBMjdw0ul6vJ5U68gxAEA7q4uJiGcfx9vbWyQQgCHv7559/+r4kp2NLvfcfa05wAOYdhAl9TGrXXmo7gHdl5M4yaePoq+7zpDrvALDwinB/fz/hVcXXph/gnQEQhC/79OlT35dcPCq+J8lvmxbnAEzBJFafSGuNDAl6d3dXah92dnbSxnJ80C4KoCLMdHp6mvCq+/v7kKD5jZnhHcL7JKfg+fn56Afw1zPObIA5VYSZBVkUqsNerawhR/OnCd3e3u4+03emq6urkNmZ4zRCbNcefwKgIkwR4iRzaaS4rn10dHT0vCoK/xL+vfmb/BQMuVs7BQ8ODtofKn+04snJScEjAKAiLOzs7OzHjx+zOHBVa8HhV3fKvxEBEIQzjoG+rq+va/QU/fr167hzzpXtfwQgCGccCRvUOGJ7e3uTmtFGP1jg/fjfNHfr58+f4Vo8tUX+4qL2xSM/VMBTm9fNE0RARag6HKJCereNwACCMEWoUQZe5KHeYIPVanVycjKLwz7kEBHeoTjy9clCNH/++ef+I8eHgWqd2an98whl0Iz2//Dw8MkOh/9ZPL+H+WaH36uQ8bU/VLideuC/MzPznuzm5maaJxKzNvsz4OfPn0Wy5O7ubpgdPj4+ztzbT58+9d1o+ICzyMKBd6npIpu8Y+GepsuR756Fm6Piyea63Lq9eKzenMsp/EHBr7XI6dfrSxeE9DKnptE39R2GGC4rmbeoCa1ACctONfJH++U8lRzgcPXdvcyzt9ncm+NGmr+MEfLvv/9eXV29eWROTk5Wq1WTVZtbAp60/Ieavpm97+LioplKsP2Rm73a8ObN37Rf2PxSwun05cuXF7/rIu0WNZ6Cd/nSBz6R0DQ6IX3nLH3zdn70iqcRu9EWkTNSsHbdPOTZ2+tkeG2L7XuUN9sqXjt67W+kVztqfkVY7ydQb34GFSHF/eFWYDDJ84OXvV2NLatpt+qhalnGvXO7ToqlWCjWQwGXPIX6k25c4d3aNVzc3GtHrxmpspi6ZPrdoaHtfw7BYNIGgVS6OL7ntqDmMh17wzYF2Wq1evM7il0cz87O4ty28R9D9dMe87per5sG8Hicm6P9PCGazsM5TZHtOWmfePPjJLxKCiIIGU7ZXgZP3NzcJLwqZMAyUvD6+rppvmuCKpRxm1dBOXj048ePWALGpsX28JLw7zs7O8/vNpq/eZITzVwKCStUN7o0jb7otabRge/2QBC+C2lrBF5eXtbbpbSJe56M95ppCj6vopp/b2LstUp6cyfP9ow87fdvv217c807tHvfzFdy+/+LWT6FxT4RhLAc3SeNS27c6/7C9s403WomONneADYMrv3+/fuQA4gRhCynjuS5UJDFxszt7e0uw/gSsrD96HHDJmITaLsF9fj4uGmN3NvbixVku0AMf9z8e9nDEnsJPZe2SnZCs3mv9vlYNTqZqXU7NusB9fkdtYeZ+2NqX1Da0P6q0+5UOjhNJdFlLoL2IJw3h088/4MuA12aP44R2LZ5SqAn+9/lS3lxzysNqE+o2JYxMwMG1A8q3hqn3a52t7u7m9aRpEaDW3tgddkjmba+RNUTxjjoWev79VX6oTmRWGDTaLxkx3ah8F9qp+CHx458TR+HkLul3jZtWpbVanV0dFT8A6aloIc0FPT582cHgSmY7oD6EHib++8NI4bih7zV2zNnVru6ugr7UOqmNWcRj4FnpAN4pxVhrP+mkIJPCtNYI3bvIN500M9JwUZ8q5yFqOKBTX4HizEBgnCgpBl40cG+Li4uNvTfaz5FUKPPZ9NK3PHN2w3LOQe2SKckAEG4qdxJe2o17j43cbharZqnmMNsfcOsWm1FVjMOKZi/ehTANI3/jHD4deeLx+GyT5G7u7uc2b8ABOGrbm9vC/bJfO5JF0eD0/vK6R8EIAjfECKw1GxS29vbNzc3CVXLMKMSZ8rIKuCdGOcZYZE5FZuJrMJ/SWu7C69qv8nwx6E99/90zom4fqzfBiAIK6ZgzsubyZ/KdmJspqDsu8x9gmZCrPawvPgvVdddevO2oD0ZJoAgrCKnU2WcxbH2enjh/eMUpmXftj3X84b5WS4vL2vEfJcS0ONAQBBWd3JyktZBNBYrQ/bgj7Mh59dGTbD1bXqt3WbbnhtaCQgIwoGsVquEV11fX49VrITt5kwqVqSp88myQWGXEm4IQg16c3OTv/QEgCBMl/ZoMNRD4070HLaeXJPVWHM8VG9dFvp5vsxe2nr0DOP+/v7o6Ohjf2k3lyxVHJPW9yza2tqqcbGak8EWfErYt4Qrfr1VDyd+eJdh4MOb3yacs/Uad3jxcW/+ttr9md9cxHiCl6yBT6TMTxRuUsc9jbvvT0J73iyuPANVhCcnJwmvmk7znYbEhcmcf7zpYZvWNDLAVLSlBunS5dvMubCEsyhhUcb2UnHFZ+Zqv7mm0ZISGnCm1okxbX9q93FllAhMOBnCveCQV5bYPja7+XvfWwQmNDXFE7jqnFzPP2b3JXcEYWFT68qYtj9//fWXS8YyIjC2FyVEYMykUR7mNWuh+PanE4HxiU9CBI64OE9ccmew9BWESzPr+cRFYDsCE9qv4uVjCq2UJtqdTgQmPGeJ91Kjf/wFt7f/4eRm2RGYcy8SrlnJ/aTUYQuLwJyXh7uotG7bcT1Rx19FOG/jjv1QBSanYPIjnA//9TUo8ine7Dh9fn7uu55yFRhnxkhLwYODgyIpGLb+ZBjxE2mjkxdlsmMnptbvNq2zeDMzKoP1es98upw5aCd/rtoR+/G3b+AG2Hq9X0eRY555DF8byjLMoIicIRkJTwHmchl/9YQZZjNpV4dZX6Mn+BEWH4TjRmBmfVZw1Gz+TLnvOQjz+6vn73/OmZwZwG35s3AIwgJBkvZrrCG5hVO2DXP9yozAzQ1HHSXPQHR4eFjjYOY0dr3PIJxCBOZ8cUVO47KpbEB9gadlv379msL4lbAPaZ3urOcw2COc5GeB8fa5yPxzOzs7aZfOy8vLGkcmlpjOkC7iOJOcB3KlmqbDnlxcXKTtQKVpFDOnXJ6F4YIw7VCGcyLt+lJK2Hraebm9vV18KORqtfqYYXmjYnN6McQILPUdHR0dpV28ah8iWdjFFCIweU/iJA+1y5hRli5fYBDGyj3hVev1eqye6GG7Yetpr427HRwcHCTvQPMmUdpMde27iva7pQX8AtSYoTFhzuLBIkoW1pAzzd6G33vaLd0Anzfc2RdfpfWdBmGo3JObvweeIKPg5n79+tVkT8cTvZmOq2o1HArEAbYywQgs/rYJLecDD3v4/v276CobgTXiJ6FdYci7nCUPsZhRx5P2HVClfRvsqd6L/SMK9lpOvlzOsWtuF1XHsSSc0hM/tu+ts8wULj5puz3wWdT3GqXX6CZF7k/DfVnBk3LEqU1///49qTaHzEVhpnn9qnrVmMUNqCBc3ok0yjDlRQbhODPLnJ+f51c/cfKhptWx70Oa8PftB2YjTgq6s7MzqW4scWKURc43P5F24FHmGzLJUdkTaQqP2H2npYw2xVosO8o2r/fqQpnWze/9iD1rljdpeOx/ZLk+MsVH7I6DICzTwlBpEBVFhJo7s6vqNI07nf8oa0HI/kql4YiLEyX3aWdaQfjhv24jM63x29NijTh8Phy900dhf8J/lj2Yq9Vqqd1KS7UAz+LstSJYvTuMnHFWOX78+OH4F6vJpmNG3XM3z2YU0r3q1ns9gi6S0Nvb29PsLBOXicgc7Zu52wmtGpVmwyo1/ds77CwTv5HMS1Dmbodf2cQv4H2vbHqNDtdDd8q3DmU/S7zoj3VgM7deda7RKGeKqWZ89CI7jibUuO9wrtEinU5zPlTC9FsD9/GuessuCF+Wv6JNQXFdsYFv9zIvTKXKl8Gu3UX2Z7BSOzODhymy0/bNMkyZfReGvKMKuzrZ0U0JP6hwpY3Pd6Lw3wdoPpnH8ghjTXNX9lKV/CnyM7hgWkw/CMdq4Jpmg3NalSwI82+q0mq1tDmZB8jCqneWT1pcY/6F1z7v8VBpqZZZrhNU9QlcvQbA6aRgzv7MIgjzr2IJp0HyrAhTu3gJwoJ34QnVTFrTUb2bqpxOBm8GYTOTSZcD1TzcyXyQsZAgfLEdI63n3pBTMwx2U1m1jbTqESseIZlT9vSduii5+2jxLzpzRR5BWPZ4DnYHU3B55/y7yTeD8MW/efOWtCmaBeHL+j5THHjh3wU8k6t90Codn5xfct97z5wnwUXuc4tMFigIi59IfSfyzdlWfvthqadRG4LwtXvNJ9/Ii19QU6SWOmHGH0f4TowyhtoHaX4tyT1m45Kt3SfwC1eQ5LowbithysD2QpXGC1Y9kZIfP8fvqNe2kvezmT9ya2ur1wDHZn6u2kOH4+n96VHaLWN8YcLyZy8ShANJuzhOcOaImU59ENsek8u1eIHofhecP2ym15SBi5z9Z5pi22Pyy2M4dc/CzP4Q4a4oRFr3E6lUrrwpznP07du3DQeqWQvvxQMeX1tqviRBOGlVZ28Kt6gJr/r8+fN8j2co13Ke/HdfZrn4VLpMrTRMfvwc6/6OV/DYHXSphcGGmXGaFYpe+/jxtaXuywXhpIXfTL17tLQyYu5LvMbncMk32nGZ5Y7Njw+jTrxHVbETR849bvc2hvxuX9MMwg+vP2o5Pz+Ph/fFeRCbVwnC+UkbIXR0dFQjC9OmnB5x1cayMm+0tx51z91x4/BhtnP5zqI0zGkG7z7bbczdEeMwnsllD134z4ODgw1HIH7kuBJO+w4+NswU3B9BOMJNUEIWdn+u8Kac5WMWVt+EH1K48Uwu1rsvStd0Bx0ykJpuin56VcVm8OR7xF7rnTVjCYb8gHGEX43ffux8FI9AE4dPPmD7I8dr12q1it1iC++K4RMTH0Tx/HqaJnO+leJDlAbr9V57sNTw38UGL45J6BvAhk8MPPA8+dedM1xnsxen8khoBuvyKZ5X1eFohJPw+e1FpclLP876hjHUyGk9Pl48C8OXUe+salcS+eVdOEW6N7SenZ3lL9fSa4vJ+o7NKFhgrR8lv3z7Udprr66uMpeJDvcom5P19va217CK8HNIGELe9+vLOWiTPZEyxxfl7Enm9bDLNbDvpwtnUUKtHM7VpjNR2jv0Nb8gDNVxx/aozLuheqFYJAtfO+dqjPMbJgV5M8DS8gmeXBaGSZcZmU0QHhwcjDKU++7urtIZM+IK6b1cXl7WXl4RQBAOXTz1dXx8XKO/1t7eXqkBoZXoagEs3nR7ja7X616zMFQV+zVlPsh5LnbHmubxz5xBA0BFmLdbE242DOlV/DnNRArfquUvgIqwk5xRbsPY29srHlpNz+lxn2DHClUKAipChWAn9Q7der2uPft72+np6dnZmR8DoCJcQgqGiirOnrVhNdpSVVe92G4vNl1p5HU4CM1KYFIQEISzT8FmuoFwcd/c1z/8v00A5I+NG6CEfTKfS/Kc1/v7++2pIuoNCwGYl0k0jebESZH9z9mBWFo5kwBUhImSl1aIVWCRfcipDtuzAQGgIhyoGqu028mloSF3ACrCxHIqrRastD85S4sBIAh7S1sVod6ibskj5UeZBxWA2QdhwtO12kubpr2/IAQQhAAgCHtKWPOvdu2V9v6161QAlhmE3759S3hVveEKye8sCAFmyvCJAjvzwfAJABVhstPT07TEKttGGmrB5BQ0swyAinCcOuzDBKZY293dNfoQQEWYJSfMPj5Ke7YXq8DMibOlIIAgHDkLPzwulhsjbWtra3Mohv83/E384/CqcXcbgNFZmFcKAqgIRUtPx8fHUhBgGf6YYJl1dXV1dHSkEATg3VWE0eHhYQib5Pmv67m5uZGCAAvzceJX9r29vSkse/v79++E2eAAEIRlrNfrnZ2d4bdrjCDA4s1j9YlQjT08GiaW9vf3h9wcAIKwR4n28J+y69THjqA13hmAKfu4pN4f6/X64uLi77//3vxYMWTely9frBcBwNKCEAD6skI9AIIQAAQhAAhCABCEACAIAUAQAoAgBABBCACCEAAEIQAIQgAQhAAgCAFAEAKAIAQAQQgAghAABCEACEIAEIQAIAgBQBACgCAEAEEIAIIQAAQhAAhCABCEACAIAUAQAoAgBABBCACCEAAEIQAIQgAQhAAgCAFAEAKAIAQAQQgAghAABCEACEIAEIQAIAgBQBACgCAEAEEIAIIQAAQhAAhCAAQhAAhCABCEACAIAUAQAoAgBABBCACCEAAEIQAIQgAQhAAgCAFAEAKAIAQAQQgAghAABCEACEIAEIQAIAgBQBACgCAEAEEIAIIQAAQhAAhCABCEACAIAUAQAoAgBABBCACCEAAEIQAIQgAQhABQ3P8JwN7dXzWOpH0DhjkTAEQwkAFEgImgIQKaCAYigI4AOgLcEcBEAB1BsxHARsBk0G8d9Lw6XgPGrg+pJF/XH3v29CBblmX9dJfqY/P379+OAgAqQgAQhAAgCAFAEAKAIAQAQQgAghAABCEACEIAEIQAIAgBQBACgCAEAEEIAIIQAAQhAAhCABCEACAIAUAQAoAgBABBCACCEAAEIQAIQgAQhAAgCAFAEAKAIAQAQQgAghAABCEACEIAEIQAIAgBQBACgCAEAEEIAIIQAAQhAAhCABCEACAIAUAQAoAgBABBCACCEAAEIQAIQgAQhAAIQocAAEEIAIIQAAQhAAhCABCEACAIAUAQAoAgBABBCACCEAAEIQAIQgAQhAAgCAFAEAKAIAQAQQgAghAABCEACEIAEIQAIAgBQBACgCAEAEEIAIIQAAQhAAhCABCEACAIAUAQAoAgBABBCACCEAAEIQAIQgAQhAAgCAFAEAKAIAQAQQgAghAABCEACEIAEIQAIAgBQBACgCAEAEEIAIIQAAQhAIIQAAQhAAhCABCEACAIAUAQAoAgBABBCACCEAAEIQAIQgAQhAAgCAFAEAKAIAQAQQgAghAABCEACEIAEIQAIAgBQBACgCAEAEEIAIIQAAQhAAhCABCEACAIAUAQAoAgBABBCACCEAAEIQAIQgAQhAAgCAFAEAKAIAQAQQgAghAABCEACEIAEIQAIAgBQBACgCAEAEEIAIIQAAQhAAhCABCEAAhCABCEACAIAUAQAoAgBABBCACCEAAEIQAIQgAQhAAgCAFAEAKAIAQAQQgAghAABCEACEIAEIQAIAgBQBACgCAEgBr9OcpP9fBq7h8nk8ne3t7W1pZvHYDW5u/fv0fwMabT6bdv356fn5ff5Ozs7OLiQi4CCMIBB+H19fX5+Xnii4Qy8f7+XiICCMIh2d/ff3x8zPuat7e3R0dHzgkAQVi13d3dlZpAVxWqw8lk4swAWBND6jV6eXm5ublZNAWDw8PD8C7ODIA1MZheox2HU3i7s7Ozq6srpwjAuA2gafTh4SFUab289dbW1svLi7MEYMRqbxo9PT3tKwWDf//9N5SG4X+dKAAqwh6U6Boa5+npaWdnx+kCoCJcxxTceO2qWs/OADD+IDw9Pa0teEIwayMFGJ8am0an02kIwjqP1zhmpAOg3iAMVdf29nbNh0wWAoxJdU2jlafgxmsbqfMGQBCub8Y8vnLqAIxDRU2jz8/Pu7u7QzlwGkgBVISZDSgFN177tTp7AARhNm8XlI+2s7Nzc3Pz+43wjxkHxU+nU2cPwAjU0jSaZU7tEHVfv35dJsOy1HOTyeT+/t45BKAiTJW+stLFxUVI9GVSMAh/Fv44bFJPFQvAWleE29vbKZO2vLy8bG1tRWyYPmYxpOnl5aXTCEAQpu1EQrto+v4ntsrqPgowaP03jV5fX/cbQpIMQBD26fz8PG7DjEvmpryUcRQAgrAHZ2dncc8F3xVeKrxg3LbGUQAMWs/PCKO7q5TY7eiHhRpXAVSEkeIeEN7c3JTYmeiXtU4hgIowUtwy9OX2Oa4oNIgCQEUYKSIFMz4afCtuDrafP386kwAEYUeurq7KvXjcdDOmmAEYrp6bRiOaIkvvcFzrqP4yACpCABCEACAIAUAQAoAgBABBmFfRuT1NHAqwboY3fGJrayvjuhNz4pYInkwm9/f3TiYAFeHKQoSsuknRiT3jXvzg4MCZBCAIY5ycnERsVagBM/plv3796kwCGKjN3qdEqWcmF8swAagIByN6XfvOXhAAFeFSdnd3n5+fIzZ8eXnJtRJF9PrAwdHR0e3trTMJQBBGenx83N/fj9s2185HN4oGT09PcYs3ASAIM+RQ+v6nvPtGHQ8I59aB2nnl5AZYxp817MTR0dHd3V10jEW3kaa0iLZ73v3hur6+/v79+/LtyRcXF5eXl851gHorwvSy7OzsbNUFe8/Pz0OiJO52l0fv9PQ0cdzI3t7e/f19rgerAONQS6/RxKa8EGkhSpcMtpX+eIFuEuXx8XHzVfroyfBSoQLO8lIAgjCzp6en9BcJRV64yodr/bshF/6xiYFcIyWy7POnERjdk2hxcZnlVgBgBDbrGQx+eHg41+mjZkWnPN2InfU0Ls71rAFUhFUY1rzV5VLw8vIylGvdpODG6zjOEkUnwFD8WdXehCwMdWH9R63c5KKdFYKzmjbYjBMUAAzIZm3zZIbqJFyXKz9qhQ5aYtfZdL9+/drb2/OrANZKdXONhmvxGqZgqAJ7T8HmLkSHUkAQjrbeyqLEg8z0cf0ZpY9WBBCEGRTtkBnt69evESsJDygFZSGwhjarLb9qS4iQgjc3N/m/gApaRN/leSEgCGXh+qZgw4LDwDqoemHera2tGq7FFxcXJVKw/oEilec0wPiDsK1Lehzf9uvXrxJLNzw+Pg5iGp1c09EB1HvTP5Tmr+vr644vykUnURtQsWWgPeU8Pz/f3d395z//aZYVCzeIe3t74Xz78uVLuWkrYKhB2Ohs4pWrq6uzs7NCLz6sbpmlZ1Vl3YS0Oz4+Xn5BzYhF1mA1v4em9JoPk8mk9EfIm1IXFxfhmMy+/s3NTd4On79+/ergm40Yo5n+pre3t7/pSuJC1iERl3mXVcc4hV+Qr2bN/Tm45N7Z2Qn7/fDwkL2zSfj9dDDxd67dDlfwjy4rX1817U77+/vpNXR4kVH2IA1HJpQmn3608Gdz0/4tf6kNX3e4KVm1oJlOpz9+/GifIodvM7zC2wbq9g8+2p/2D5r2xrf/vuC3UGEryPX19ZcvX7LvG2ys+T1mI5RQne1wlgjsvoaeKzrHURE22fDpR1uwY59uu+p+Ll4SK+zJu+fSpyfbRxt2cFnI264+90FUhGTxx9CDvE2FiEd67badPZZP7IDajCdZNfubGjrxPnqUSzU1tfLu7m70K4RtFxQ6oQxqK7xlnpxtbm4ufnL27du3YR3h8MFrmzgJ3vpzNJ/k6upq1SXXs1STK0m5kO3t7aXMSB5upUMMR+9A94tDlTabf+HTLdkzNlQP4X9//PjRJlZIu49upNr8W/A3bQrO3mqEe5ebm5vm3iW8UfjWCvWuaj5OuRRsbwVA02ilrY717+FcLZgupfYNtxpjahp9WzQvs2PvvkK4o3q71VzGLG5Enf3Ll5eXj54CzPXkSm8aLfdt3t7elrheaRpF0+iwpdwd53rQktKhdEyD6+e6LC3flf/dL+Xu7u7T6n9BA+xs4+GC6SNuXw2lzfn4+NhPnqEQhN2Jbt3K292g/hUfOzDbnTL6NmVBa+ry3/W/r5b8oocys4HngghCcppMJtkvf9GjROIqp2pL83Bg29uCiNuUBc9N27cIh7ptjn63KGxr052dnXHM4GMNLwbnT4egG9GdTUoMbYzuQRqucSVmXu3rSj03sOT6+nqlvsdtsM31upodpTd51bzju7cR7QjFlC86enDqR1P9pTzP1kGG4dFZphtx3fMWd+JIETdnVa4+Oz12lpldSKT5l9m24k93LPz/cOjmku+j87Adn9qODgzV4Ud/XPSE72wcYemJn3SWQWeZAfv582fEVuU6R8TNpDqCQRRtvdLm32zvoU+nXAm11/n5+WzvmLklumbLvrZRNKUBdlj0kWGIBGFH4hZdskZ8uW9h9ti29fGqbYwh4eZGpLTDAWf/ffbh36qjXVMq43IbfmRuLjoQhFRtDedsbHNuroybrY8XV70Xr9oGurd3Ku3mc2/RFveWeARBSC0ODg7W6vPONlqenp5u/q/2Py2ece3y1Uf3ELPbzr3+bJvhbGHaFosj6GPy7njKJe/J3lalodrWIoIgXHelrwLrttzuknOKpjwHXXJ4yWwDbFs4juDx4Y8fPyK2un/17vnfrP81V1uDIFwjpYNq8UIHI7NSvMWNRlhpq3Z/ZjugfjoOvfLOShEVYTO8ZPHfNF1tO1giDUFIdeL61yxvrfo1tOXggoWX267/cUe+3WrBtKLtzcfsFNttn9KQcwuy8Pz8fHx9MpePt+aLsxghgpCc4kZ0DL0iXHDlnS2RV503YPYJ34JSu83a2UbUvb29dphp2M/Nzc2554XT6TT8Y4nupg8f8OtgvRhQX/O6E2u1S+UG1LdPWz+dEODtcPsFq08ss87Dgr+cq02XeRKWffWJvN/yql/fguo8hQH1rNeA+nD7PNv9b9XNm60ODw87mEIzrklnfKsA9qJtBP503pPZwX/L916ZrdU+/aLbWJ0rvMJbfzrp9snJyZi+l7///tvJSQ0GOddoyK3j4+Ncj7jC9ah5gBTqhnCRKtRF5eDgIKLFKXzMQn0Eonu6D0447G3D4zJfbqjMmhuj9vZoZ2dn8Qx54X6l+YNlbnfC37SvFs7h2b7BTcG68fo4cC5cr66u3vYi/nTevvYP5lpri67Hu7zuV8aGMTSNdvMDbqeIzCh68aOq2kXfTpU53IV5GeuzCU2jjLZptGkCnVvstOh75V1mIXpQYInVHqJbXEfWNAewMYheoyEJQix1P9w4hG5439570JXI/uh1U3VeB8an6meEz8/PS84GUs7h4eHW1lb6GvEp/XFCbmVcpN5clwDDqAhDAvWego1maFfKKK7dVyk7kGsiysfHx+gPMrfMAoAgLBs8tY3qDYVURIti066bPjxj+io9BWcnNFmVKR8BQdiFkH/RT7C6Segle5qE8MvbuycUhSkzbN3d3aWkIIAg7EK41sfNd9ylkNOfDmEMf1OiXTeEWcS8ARuvM1smTlOpHAQEYXHhSj2UlWhCrny0q+fn58tXjXGa2XCW/OOmbTZ98gEPCAFBWDxahjXXSShe57Lw4eGh0MzIbzXvteDtwr6FqjRX26xyEBixKoZPhFAZ4pJAYbe3traaaaJC6vQyL+j5q9LvohwEVIQFhZpmuGtzH78q3Rbar+jJ4QAE4edCITj08d3jnr16Z2cnenI4AEH4OR36K/fpukUAQ9fnM8Ki4wW3trZmS5lQelrbb1UaRQFBWNDl5WXeZArJd3V1tUy3jul0en5+LhcXu7i40CgKrIPemkYzTrnSLCf28vKyZOfGZinwzlY3HKIQgSWWfwIQhP8nV6Nos4Ju9CU7bBg273eQXChkaxulF1JQoyggCAt6fn5Ob5acTCYhw7KMb2tWXe9lpb37+/umkK0nC6UgIAiLS5+EM1ypQ4Rkz6QuA6Bpzm3TN2RhDfFTyW4AdKnrzjLpiyuF/ChXDIUXj5vVOr3kCv8eqsMeV964vb1tZskBEIQFJS4uUS4FZ9+iXBaGqNva2vrov4b/FN49VMzp6xdWeGAB6tRp02jio8HOLtYl3uj+/j687IIUbD09PWVv+F3g7OxMCgKCcADlYMcX64xvF9EZJ2NXoAV2dnbCu1xdXfkZAIKwI9FLTLy8vHR/aNLftEma6B6hzeCQEnHY7Jjp0wA6DcLoFDw7O1umRTG78KbhraM3f3qVvhtNHOYaX9E0hIpAgB6C8Pj4OG7DHtvuUt467xRuTftqk4ihnlt182a0hoZQgLe66zUa1xOy99ol7EDcwMfT09MSY/K+vmqz9uHhIZTaP3/+nP2bvb29v/766+joKCIy6V34Tv/555/wtb4daxS+0MlkcnJy0sv8DwzLdDoNJ1I4i97elIfz5+DgIFwizCf8f353pfLdy77nlez8gET0lR3NZw+FfkT7f7iKhRu1ej5FJV/fqncJbXvJCMQ9zWkbnNZWR02jcdOBVjLLiclWxipUXZtpwk13YjPJ9vZ2eJ3T09OItvSw/7u7u2HzT39fq36uZd49bquUvQrSZ+QoIXx9iSdS4pOUcB42r3N9fZ2y+eLDG/5riRNpjSrCuDa64d7qNpqxg9RZEabf3zT9mOKUaPNvekJ1Vqv1cr1a5jfVcUWY3q+7WQwnTokldD46yCNus+moIox4QFh6FF0HO/P9+3dVV7W14P7+fmIKRp+ioQpMn3H3rVANhHvw6O7ZxNWCia0Ci2eb+rQ9I+N6dq3Dw8MhFXM5/FHtnlXVvzFuZ+7u7lwpRpmCoZqMS8Emq4ouCr3/yrc8iBRccrapXr7lZZrcR+PPavesl7GDg9gZek/BuL52oRAsGoFztUJ0qUFnKRixVTiFOpuaP5Sb379/72U+kxFWhN1PIQ21pWDpQvDd3NVMOrIUDF9oxwvUhJN2HZpJKw3CCodJGbklBeNSsMdLSfi8iddr6knB8KZ9NXp3fxs3wiCM6PF8cHBQ25GqcJfoMgVfXl7iUrDHNSazXLWpJAXDW/f4wTtr2B9tEI6j/FIRrnkKxj1v6zcF22u3c2DQKRhO4Bq+xOhpMgUhrG8KrlsfdCm4QLPsdsSGoQ7TDbi0Px2CJZm3cz1TMHrkeA21IPWkYHTfSyeSirAi+r5KweVdXl6Ou3OBFJSCgrA4FxGGm4IbrwOwfAVSMDEFr6+vXQnHE4QRjYoVjn+qc7ZfKkzBXI8Gj46OFs9C+evXL324ak7Bvb29lNHo5+fnWT7Fp5Op3t7ervvcC3VOphyys7ZZWYc+b/j6TLqdPpt24oJK6b/KVadrDxey7i8LvVyvupx0O3G645CC3V9w3hajHaziNIILYEc7OoIjOO7zYDRB2G8KpsdDykoIGRcisB5hvymYPqtZ+CFEv3vG1XqtPgHr1SK6EbvuZitc/lJeIWy7DtNCDqJFNPGGLGVxkmacRkqYhZ2PuCsdtHqDsKqlG+J2JuONFaVTMHqY16yUPjLRCxFk/xRrLnFeulBKJqbgv6+iMzjLzVCoqtfqpqreIKxqOoy4nfny5YvLylBSMP1nn3Lrlje9ZGFKCqb01AspmP6QOPpMTq9Es/8oBOH/ODo6irgtqucwxe1M9ifPVJuCGwkTUJXILVk40BTciB2yHE7jjClY7jXXOgj//vvv4RaF0bthNbgOJE7J3/ttb7kLzdPTk9OjsxQMd71ZUjC6VbbQaRyqzMR+Q8Og12W5foA6gpbuNZp46Uns2pfe7zzjDmTpP5l46lbyA4noNZr4OD+ch/1ebVYdb+Ma2M/wiehDGc7pfg9QRKNu4+rqqtxe3d7eLvNrDz/vorvRexBWkoI13+cJwtIypmDc99X0kCoqunVBEGYbqrnqmNCMUlobSpyLKb/wnZ2dEJ+CsFApFrEPKUMGSw8uFIS9pGBcO3k3V0hBuL71deKPJNeVLm+nm96L7N6DMHsKxt0v13waC8Iln+/W0P7UzVlU+Um+FkHYy7U7188p5ddS7jF1B80pdQZhOKQ1tHaUfjo4K+IBmCDsPgXjrpClnw72ckc18iBM6dqQtwmi6K5mSZ2M02UNpTrsIAhLpGDcBaLLBv+Ie3lB2H0K1p80EQWrIMzf2NhZFuZNwVVTp/ve/F3eVPYYhIVScBB3yoKw/hSMOIAdt+tEXJoEYZG2vg6ysFAKLvkRuikE+22p6yUIz87O1rnJSBDmUq6Uj4iZ7vuEC8IqisKi9/W/Sz6Tm/P09JTlWU5eIw7Cqk7poqmc5cQWhN1XYLmWIROEEXqYazR6ZF5jOp1ub2+X2LHwsimT7a5k99Xsv2xubva+HHHYh7GuiF3onInT/SS0JycnGyQLv45y010NYunvsS4k0EMQpi8iGk7HcMlOXPJmVnip7jPg+fk5vGnzu8q1pnmWwBhlFoYPdXh4WOiVV92k+2XlLWSfS7hXLnTD+vPnz/o//lhPpH5Wn7i6ukp/kW/fvoX8SKzhwubhRVJWz0n/XdWTguPOwnDHXaLi772Op2OJa14O2l9//SUIs8k4QjxUVCFIIib+D5u0BRlvs3CUnyt83WNt+6VLtd28dkbTaGa/sy4Tc3d3t/lqd3f38vLy3XVMwj+G/xT+oPnLqhb+9VOX8TiRWLsg3MjUQPo27b59+9am3azwj+E/xa31tZ7G2gTkEka6oh1nWKMgPDs7G2uhPQ6Pj4+jrJvLdZxhrUyn00F09aTqINwouSopWUSvul65jB1ndnZ2nCdrK9xRrdVT57EG/x+970Heh4UdawbYdryQXsfG2kCaq+NMRBB23z6vi1A5uVraDw4O6v+w//3vfwWhLJzXzIrUTCKad7GklRwdHV1cXIQ8Dv8bdiPEc8YXf3x8NMo+r+4bnHUNq/9EGsRzotGeSJXMcNP9TNOFDl1nDWXhjT6d9jDXjHHdzO0bXVgnfszu553qftGPVcdBr+EUa1uvos+i9KkfI54TdT9d/kDzpca5RstNQ9qZxcEQt4LlShG40lHNUqpWG4TNtimXsPQJx+u/Ae1m94YbhO0vOuU3kh5LEU1BgnCoc40OvY00XDcX169NUJUYHLLx2r1o1aBtpqhPfN86nxS2nyulReHx8bGzOWap8762PX9STqTuO8503FA54kmU/qhth2pYhGFxqCzZgtGsMJB3ar6Ug5NYNtX/G0i5hCV2nImYR77LS5gHhIv9/fffs6GYcgs77iGqYx43WWehWnpRwOhLbY+PP7Mc2JQsvL29ra1pNO9p00ujbgcivvS1ahq9uLjIuCBaygP1iPd9u/NVPbryjLDnq3Ze6b0bEodY1PAgtnSXmSzrsSWW4KO8RnS2b6MJwsRHCdGP7uJW5qm5OIl7o3AAJ6/C/+lgMfbag7CS0jDXmtTRnRuzl2J1th/kWpg05buO7jjTy91VuS6UgjDxRIr+zUa8Vzd9R0tfMT691BdNxGGUrp0tHF/00NdTh0X3I811T1A0CBMvYU3folXFLTc9guvXiIMwcd6ruB9LnU+4oguSiIdH4YoXvpGbV+H/zLULFroEDaYNt+M4LHH3UVX2xO1M0QcSGYMwcQRL2HzVnY97Ely6tTn64YIgzHLN6ewqV/pJYbkjMHu3seCqO5vEYZO1DsKUZvTllTjKFd7rxf3eVh3C2FcQBuHS0PElrMsCdBkpvR8FYfrNRPSNTm2tNSmThCyZgkseqHZPsl+lhxeEWX7nXV6PUtoWyjaLV9YIkzcIfyfP8tNZi0VEAVqoQhWE2VvaI54EV/UIv+gNZcSD+bZjrSB8px0s7qFXOEc7m6Ooyz4LgjDLJSyi40zvHbKypKAgzHs8V72dTWn0quH2fcn9ab+mxafQ29vEEn3NxhCEtf0OMzawrNUulQjCxCxc9dFLSg2aKwuzjFsVhHkjYdUvt/vvrkQKLt6Zd49MG3KzX+Lc37RneMZzprqZZcaqwgUc+uqL27GUEZzfvn1baUqdlE4629vb6TO9XV9fj3tykx5/LCmj7Ff9UlIaJDc3N9OvNvv7+0XnkQknavt08N3fbNNW1xyHufkd203aF8lARVjnvm2U71IY92MbXEX4O3ZsQ9xHTnwwmfKlZ5yAQkWYvVBb9ZtNT+64o5d3sfTFn+5to/FHjaUfVasqwvErPedq3nlQa3Z7e5sSEuEWu5uisGk5CG93eHi40ia7u7tZ6gA+vaynfLMrfa2Jc1FNp9NwSlxeXi6/yd3dXdiky+n1P22Uenh4eLdqzN6aJQjr1ZwEw339qiQ+OVvp6pDY0a75ajZfnZ6eftQ2Gy5bYa/C32xvb3e/5P3aSrnRCV/r8q3f4T41vcT/9u1bcyKFRHz3Pin8Y9OcHv7m+Pi4nktfcH5+3tw65C1SNY0OrGm09B7WNhlKuabRLL1IVuo4M4LSR9NooREFK3WcGeuJ9NF/ffsKH/W5zXsKqQg7Us8E4rMlxbp9BSkd4VbqODOCSxgfCdVVypPglTrOlJ4/pOarZTN+qZs+fYKwIzUvsrg+Evv+rdRAmviMh5olPgle/qlzsw7Duh3epvEm3Hfm7BcqCGvw5cuXiK3Oz88L7c/adqxIfN6w/CUsXL/WZIDKekos+pe/qQp3VBW2JyVqSuoF17fmViP8wbvPv5tOQIk9tOe/Ts8IOxD9gKrQ/sSdQ0VXDir9jDDXo5eVJlwdaEuAZ4SFzthZK804M9zbhcWz5yx48tc+i/3oaGRcn05F2JHoe7pCfTvj+hmenJyoC8OhW75SD2/UexZqli+kWTk2evPT09PlG2ZqyMKMLRztcVtwfWufxc41w7SbJI4PVhH289nr+Y6imxSKHp8uK8LfCYsytglXuoNurotXZz+NdasIs8xj0NecCREnfKH1YZYZUD878W+Wb23+1BWEnYm+GkZPEpF95ogxBWHHl7C8i6Us/3ipy5/GegZheq220nv1Ut8X+oVGHIFCJ4+m0e5EXwqn0+lKM14uFj1zxPha2BJHFq4040woQLNMh73SNWgNOxwO8URa6ScZbmS7vKlqSrFyp2j7U/q0lbiZdKlQQ7Eg7E5KH6fwU8nSz3Ola/ecUQ5pSryErTQmrJltsoP7iRC6BjJ2KXGI6qrjBDr7fkMJWHpWl/aDhJ/S7u7uR1e58J/a31qJG0pB2KmUZ0XhPEisC1NScCNvZ+WaLmEpAR9+t6tO0h+uLOVKwyZre2mGXXOJQ1Q/GiewOEKyrJT0rqZ/eDctCu3dYTgCzWRvzXS7web/1xycpsN2kQelI3g0mHI2hGTKuyZq6ccJcc8L04u5vM8pK3lGGP1U6W22Rbxp4qDstxasdN/Nga3k4tP9M8JeHhYWevy8YD3qor/QcB1ecCcR/lPRC/XmcJtQwj1CrgbD5kJf7vZqrrBL3+dwRi75a2+WJkh/xw7Ok7CTq5a8Ge9YE4eppOzJ8fFxynR34a0/vUKt+uniPk4377JMS+NKJ/zOq6GfSOF6GEqolOnXz87OFmdqZ7/Q2WPY0XPuIZaA5SavKjpgPHFk/bsnbqFCufvDQnNrv3yzT7h1W1ACsrbCWbHS0KC84xAGamAVYbgl6WAB7qOjo6IdQ7IUhe/G1ar3wvWUgyxTXugFSpa2FifSnCEFYSj8u1xCr+icIIn9Vrr0aYMJgCAcSSH4bo1VqBk28bFQl5SDgCDs2fX1dblFGHpMgkEUhS8vL+Ob+R5g1p+V79/+/n7GSVWiE6tEFoaM6aXMXd7Z2ZkUBFSE656CRWuju7u74+PjOg9++LAdTwkGIAj/R6GulSlKHKvT09PpdFrh8fdoEBCEasGO4qHCDysFgfVR41yjoUiqMwU3VpxkeUk1rN0qBQFBWIsQgXU2FTb+/fffEk/1QhZmXP1ZCgIsr7qm0UEMKnh6eiqxFEO4A1h1KYOMQlVaeskVAEH4iQo7yHRcOfU1dcDV1dVK8xMCjEZFTaMPDw9DScGN1/XDSrxss55cxzMBhneUgoCKsIJdyd0oOhsnJSYpLXrouikNb25uKnk2CbDuFeHl5WWW15ldP/Z+RvuPGa/7RZ/nNaVh9rVbW83aK1IQoJaKML0cXOkpV675S7s5eqE63N/fT1lyc9bt7e3R0ZFTH6CiijDEUnrxtNJTrmZJ2/Qp0xL3fPkP2CzBGkrb6N6q4UahqYmlIEB1FWFKOfj169eUpdjTZzjr6wA+PDz8888/d3d3H1WKk8nk5ORE4ydA7UGY0iskMQWzZKER6ACD1n/TaHSXk1DxpKfgxmvPyZThCj0OgQdgDBVhdLto3j1PaZ5VFAKoCLuWfak8a+8BCMIe3N3dRWy1s7OTfY3c8ILRHTJzDWwAYO2C8Pv37xFbFZobOvpla14uA4DFen5GGPdkrtw+x+3PZDK5v793MgGoCLtQdGBc3IuXmMgUABXh+4qu5/74+Li/v19VkQqAIOw0cmprrQWgqD8cAgAEIQAIQgAQhAAgCKv2+Pg40BcHQBBmEDcZTQ0vDkCFzCyTYX/MLAOgIowUNzT+33//reogHhwcOJMABGGMk5OTiK3iJn/51O7ubtyGZ2dnziSAgRrqwrwvLy95V2IKVeb29nbctqaVARCEXQfhhhXqAcih/16j0cvhHh8f59qHlJe6urpyGgGoCOPd3d1F59DNzU36qkzT6fT09FQ5CCAI+9uJhGbJEIQhDqM3Pz8/v76+Ttl5QQggCFMdHh6mrG27s7Pz9PQUseHu7u7z83PKnt/f308mE6cRwHBVMbNM4mj0EGahppxOp8tvEv44bJKYghuvQ+mdQwCCMIP0sRCnp6ch287Pzxf/WfiD8GcpDwVbKU2yAFRis55HXClPCj8q15o5X37+/JnS9PoRTwcBBGFOiU8KO/br16+4+eEAEITdFYWFbG1tvby8OHsARqCuZZiGsoaDFAQQhEVMJpP62xt//frlvAEQhGsaM1+/fvVoEGBMNuvs+ljnw8IQgcpBAEHYhZRFkQrRQQZglP6oc7dqSx0pCCAI1zd79vb2pCCAIOwnC3tvuf369avnggCCsE8hC/vqqBki0ISiAIKwfyGQOh5rv7Oz02MAAyAI500mk5BM3Sx79PTKyQEgCKsT6sIQh6FcK/T6Nzc3RV8fgNpsDnctoePj47u7u1yvZjUJABXhwNze3oYUTwywq6ur36+kIICKcPBCgfjjx4/FZWKzWu/Z2dnW1pavH4BNy6wDsM7+cAgAEIQAIAgBQBACgCAEAEEIAIIQAAQhAAhCABCEACAIAUAQAoAgBABBCACCEAAEIQAIQgAQhAAgCAFAEAKAIAQAQQgAghAABCEACEIAEIQAIAgBQBACgCAEAEEIAIIQAAQhAAhCABCEACAIAUAQAoAgBABBCACCEAAEIQAIQgAQhAAgCAFAEAKAIAQAQQgAghAABCEACEIAEIQAIAgBQBACIAgBQBACgCAEAEEIAIIQAAQhAAhCABCEACAIAUAQAoAgBABBCACCEAAEIQAIQgAQhAAgCAFAEAKAIAQAQQgAghAABCEACEIAEIQAIAgBQBACgCAEAEEIAIIQAAQhAAhCABCEACAIAUAQAoAgBABBCACCEAAEIQAIQgAQhAAgCAFAEAKAIAQAQQgAghAABCEACEIAEIQAIAgBQBACgCAEAEEIgCAEAEEIAIIQAAQhAAhCABCEACAIAUAQAoAgBABBCACCEAAEIQAIQgAQhAAgCAFAEAKAIAQAQQgAghAABCEACEIAEIQAIAgBQBACgCAEAEEIAIIQAAQhAAhCABCEACAIAUAQAoAgBABBCACCEAAEIQAIQgAQhAAgCAFAEAKAIAQAQQgAghAABCEACEIAEIQAIAgBQBACgCAEAEEIAIIQAEEIAIIQAAQhAAhCABCEACAIAUAQAoAgBABBCACCEAAEIQAIQgAQhAAgCAFAEAKAIAQAQQgAghAABCEACEIAqNn/E6C9ez1LJFvbANzua/8fjWAggsYIlAgaIlAiECJAI5COQDsC6QjUCKQjgIlAJwK/d1h787lFbUVYdeC+f3j19NhU1aIO66l12nl8fFQKAAAAW8ibUQAAAIEQAAAAgRAAAACBEAAAAIEQAAAAgRAAAACBEAAAAIEQAAAAgRAAAACBEAAAAIEQAAAAgRAAAACBEAAAAIEQAAAAgRAAAACBEAAAAIEQAAAAgRAAAACBEAAAAIEQAAAAgRAAAACBEAAAAIEQAAAAgRAAAEAgBAAAQCAEAABAIAQAAEAgBAAAQCAEAABAIAQAAEAgBAAAQCAEAABAIAQAAEAgBAAAQCAEAABAIAQAAEAgBAAAQCAEAABAIAQAAEAgBAAAQCAEAABAIAQAAEAgBAAAQCAEAABAIAQAAEAgBAAAQCAEAAAQCBUBAACAQAgAAIBACAAAgEAIAACAQAgAAIBACAAAgEAIAACAQAgAAIBACAAAgEAIAACAQAgAAIBACAAAgEAIAACAQAgAAIBACAAAgEAIAACAQAgAAIBACAAAgEAIAACAQAgAAIBACAAAgEAIAACAQAgAAIBACAAAIBACAAAgEAIAACAQAgAAIBACAAAgEAIAACAQAgAAIBACAAAgEAIAACAQAgAAIBACAAAgEAIAACAQAgAAIBACAAAgEAIAACAQAgAAIBACAAAgEAIAACAQAgAAIBACAAAgEAIAACAQAgAAIBACAAAgEAIAAAiEAAAACIQAAAAIhAAAAAiEAAAACIQAAAAIhAAAAAiEAAAACIQAAAAIhAAAAAiEAAAACIQAAAAIhAAAAAiEAAAACIQAAAAIhAAAAAiEAAAACIQAAAAIhAAAAAiEAAAACIQAAAAIhAAAAAiEAAAACIQAAAAIhAAAAAIhAAAAAiEAAAACIQAAAAIhAAAAAiEAAAACIQAAAAIhAAAAAiEAAAACIQAAAAIhAAAAAiEAAAACIQAAAAIhAAAAAiEAAAACIQAAAAIhAAAAAiEAAAACIQAAAAIhAAAAAiEAAAACIQAAAAIhAAAAAiEAAIBACAAAgEAIAACAQAgAAIBACAAAgEAIAACAQAgAAIBACAAAgEAIAACAQAgAAIBACAAAgEAIAACAQAgAAIBACAAAgEAIAACAQAgAAIBACAAAgEAIAACAQAgAAIBACAAAgEAIAACAQAgAAIBACAAAgEAIAACAQAgAACAQAgAAIBACAAAgEAIAACAQAgAAIBACAAAgEAIAACAQAgAAIBACAAAgEAIAACAQAgAAUCL/VgTlNJvNJnO/fv1Kf175ow4PDxuNxp9//hl/aLVau7u7ihcAAAg7j4+PSqFYEfZubm5+/PjxmdS3clb89u1bp9OJxOiLAAAAgZCNS/Hv8vKybDu2u7sb4fDk5KTVavmaAABAIGQ9Iv6dnZ3NZrMK7XOj0RgOh8fHx74+AAAQCPmYiH+9Xu/m5qYGx3J4eHhxcaFnKQAACIS8ZTKZdLvdajUGvl9kwkiGkQ990QAAIBDyH5EAIwfmnximKK1W6+rqSpshAABUl3UI12A0Gu3s7DSbze1Jg1/mDaFxyHHgg8HAOQAAAFWkhXB1Dw8PvV5vPB4rii/zBsPr62uLHAIAgEBY/yjYbre3qj3wnSIQRiy0agUAAAiEouD2xsLpdKq1EAAASs4Ywg/o9Xp7e3vS4HticxTU/v5+/EFpAACAQFhtEQJ3dnYuLy8VxYcKLWLh6empogAAgHLSZfT32u12PRaXL8ru7u7d3Z0FKgAAoGy0EL4lNQxKg5/08PDQbDY1FQIAQNloIXzVaDSywt56tVqtu7s75QAAAAJhqfV6PSMGN0H3UQAAEAhLrfyDBlut1u7c169f09/8+vXrYa4Sk6BeX18fHh460wAAQCCUBl8Vke/4+Pjo6Gjlpd4jH/748ePy8rJsK0DIhAAAIBBKg881Go3hcBg5cBMfHsnw7OxsNpvJhAAAgED4/4odNxg58OrqauWWwI+aTCbdbrfwZDidTo0nBACAolh24j8u5wrZ9PHxccTyiEbZ0uCX+SjE2GJst9/vF1js7XbbuQcAAEXRQviP2WzWbDbzb/fi4mJDXUNXyMO9Xq+oPBzl4CQEAACBsBj5hw52Op2rq6uylUO32x2Px/m3G0URBeI8BAAAgTC3iEARhHJuscyTqUwmk/39/cwbbTQa0+nU1QgAAJkZQ/jl7OwsZ/K5v78v89SarVYr9jDzRC+z2Ww0GjkVAQAgs21vIby5uck2r0m12sGazWbOOUg1EgIAQH7b3kL4/fv3PBva3d29u7urUMlEPIt9zra5CJ+FrwAJAAAC4XbJNofK9fV1zny1rn3OubmfP3+6IAEAQCDMJFuT1PHxcc41Btcl9jnnqhiFTHAKAAACoUC4WScnJxUtopx7nnPIIgAA8EWX0QwajUYVmweT1lz9IjoAALDtgfD29jZPIKx0KVVu6CMAACAQlsXBwYH9BwAABMJtlKcd0v4DAAAC4Qfkafuq+lwp5noBAACBkNUD1WQyqejOx57nDISHh4dOGAAAEAhrFT++f/9e0SLKuedVn30HAAAEwooFwjxTaF5eXlZxQYXJZBJ7Xr98DgAACIT/OD4+zrOhbrf78PBQoZKJvW232zm3+O3bNxckAADktPP4+LjNxz+ZTPb39/Nsq9FoTKfTqpRMs9nMOXpwd3f3/v7eBQkAADltewthq9XqdDp5thX5am9vr/zthLGHsZ+ZJxc9OTlxNQIAQGbb3kL4JW8jYXJ9fV3a8XI3NzeZe4omzkMAAMjPshP/NBL2+/2cW2zPlbAoitqx8/Nz5yEAAOSnhfA/Mg+ZS46Pjy8uLspw+L1eL+eEos8C+d3dnTMQAAAEwsJEGoxMWMimi42FBUbBZDqdbtUKhA8PD5PJ5Obm5u+//44/zOY+9AlpuZSvX79Glo6ii5+uXwAABMLPKmr4XBJV/Kurq2xjC+Ngy7ASRiThbCt/5Dcej3/+/BlFnbPxudPpHBwcxM+titkAAAiEa3B5ednr9Yrdh0iGw+FwQ8MaR6PR2dlZSWY6jcM8PT2tzckTqS/Onx8/fuTve/zbiHhyclLaeYwAABAIZcJXw2HU5r99+7by2hipkSp+lm25i3qkwZubmwjY8bMqOxxnVITDfr8ff3CxAwAgEL4corrdbpn3sDG3/PcrDEiTBj8qovVgMCh24OW6zqLz8/Ns63ACACAQVkaBc8zUXoSQzOt8rMVkMun1evGzft9IajasU/ddAAAEws96eHjY39+vRINbhVxfX1drMFucBt1ut0KdQj+ZDCOu13iaHwAAnrEw/VuV4+l0OhwOFcW6yvP+/r5CaXA0Gu3s7Ozt7W1JGkzpt9frxVF7FQIAsCW0EP5e1Iyjfly2SVmqpd/vn5+fVyUUtdvtWnYNXSHDazAEABAI+cfp6enZ2ZlyWCFU3N3dVWJNPFHwNfVeLhIAQCDkvfb39wWG+gUJUVAsBAAQCBEe1iaSQ+QHIb9+KjctEAAAbzCpzIelPpD39/etVktpvBgFHx8fK5EG07Qx0uCHtNvtZrNpSC0AgEAoFv4TC63rXcUoGHlmb29vMBj41lYwm82i9KxbCAAgEIqFu1dXV1VJQZsrhDj8ChVCJJnIM9q4Puns7ExTIQBA1RlDuE5pGbfxeLwlx9vpdCIERiCs0D4bMbh2RhUCAAiE/I/ZbBbJsK4LmrdarciBlRtCGXFdi9aGDIdDPUiBSjyd49H869evyWTymWd0a+7g4ODw8LAS6yoBCIRFhpDBYHB5eVmDYzk+Po56f0WffPHs39/fr1DkTu2usdtVSbAVmlcW2J74F8/fHz9+xB8ybC7u251O59u3byYXACrmkVyq2LMudjh2uwYlX7aCjVzd7/fv7u5WOJz7+/uIXiWscMTZUqerdRvuvRHjW61WDb6p6XTqEUMJH7XreoBu+oiGw6EzB7aZQFiMqL5EHijh6LvYpagj1ql2FaGr3uk68mE8y0tyLqWZZgXCSgTCOG3WmOTfX2KxuZXfhry20Tj/40LYUEFdXV196P1L/PJvr/S1JIcPfcji665rZjg/Py/hI1UgBARCPlCnL6rNJ00Ms7m6VOHBuwwZKVvxRs218CpR1PUFwvIHwqg9rzfJr1ZiizmKP391NxqN9d6TP39DfiNpC4RrfOVX5oEMAiFQCZadKFG7XFrBYl0P73fWVGKjselqzRT6fu12u8DvNLWB5JyINaqwKXzGd1rUgY9Go3oMmq2x+IKeLcIZf1PItEBpZua9vb2Pzv07m82azeazv1nLOOHYk725384XHXfRys2tVbPTeGdnJ770POMDAWpMIKS2oqJZSEUh6oj3cwVWFotdGbKokuc9IufEF7T892dnZ2tP8i826y2/rYhYGNX690/5mH7/xSzX7XY/k04jZMYnL8/k1Gg0llsyr6+vn3V8LVX/7d/6aFfh8swknKLgi6cxAAIh/H+tN387VWoVDKUa0VdIa+Fn6uVsToSuN76aDMuoLpLVcieI958zb6wf81rc/a3RaLS3t7f8IuP8/Py1HPviHSBSU2qlN+nuJqT2W1EQQCCE33vWIy5P+iq2VfA1UTHNP7NO1Nt0HC2bSDu/7UQdqeyjvTdXE8Hp2cUSGe89jYS/XU10he6vETCW7xjpfUq/31/5hlDC+Y2rfld/sf0WAIEQnhuNRpm7LF5dXZW5QSAtLZB56oWzszOnYqnS4LNBd+llwfJ5W+ZBWcv71ul0lueO+lD31xdHvb5YMhT71cc3pRwANuHfioD6+f79e87NVWWFyag3t9vt94/U+nwCGY/HFmgugxcH3Q2Hw9QNMr6pZ+k9fjnOlo32fD49PV1uinz7Ooqz99k/id+/urpK1+Czxs9er9doNH57YUbJLLcNnp+fFzgtU86z4kN3gwLvcs1m07BkAIEQ3iuqODmrDlEfrUQaXGTXnFWrSOYCYRnq/cvdLPv9/qJfZfzhr7/+etpKlgLkJlZtiU8ejUZxYix3/Hu7RS4C3rP0Enlv0SczrsH458+GlkVEvLu7e7sX93KjU3zsyt1EPyP/lMiRrj+00RcXusig2+1KgwACIXzAz58/s20rKo6VCzxRRd7b28sWzqPeX9dFTapiedjV8fHxs3UII01Fnftp4kqrOHxy9OnOzs77X1W88WIlkt6zXp1xUj3Lq3FQrzV1vtFZ+vb29tnfeIVRKpHYNz3REQACIXWTrfYQVdJntepKSLudbdKdyBhq2AVabhBOjWkvRrJnv5xWcUh9Mjd6Nr7dP/P09PS3aXDxm8+aOr98vPvrH3/8sSXnRpRJyddRfLFDLwACIfxGts5FJycnFS2ifr+frZoVoUIgLEq73X52OTztZrns7u7uWefStIrDeqdXSUP7jo6O3tPXOjLe8uxEb6zsstzU+Xb314ODg2c9UZfbDPNYYSjy+xtgXxRpsOTzoEqDAAIhfFi2GVO+zLuoVbegIqTlaUotqnpNt9tdvhwiLH00RVxeXv7555+rLUr+yVFnsekX56pdni71bWm9jRfDT2SwZ5uIQjMZUhlEki9k6ZpGoxHf/tevXxv/FXuSZjOKc+PXr1/xZ2MaAYEQ+E+9obo7H9UdI3NqbL1LzEdkirM98xuQCANrXH88qvIvdn+NQLj8ciR+8+2Rh2SQeZGJ8/Pz1yYT2t3dTY23y024kQy/f/8e56rVEYFKsw4hrKJCM4vWcv95w2AwWHvTyvIknxsV21pjGkxS99flv4+UuJz9ms1mIc1TLGSbHiyi4OPj42pTy8aZE//8/v7+ca4qSxABCISwBstLqFVLzso9OZ2eni43rUQ99fGDluvHy8sAbu7iWl4OYTgcfvQQlvuIRsZ7se/rdDpdrsdHetzb21v5kGNb3W7XCbma2WyW52SLk2SNq4zEWbS41oRDQCCEmqt6B6G///7bl1g/Lw66u7i4WKFien5+vjyObn9/f9Ojp9JyF8/+8vj4eIVBjC/Opxrl82LTX1Tfl385TUizs7Pz/qXwxuNxs9mMfxJ5UjfCleV5YxUn+eYyWwqHMiEgEEJuOYf9VLpHWbadL/m89jVLg8tdIiPkrDz27+rqavnrW17VcI3ik5cnjHltnYz3iGMfDofP/vK17q/xy4+Pjy8W1yLmJVEI7XY7UmJ7LoXGpEKrqEch7HzEahMLrfxeYNOb2N3dXWPbIEClmVSmLNJU6WkGswwvR2MTUY85ODg4nBMIV/D9+/eKTjQatdtsbRd//vmnqztP5X45DUYW+uQpend3t7e39/RseXsVh02kwU8ujfDi4oRx93tt2piLuVSer8WSqvcYL78MsxNXd90ggLXTQlhM9huNRk9fKoeoCUX9I/4+2+Cu2NDZ2VlUjJ7txmAwqHR1J9t88VFKFW0kXPt0HW/QYyrPtbw86G61bpYvZsLlO9jy5j5vue3x7VUT3y8C3nJTZ9zr3miGivM2EuPj42P8jJJ8/7r2X+at4rHF+/v7kq/yt+XcmgAWdj65ThTvMR6Pf/z4UdFZ/qMy9M4lpMtT2jnncqjc9PSRBnP2F12OE9WNWOvl3ltdi4Xpvsx7HuoXvf6qyQdXy6z9BRi3o42+LB4Ohzm7BANlo8voRsxms9emLqicy7n050g+JycnH31fnlmn04ndy9YlMnWfK3OBPBWP/Jyn5dHRkbsB9bNYmI6K8vUBPKXL6DpDYK/XW3S8rOUaVnGMg8Fgb2+v5MeYc3BIGvhUiWkk4rtbnoJyo8zZAJRQtbp1AAiEZRehqPwBadMBuNvtlmqC9cxdX1ImLHmX4P39/eXl6TZqeXZHgDIw2RWAQLieyJFyoMWmvsyH7aXSaLfbxbaVLb6X/JtOc9CX89uJAsk8UVCj0TAiBQBAIKybRXvg2dmZHLjs5uYmrdaVs80wImhsLrVVFvu9pHW9yhOEIgTG6Zpzip2F8/NzlwMAgEBYE1GxTqtEaA98p0Wb4ea6KS6Wii5bd80IpelUKTwKbnQN8Tf0+/1si38AACAQbtDl5WVU7qNibSXi1QwGg1SAa0km8SGnp6eLgYtlnsqlqDNnvQW+gsPDQ82DAAACYeWlGVOKbeepjdRgFVZLR/Gv2u12fB3xCZnnyfz8gae25WazublVpCL7pRy40SbZ91jXSuIAAAiExYi6darBb9WUoeUs28WIzfhXG12TN4PZbJYybQqHEds+2YI3Ho8Xs7xGKRWbAxdpcDqdOs8BACrEwvT/I6rsVQ8eldCbu7i4OD4+Xg6Ng8Gg3mk8LecYnv5lq9WKQPX169f0n4eHh7O5+PPff/89mSvz+FVpEABAIKx2RNEkmL/MIxRdX19HFoocHv9ZieXdNyRFvsXsONXqGRvxVU9RAACBsJKiCl7IvPx8+W8nUuVQaf1+3ywyAAACYSXTSLvdNn0orOz6+vrw8FA5AABU1PZOKjMajVae9BJotVqPj4/SIABApW1pC2GF1hVsNBpR8/769WvUvBtz7/lXaT6Sm5ubX79+xZFu89g8NuHq6srS8wAAAmH1pHXhSrt7Uck+Ojr6fFU7RccXW2/G4/GPHz8Wk5fAhxwfH19cXCgHAIB62K4uo6PRqGxpMGJbVK8f/ytDw0t8fmxlscXY+jtbHdlyrVbr/v5eGgQAEAgraXnlt6Ls7u4Oh8OoW0cem06ny2vx5RRbj31I4TD2KvZtqy6AOPz0RaRs7I7wRhS8u7vbttMDAEAgrIlutzsajQrPgefn5xE8om59enpawrp17FVKR7GfNa76P22VjT8sjjTCoVgoCgIACIR10263ix0yl5qhQr/fr0SJxX6mHS629XK9Op1Oagt9u1U2xcKIQJGFtvnWMBwOUzmIggAAAmGF9Xq9m5uboraeWqKeNkNVSOzzYv8r+u0vDiGNz3z/aMlIg5GFUjfarbojLA789PTU/REAQCCsfBq8vLwsMArWo4Wtcn0pDw8PU2Pg5xs5Ixelz6lK6+5qIipfX19rGgUAEAjr43JOFNySWLgYohki26x36tSnH16nqXciOaf2wMjPlpgHABAI62MymfR6vfzV61pGweVYWJ7wsIg02RrxFlPvFD5D7GqezqkTyVl7IACAQFhD3W438xav57bkvCn2YNO6HYVHmqfJKsJhxNHSthxGbH66q/V+ZwEAwPv9u5ZHNRgMZrNZzmCwhZMxRsa4v7/f39/PWdSptCPSlK00Yq/O59J/RpmMx+OfP38WMqFR7Ex8O9++fet0Ou5xAABsVyCcTCY5lxyMmvf2NAw+Exk4slm32825qkdkrfh+Sz7FS0Sy/tyzPZ/M3d7exs+Hh4dPbqU19/Xr1/hpBCAU8rhZvpAbcwoHyCnuRXFHerGaqnDYxkA4GAyybev4+Ng65ldXV5lnc42vOEq+ck2yqZqo1Q7K72bu169f8fPz726e3gSicnZwcBA/hUbgPWazWdyI0qvkFyPfytLtKKolZhOgboEwPcWlwcxSOeTMhGdnZ4v+mcBqIurk7E/xojKseBn3rp8/f2bo6RAVu+Xpr6NOdnR09PmRvfGxG+3AHwl2LcOPUyEU+41H3TrPiRclJvm/X9yO1vj+ZbWAVHh7Wlwg379/j9tRhvE4qc4cFarF3+zu7sZJe3Jy8snzNsNl7uJas8d6ydb8kiYU5anMt9E01SdsQoZ+4MUeYBmGPS8mOirk8Es7tVLsWFpGtWx34HU99bZqkEVa37X8j9fFPG1FKfx6bLVaRVUqYrtR/uXMNk8nzyvbZb6ui4ukVrOMPjw85BnMFhWpq6srbxOeiTLJWcUsvGUDqmgymezt7e3v7xf4Jr6QxVrjeHu93s5cHH7hjVSviR1rNpuxk/E1uctRe+mqLPB6TFEw/zuyp1f62dlZ5vn53in2anHbbLfb5dxJ1qJWgTDbszNqM9s2p+g7c3LOPrQ/f/5U5lChKJhepWWOgnHUccip1lXaEPhagh0MBqkqlnNsPGxJFEzrKmeOgqenp+mijsOvVr66ublJCTbuqOsdyohAuGa3t7cZtnJ4eGhekNdEyWTrOLr20dUgCm4uCkat6/7+PtvNM4603W7Xpu4yGo1SJbJamRbKHAVzvsKOg42bcBz10wF71X2gpLdscY8tdswnAuHL8kwnMxwOnTclKZ+cy12AKPiZKJhtFruoeKX2wEJWAc1Tky62xy+Igu8U12nKTnHg9btm4x6bUq4XVQLh1qXBNGm48+YNOadT//XrlwIHUfBpXTN+bsmXG7wUQxR8pzRxTrYouLhIt6Er0/bcewXCCsjTFfvo6MhJU55S8o4cShgF0yQN2aLg4h38tr2ljgPvdrtezyMKvi3NYpVthZvUSWELm/G39sAFwm0MhNbufI9sjai17BIGVY+COSdpiLrmlryD/22F25hqRMEXo2C2WayiTqKhLD2Gut2u818grDOTiwKiYBmiYJqsT+PYgrfyiIJFRcF0B2632756t6OK+rciQGyGSkfBYqd6iyh4fX2d86pPc9z56qGcUbDAHBg3orgdZe7MFXdg/ZWoOi2ErJ83Q5AnFxXbKljIKl5R95IGoZxRsMBWwfyzWH2ZT3UehywNUgNaCAGqFwWLbRWMKJhzCa/FUYuCUM4ouG2tgl80DCIQbrO4+C078Z5SyvYYUNqIgrWPgl/mIwbLuaBza+7PP/+MR0PckV6rlc6euL29je9RTwpEwYpGwbiKyzmXZroFHRwcxM/059eqSameFj//+uuvyZyTWSCsiXgYZ6guxIPcSVOeUjLpK6JgNsPhMNu87c+U50183HNOTk46nc5H30Y15l6rXI7H4+/fv+eZKxtqEAXzD11eiKu1JFNoxuHHvSjuSCvUhVLbxostHHGAP3/+NF+XQFhVeRZDj0pJVMg0TL0hyidb1e3g4ECBIwpu2sXFRbbJ+pbvJ/v7+8UmpXi4nJ+fR8Vrc5/fn1vUxgaDQY3DYTxAf9vRZtMPkTfy+doPVhSsTRT8Uo6uCnGvGA6HmyuBzlzqCRI3ojhe4XArPNZInvt7XIePvC7KJ9vZG08FBc4mxKlVhntv5vlaXoyCBX4L9/f3BR5+PFCi/As8/Nh6qTpBRIrLduye489seqzKOwukqBdDiygY94Qtqd6U8KQt9vDVADetVrOMbu4N7lNnZ2fGfrzxOj/nyzPjOamrwmcQzbyK14s3k2azWcjh9/v9OPbpdFpsHoutp0R6fn7uiqDYJ3vciwqcQTRqd5mXOV1WVNvg4j5QVI/9pyVQhhsjG1KrQPjt27c8GxoMBk6dwksmT/6HrYqCaer2wpsCQiElkGJw2QJYCqiFzOWDKBhXYtyRipp0JK1tc3V1VWxfidFolD8NphbRsvUUSF0nMi/vgUD4MYeHh3l6jV7OOXuKLZaTkxNljii43ihYksd8u93OPIguha7CY/Bva8ZiIVsVBctwwt/c3GRuBoiqbOEtou98XuSpdSMQftjR0VGeDfV6PbP0PqvLRplk21zUWfUXpTaiwiEKLpyenuacUzS9hq9Kt8xUS/ZuHlEwW2m02+2cW4wDn06nlZiOKHYydtVbKoGwjHL2sS587rvySGvy5Nxi2QY3w2ouLy93dnaKmkS0bFHwy/zVUs6uWZEDy/wa/jWxzwYWUr8omPpslypg5HzTnRoGy9xP4bUAr6mwBmq4MH08JrM17jebzel0uuWXQaTBKIecWzw8PKzBAMJ49KbFqdOj99evX29Hgqiy//HHH2mp2WxzprPRKJizqrF8OhU4dXtJql9lG5zzIf1+P26Dme+91NXff/8dUbDAfk8Frm3z9l16PB5ni1XVbWpLTYXdbjdbcbF+tZw7NXNdeZunvs0wO/+yuO9UpXzu7+/Tcy7DORk5eTgcFjtRvhO7/Aqfuv0N2epDUX0pbSGUdmUOy07UeNmJAhW7ts3bsl1ctVnPbLGeqrp35dQzEEadOP/L2i08e3Je+c9epJU2E8azrTytl2nB6wrlZ4Fwa6NgzupXbdLgIhMKhAKhKLh22Xpl12x162wtvQKhQFjSrFKzSkZ5Xku/HXiurq6KLYqIW1Xp8R/FVfIHsEC4uXco5b87ZWserN8rkjzvQAVCgXBdlaVK9GTJU8lJM+jUTJ7TVSBcr7pNKrNwfn6eeXDIw8PD3t5egYOCsoljjCMtar3sp2azWbfb3ZmLvcq2S7Hd2FzabrPZrMoaJBXdbT5f24isVf55U378+JGnUaJ+42/jYWeOGaoSBSuxhN14PM5Qo0hvaev3RRe+biSr0Iq1oTpHLYu0EneuuMNu6L1RfGwtp3Lp9/vb07i9PS2E1XrxPJ1O8wSnGp+0m65kayHUQvjJKFihAs8z9KPGY/4zVBe1EGoh/NgNqJBNp3aYOrXApMnxK9H+OZvN2u12agcbDAaff8k3mUyazWZaG6CWC42MRqO9vb11FRcliYLVevGcZ266eq+XpZGQEmq1WtPptBKtgpnvSJE5a7ygaDyGLJdaLf+q9+GlxqKitp5iYc6lETch9r8qUfCNqLO/v//Rpa4jGqX+qNuz4GQqrqA3aUWVcBWvd/r58+emN3F4eFjvCkrtD5DKRcHIgXd3d5XrWfPR2sJqTk5O6n0C1P4ABcLqPSOL7f11dnaWQkWBK/ysIPY29jn2POci0Rs9nEWzYUTct9vB4pdTLtrOFXWicNK7jJzDMlmL+MoqGuYz3B6Pjo5qfwJ8+/bNVUCpHrtV3PMMgTDSco2XEkmqMt8e2xIIUybMM0DlPfmq5N0OF/0tK5dgPxTRU7NhHOmz+37qGRvHLgil0oiCUhqVy4TNZrNyX1mGHS7PejCOke3JhDUbPrMuW/LupvahVyCsnkajUZKVEiKBpAFppZrmMfZksVd5OkuUQRxpSr9petjq9ozd9BNdLKyW2WwWX9lgMKjQlZjhEbANs97pMkoJlWdm8ne6vb2VlNbi4ODA+S8Qlk5aJ7A8z8tnawD8th/jesW2YospBKYgtCXD5F4rDa8wxcKaSSNC69rOv0Ig3JIj9Uqecj5kt2RdLtyOBMJquLu7Gw6HZdurCGOLfoypwarb7UZEWVdIi8+JT4vPfLqJ2OI2h0BWjoUVanpSCYsMX9FhPEDNpEEZ3lJ9mTdRKARK5d9beMynp6edTicqSaVt64gdG8+9dh95o50zbrXacNio0WgUz/Xr62v90yrh5uYmKmEXFxeG+AOF29/fj2dHUauCCYQgEP6/NBtyt9ut4jSSkfe2Z5gfpT0J46He7/ctfVYVvV7v7OwsKmEqIkCx0mQz2/yWajabbU8/dirhX9t88FdXV6pHsLI0Sk2LdIWqIIbxACWRJpsxdKXGVA8EwspITYVaOQoUgTySudnSq3u7jye6JusKKeEwngwTD2zV5MlOcir0BGk2m2V7S5VhNMSWXKfGiwqEFdPv9x8fHw2wyS+iYATySIPxh8e5COfabCun3W6bprVa9ue26pC3oQYmDVJF6S1Vec7eP/74Y9ObyLCyRRlsyWEKhHVzcXFRqnUpal/aEf+WGwYjnMe3EP/r7u6u9hMWxwFGAL6+vn58n+l0Gsn5+Pi4hJm51+udnp46sSukVGtGZ7jYf/78KRBCabXb7ZKsbKTPwlqY8KJiHlmS2qycGxuNgh/6OobDYT2aDeMx8/74V8XCiZ2px00gvqZshRYJP220qLdRaY3WYgs8z2pAtX94bfRWELevbAfiTvVMttejcQrd3d3FFuNJXdRz5Pz8vPAC35LDrPRdfb21KQTCt+hEuonHzCer6VWcmCtP5SOKtwzt2x8N/NscCBdRsJAg+tudqV+B17sGtukavEBY70D44jO6wLdU0+m09gXu/ZRAKBBWrGpoVNsnK5prb3+IDyx/XO90OoU0vFxdXRV7xn4++W9DIHxj6wX2UCjwu8tT9Sy8LbS61S+BsMb55I0C2c63VHkaSGv8iipDpw+BcL2MIXzXU/B+ToPhhzQajUXPk7XXVOIDFy1R8YeyNRumfSsqmKUgWuCSKu122/n/GQWuiJMmmylkGM+3b98ybKWuq27EcZnhnc29CCik/pMmmylkveg8xzsYDGq56kYc1NnZmWunWgTCDyeQ6XRa+8lOPllQ6aVXFFSeV/5x4059S+Jn4YM/0xvNMrw7SEuqFJIromJqsbu1fH39fj//pieTyd7e3mg0yrzdPJMSReUy/6FlqDeb5peNivpPUW+put1uIW+p8tx+a/n+dNumsK4JjaQrkwxfDMwlkT+SlWFmjtcUkisq3Z2j2C6jz3pHF9XSm38YT7YTdbHOTT0GNeQpNF1Gt7PLaBmeJoV8a3Hvrd+VVZvO/5uuY8SHRzXy/b3P4jfj9ytd7REI13PXqM00mCvcyMp5AWTuRNrpdEp+lt7d3eVv41LJXtfLuPPz86Ku8czDeLIdVz0yYc7xXQKhQLio8xQ1TGMts9OV8BVVbTJhzlmI1l75jIfCuk7s+JzKPWIEwvU3G9Z+qGGc6CWfSTLzfNlVqVvkb2uq7tuysgXC9PUVOItstq8y58Vb9VVSMr8mEAgFwgKfs0W9gc320IyaVaWnvKpuBePu7u7FHBiH0+/33/MCIn4nfvPFD1nMpiEQajkcVnGZhBerAhVaTiBnvTnuAtU6JzWcVjQQLl5hFnUTSMMaMxR+zpHA1X0xn3+8tEAoEBb7tC2kkT/zLbeic3QXMhXt5wPhi8NiP39zWJ5hNXPLtkBYdtPp9Pz8vAwrxb2z8hcJsIrvq+rah6qijzeBcBMlU+DkSRnmSc//prlalbD83b8FQoGwbGEg51uqzMMmK/citajn0WcC4XKPm7WfSxk2IRDWR5wZEbo+NG51c0/6qOcVuw7sumRY/WahoiWWs1dzRXuNljwQvvZqM48Mk80UMuS1/O+/iu02LBAKhOV8S5Whn07+GQQr0SerwG7Dn6ldPHu+v/FEe7ELaJwMUYl6Z515+f1maStFAmFJbfqNVM1mtSrkxl2tzqJPxV0s2y27osO0yh8I82f7zK+xC6lqlDYWFhsFBUKBsPxvqTbdzl/Ii/vSxsJio+BnktWzh/vbFbl1nXvPqvTlzITWISypP/74QyGs5ubmJs+G8qyjvQnpFVeebd3e3jonN1pdKGpdivF4vNE1oyPr5q9zpDUYm81m/KEkX3HsSexP7FV5dgneeJ9SyLoUDw8P+/v7G13Tbzqd5r/T9nq9uM3mWaP1Q7tU0aWGZ7PZ05NkOBy+f2quZ2/oFp3R0rn39ncUW3naeS32IfakbIUjEFIrOdeurfQqlAcHB86WekgLYBa1LsVG14wuJBOmSkMcVKr05F8Oe3Eri7KNfYg9KWHVAd6o+xb1lurm5iYumcvLyw19flHrbZydncVxNZvNbO+7l41Go729vY0Wb540u/hzp9NZOWnH6R3/9uksffEdvf1P4vefdqsuYaIWCKmVbC/RK50Gv8xf5WarWzstM+j3+0X1Kkytaht6h52W+i2qVKPqk+pA7XY7T1UsthjVvthibHdzra+wUcW+pYqqdlxEG3qVM51Oi+q8nVq30s0h7rcZ3lXFFlN7YBgMBkW9HVvjo+rpbfzz5+dH33o83eLNnEAIlVf1O2O2nFbUkJLtrITd3d0VtS7F2dnZhro1Hh4e5hz1+qJ4cqeqWHpPH3WjtRxp3EYiAaaWwCSqX96hUA8FvqWKiyhuR3GdbuLD4zZb4Aw66b6R7rfpphE3kLiNrKVOEre1KLT0Tird6yrdHvjM01ds8Vj5ZGNv6kiy+M/3jOd/NlqnbIHw3+5Z1Em2hruqj+fJFmgFwszSXC/ZWrSenVTxgIwdWHsojedoHFR8eBmuu6gHjOae/X1UfHfnvn79+ux//fr162HOOEC2SnpLFRXxCC35tx4XaeSZ6+vrtYfSuMXFJ5ek19947tnORMmno14eHvL333+nG1H8rPqr7ZWtMGomEvJr/+v8/PydQ2dju2XLgQIhfFZc1dXtOGqul3qLOlA87J++v8xZO4kHZ1SY1v4SPWqWp6envx2qUZRF2NPVE54q/C1VRKO1r2RzfHwcx7W5vqmfP/BU2qWNH8X666+/PvkJjUYjToCTk5PC141bF11GqZtsIe379+/VjbLZHhJmrylK1IEKXJei2+1uoqqUxvFrdobKub6+LmpdislksonZUNJQyUJmVWW17+vpKfHRf/5shrO0fPdH02CZ38ULhNRNtgQyHo8r2gEsZxtL1Wffqbp4hhUyW/qXjQ3jSZWwMqyCBXxIWpeiqLdUvV4v7khrf0uVZlWtTTNRjT098Z5NMPPOf/74+Ljofnx5ebmzs/OhD3m20QKXERYI2Qo5E0gh4yI+aTQa5exDIhAWLmoqTxdNyn++bWKymfRsLnZqB2AFBa6eGmkwbkdrH/sXxzKdToua0Iv3f01PM9hqp8Hd3d3Tia/b7fb7h2Y8rTHGnpTtJYJASA0DYbbL7Nkip+UXUXBDE6+9SF+a8kidLQuZ8W9za0ZHDayogwI+UzUvcF2K1Laz9rdUaaikzgslfxmxeBOxcv0tKplPX0e+s0Py08XoYx9KeJ4IhNTQ0dFRzohVlUyYf1dzfhG8pxJ2d3dX1HNoQ2tGp4Pa8lgYVZMoAa3xVEuB61KE/bm1f2zqvLDNsTDuyddz5dy9p2Mo4qm08lj3q6urpzMVvd0hOc60pz2z1j7FkUAIL9vQGtlv1HQ3MTJh7WWSOQ1GJVXTTQk9GwiR2YbWjE6xsMBJdIpyfn4eRx1VExPtUNHwUODqqRuabGZxmy1qEp2ipDGiJX85lfr3LvqRpbHur50DwydePN74luMmnH7h5ORkNBo9W0j2WXN0ahsv6YjTR0pp0wN+UpN3jRXSF+Xi4qKERVHUK9i451b3/MnwdrPwYyz2JWW/39/o11fvelhc0cvX16YrYTmfGpsuwHjCVuuOtOkvtwwFUmCKSCFhc4/geo92Th0g8z9DYxOf+V6Wh7Sstwq33Eq80afe52khpJ7iwsufglKfgWfvh4qVdin/bKgrTMdM/lBRYJPaaDTaxDCeRXSJSliGN2uZxTWV6kAR5l1f1Exal6KQTT88PDSbzQ0tNB956erqKl22Nes1kzr9Fjhz7CdrKc9el8cJEE+lOBM+02gc/zY+IT7n6emU2k6LGjT7TgIhtVVIL5T0XNnf3y88Fp6enm6oM8x7kobpZKri4uKiwH5NGxrG8/QqWHQZqG6b4SIHTqdTAwWpsWLfUq2wkMBHjy71bI+flb6Qh8NheuNW6fvqlydjDZ6+OozKW0qGYW9vr9vtxonx2rvL+Pv4v+nNe/on8een1b/U9l6NzsM6Z5awr1pUpjf99jc+P72yqrdip4F+sR9Fhg6ixT5pUhf5GlyG23bvLbYxLduVEpmqKi+z09v38vS402VUl9Fsilo9dZHcsj3FouQrkaniDPxQF83ydxl9bbTR57+O+ITK3WH+uesKYMWKalBJOpfHbqTVgWpWwmXoM5YhfsfjsyQnUqWHDm5zIExvEwrsiJj/VUKcq6WqjaVqxMqFIBAKhDUrkGIf32nGpswVwlK1HH40BNYgED57QMQ5EDWrt58R8X/jd+I3q1752clw5+Wpm5ubHz9+FNKR76M3grgX16N70unp6dnZWXkK9uTkZC3hbTabff/+Pc6l8kxwGjdoXdqoqLiOxuPx7e1t/MxzTbVaraOjo7gbGBAIPDOZTKK6GJXGPLMApGDz7du3ek+Bw2sEwkxX9WAw2FzHdOGwWpnw2S04Cvbr16/xszH32nuEiH+/fv3K9myQBiGZzcWl99dff83+60OpL67ruMZbc7If8BmpPhBub2/Tf77/36ZqRtyI/vzzz/jpkY1AmMNoNIoQUvLl6T6aXk5OTjKv8lf7TFgPTxf2AQBAIJQDH+p9mOfn55WbSfLm5ibz4uzbIK3gZF1sAACBcKtF2Oh2u7XPgcth4Pr6ukJL66RlIbbta9qcTqdT7FSuAAB8hnUI1yCtWNJut7cwZsQh7+/vx+EPBoOqJNj7+3ur5K3F1ZxyAACoLi2En8pCEQJLO8NHIQ4PDyMhVKL3YHxx25nh1yItsKscAACqTgvhillib04afObm5iaKZX9/v/xBK608W4ZVCqsl0v7dnKIAAKgBLYQfo1Xw/Y6Pjy8uLiqxq/GdVndRkJziC42vVTkAAAiE20hsqHGEEPVrE+8BABAI1+zy8rLX6ymH1TQajbu7u0oMLBQLqxvpAQBYgTGEv08IzWZTGvyM2Wy2t7cXobr8u5oGyD0+PpqGNC0oEkUhDQIA1JgWwreMx+Nut6sc1uXw8DAyRoV2eDKZxAkQgXarvqZOp3NxcWGheQAAgXCrRRKIQKgc1itixnQ6rVzYuLy8HAwG9V6jotVqRQ6Mn85SAACBcNs1m81taxfKKTJho9Go4p6Px+Ner1enZHh4eHh+fi4HAgAIhPwjDRosW41/d3c3Ku4HBwdRcY8/vP3LNzc3k8nk9vY2/lDa6FLdTJjMZrOzs7NKDIx88XQ6OTnp9/v6hQIACIQCYRnTYISlqLIfHx+vpcoeRxTR5fv376Vq9qx6JnwWDsfjcZlbDtd7RgEAIBBKg+vX7/eHw+FGq+xxgJFeRqNRGcr8/v6+fvlkMplE9i48H7ZaraOjo06nU4/UDQCAQLhZBY4bPDw8vLq6yhyNIq50u92bm5sCyzyyynQ6rf2pFedVlHPqxLuJcyzOn4h/BwcH8QcNgAAACIQf1uv1ChkPdnx8fHFxsZ3HXp4SKIPfJvPGnIICAEAgXLOIQ/mXni9bECowFl5dXXU6HechAAAIhLk9PDzs7e3l3GJp1+KLotjf38/fb3ZLOo4CAEDZ/EsRDAaDnJvr9/ulnUklJdXYw8zbjQhakkluAABgq2x7C2FEkWazmW1zFxcXx8fH5S+W/H1oNRICAEB+295C+P37d2lwWf7xjZHMx+OxCxIAAATCfLJNo3I8V6GSyb/DP378cEECAEBOW91l9Obmpt1uZ9jQ7u7u/f19FYtob28v5+rqpjgCAICctrqFMNua7MPhsKJFdH5+XstvBAAA+LLlLYTtdjtPAql0Ie/s7GTb1vX19eHhocsSAADysOzExlU94eTcfy2EAAAgENZKq9Wy/wAAgEAIAACAQLg1JpOJ/QcAAATCbVT1cXE599+MMgAAIBBmcnBwkGdDl5eXFS2izHu+u7vrmgQAgGwsTG9h+rc0m83ZbJYtDVa0lAAAoKK2uoUwWwfFh4eHXq9XufIZDAbZ0mDodDouSAAAEAjzOT4+zrOhy7kKlUzs7Wg0yrnFo6MjFyQAAAiE9QwhvV6vKpkw9jNzk2ar1TKjDAAACIRZHc7lzISDwaDkZRJ7mL+D63A4dDUCAEBmWz2pTDKZTPb393NusdFo3N3dlXBGzYeHhyiKnOMGk1arFQXiagQAgMysQ/hPGsk2kjCJxLW3t1e2aWYGg0HsVf40GK6urpyHAAAgEBbj4uKi0Whk3ujl5eXOzk4ZRhWmPck8hczC+fl5/sIHAAC+6DK6MJvNms1mUVvvdDoRSjN3Ik2LYYzH4wKL/fj4OA7c6QcAAIXQQvgfjUajwGQSqWxvb29nZ+f09DRy2qZzYGwlthVbLDYNFlvmAACAFsL/kX+5hTfC0nA4XOPgxji0s7OzQoYIvnaA0+nUKQcAAAKhTPj7+HR4eHhwcNCae/uXJ3O3t7c3NzflSYDSIAAACIQy4baLZHt9fa0cAACgcMYQvuD4+NiyeBvS7/elQQAAKAkthK8qapX2Gru6uup0OsoBAABKQgvhq3Z3d6fTab/fVxSf12g07u/vpUEAACgVLYS/N5lM2u32pleDqLGLi4s1TpcKAACsixbC32u1Wvf398PhUFGsUHSPj4/SIAAAlJMWwg94eHhot9uTyURR/Nbu7u7d3V2j0VAUAABQWloIPxxy7u/vf7sSoFKKUpIGAQCg5LQQrkhr4YtR8Pr6WloGAICq0EK4evi5u7szQC45PDy8n5MGAQBAINwiFxcXEQuvrq4iIm5hKk6Hf319vYWHDwAAAiH/6HQ69/f3EY22ZN3COMzUJKiBFAAAqssYwo14eHg4OzsbjUY1O67hcBhRUGMgAAAIhLzLeDweDAaz2ayi+99oNC4uLg4PD32VAABQM7qMblyn05lOp49zkawqsRhDxL80ODDEzkuDAABQS1oICzObzcbj8Y8fP8qwdkWr1To5OYnsqjsoAAAIhBQTEW9ubm5vb+Pn5rqYRvY7PDw8ODiIn+IfAAAIhFQjLqaUGHHx7d+MmJfWA4yfIh8AACAQAgAA8D9MKgMAACAQAgAAIBACAAAgEAIAACAQAgAAIBACAAAgEAIAACAQAgAAIBACAAAgEAIAACAQAgAAIBACAAAgEAIAACAQAgAAIBACAAAgEAIAACAQAgAAIBACAAAgEAIAACAQAgAAIBACAAAgEAIAACAQAgAAIBACAAAIhAAAAAiEAAAACIQAAAAIhAAAAAiEAAAACIQAAAAIhAAAAAiEAAAACIQAAAAIhAAAAAiEAAAACIQAAAAIhAAAAAiEAAAACIQAAAAIhAAAAAiEAAAACIQAAAAIhAAAAAiEAAAACIQAAAAIhAAAAAiEAAAAAqEiAAAAEAgBAAAQCAEAABAIAQAAEAgBAAAQCAEAABAIAQAAEAgBAAAQCAEAABAIAQAAEAgBAAAQCAEAABAIAQAAEAgBAAAQCAEAABAIAQAAEAgBAAAQCAEAABAIAQAAEAgBAAAQCAEAABAIAQAAEAgBAAAQCAEAAARCAAAABEIAAAAEQgAAAARCAAAABEIAAAAEQgAAAARCAAAABEIAAAAEQgAAAARCAAAABEIAAAAEQgAAAARCAAAABEIAAAAEQgAAAARCAAAABEIAAAAEQgAAAARCAAAABEIAAAAEQgAAAARCAAAABEIAAACBEAAAAIEQAAAAgRAAAACBEAAAAIEQAAAAgRAAAACBEAAAAIEQAAAAgRAAAACBEAAAAIEQAAAAgRAAAACBEAAAAIEQAAAAgRAAAACBEAAAAIEQAAAAgRAAAACBEAAAAIEQAAAAgRAAAACBEAAAAIEQAAAAgRAAAEAgBAAAQCAEAABAIAQAAEAgBAAAQCAEAABAIAQAAEAgBAAAQCAEAABAIAQAAEAgBAAAQCAEAABAIAQAAEAgBAAAQCAEAABAIAQAAEAgBAAAQCAEAABAIAQAAEAgBAAAQCAEAABAIAQAAEAgBAAAQCAEAAAQCAEAABAIAQAAEAgBAAAQCAEAABAIAQAAEAgBAAAQCAEAABAIAQAAEAgBAAAQCAEAABAIAQAAEAgBAAAQCAEAABAIAQAAEAgBAAAQCAEAABAIAQAAEAgBAAAQCAEAABAIAQAAEAgBAAAQCAEAABAIAQAAEAgBAAAEQgAAAARCAAAABEIAAAAEQgAAAARCAAAABEIAAAAEQgAAAARCAAAABEIAAAAEQgAAAErk/wAH/VZiTI7bmQAAAABJRU5ErkJggg==;" vertex="1" parent="1">
                    <mxGeometry x="420" y="290" width="81.12" height="81.12" as="geometry"/>
                </mxCell>
                <mxCell id="19" value="" style="endArrow=classic;html=1;exitX=0.5;exitY=1;exitDx=0;exitDy=0;" edge="1" parent="1" source="5">
                    <mxGeometry width="50" height="50" relative="1" as="geometry">
                        <mxPoint x="190" y="170" as="sourcePoint"/>
                        <mxPoint x="200" y="460" as="targetPoint"/>
                    </mxGeometry>
                </mxCell>
                <mxCell id="20" value="Pull Mlflow &lt;br&gt;model" style="text;html=1;align=center;verticalAlign=middle;resizable=0;points=[];autosize=1;strokeColor=none;fillColor=none;" vertex="1" parent="1">
                    <mxGeometry x="110" y="360" width="80" height="40" as="geometry"/>
                </mxCell>
                <mxCell id="21" value="" style="endArrow=classic;html=1;entryX=1;entryY=0.5;entryDx=0;entryDy=0;" edge="1" parent="1" target="18">
                    <mxGeometry width="50" height="50" relative="1" as="geometry">
                        <mxPoint x="570" y="555" as="sourcePoint"/>
                        <mxPoint x="590" y="500" as="targetPoint"/>
                    </mxGeometry>
                </mxCell>
                <mxCell id="24" value="V2 protocol standard Grpc Inference&amp;nbsp;" style="text;html=1;align=center;verticalAlign=middle;resizable=0;points=[];autosize=1;strokeColor=none;fillColor=none;" vertex="1" parent="1">
                    <mxGeometry x="320" y="526" width="220" height="30" as="geometry"/>
                </mxCell>
                <mxCell id="28" value="V2 protocol standard&lt;br&gt;&amp;nbsp;Kafka messaging Inference&amp;nbsp;" style="text;html=1;align=center;verticalAlign=middle;resizable=0;points=[];autosize=1;strokeColor=none;fillColor=none;" vertex="1" parent="1">
                    <mxGeometry x="370.56" y="390" width="180" height="40" as="geometry"/>
                </mxCell>
                <mxCell id="29" value="" style="endArrow=classic;html=1;" edge="1" parent="1">
                    <mxGeometry width="50" height="50" relative="1" as="geometry">
                        <mxPoint x="670" y="610" as="sourcePoint"/>
                        <mxPoint x="270" y="650" as="targetPoint"/>
                        <Array as="points">
                            <mxPoint x="670" y="650"/>
                        </Array>
                    </mxGeometry>
                </mxCell>
                <mxCell id="30" value="Seldon Control plane Grpc access" style="text;html=1;align=center;verticalAlign=middle;resizable=0;points=[];autosize=1;strokeColor=none;fillColor=none;" vertex="1" parent="1">
                    <mxGeometry x="365" y="621" width="210" height="30" as="geometry"/>
                </mxCell>
                <mxCell id="31" value="" style="endArrow=classic;html=1;entryX=1;entryY=0.5;entryDx=0;entryDy=0;" edge="1" parent="1" target="11">
                    <mxGeometry width="50" height="50" relative="1" as="geometry">
                        <mxPoint x="660" y="510" as="sourcePoint"/>
                        <mxPoint x="710" y="450" as="targetPoint"/>
                        <Array as="points">
                            <mxPoint x="660" y="480"/>
                        </Array>
                    </mxGeometry>
                </mxCell>
                <mxCell id="32" value="Grpc for Deployment Server Status/Metadata&amp;nbsp;" style="text;html=1;align=center;verticalAlign=middle;resizable=0;points=[];autosize=1;strokeColor=none;fillColor=none;" vertex="1" parent="1">
                    <mxGeometry x="317" y="477" width="270" height="30" as="geometry"/>
                </mxCell>
                <mxCell id="33" value="Actor" style="shape=umlActor;verticalLabelPosition=bottom;verticalAlign=top;html=1;outlineConnect=0;" vertex="1" parent="1">
                    <mxGeometry x="735" y="190" width="30" height="60" as="geometry"/>
                </mxCell>
                <mxCell id="34" value="web backend&lt;br&gt;microservice" style="shape=hexagon;perimeter=hexagonPerimeter2;whiteSpace=wrap;html=1;fixedSize=1;" vertex="1" parent="1">
                    <mxGeometry x="690" y="371.12" width="120" height="80" as="geometry"/>
                </mxCell>
                <mxCell id="35" value="" style="shape=flexArrow;endArrow=classic;html=1;" edge="1" parent="1">
                    <mxGeometry width="50" height="50" relative="1" as="geometry">
                        <mxPoint x="749.5" y="280" as="sourcePoint"/>
                        <mxPoint x="749.5" y="360" as="targetPoint"/>
                    </mxGeometry>
                </mxCell>
                <mxCell id="36" value="web UI" style="text;html=1;align=center;verticalAlign=middle;resizable=0;points=[];autosize=1;strokeColor=none;fillColor=none;" vertex="1" parent="1">
                    <mxGeometry x="690" y="310" width="60" height="30" as="geometry"/>
                </mxCell>
                <mxCell id="37" value="" style="endArrow=classic;html=1;" edge="1" parent="1">
                    <mxGeometry width="50" height="50" relative="1" as="geometry">
                        <mxPoint x="750" y="457" as="sourcePoint"/>
                        <mxPoint x="720" y="527" as="targetPoint"/>
                    </mxGeometry>
                </mxCell>
                <mxCell id="38" value="REST" style="text;html=1;align=center;verticalAlign=middle;resizable=0;points=[];autosize=1;strokeColor=none;fillColor=none;" vertex="1" parent="1">
                    <mxGeometry x="730" y="477" width="60" height="30" as="geometry"/>
                </mxCell>
                <mxCell id="39" value="" style="endArrow=classic;startArrow=classic;html=1;exitX=1.033;exitY=0.356;exitDx=0;exitDy=0;exitPerimeter=0;entryX=-0.062;entryY=0.863;entryDx=0;entryDy=0;entryPerimeter=0;" edge="1" parent="1" source="14" target="3">
                    <mxGeometry width="50" height="50" relative="1" as="geometry">
                        <mxPoint x="340" y="420" as="sourcePoint"/>
                        <mxPoint x="410" y="370" as="targetPoint"/>
                    </mxGeometry>
                </mxCell>
                <mxCell id="40" value="" style="endArrow=classic;startArrow=classic;html=1;entryX=1.036;entryY=0.838;entryDx=0;entryDy=0;entryPerimeter=0;" edge="1" parent="1" target="3">
                    <mxGeometry width="50" height="50" relative="1" as="geometry">
                        <mxPoint x="620" y="510" as="sourcePoint"/>
                        <mxPoint x="660" y="370" as="targetPoint"/>
                    </mxGeometry>
                </mxCell>
                <mxCell id="41" value="Capable of deploying/Inferencing Model/Pipeline/Experiment.&lt;br&gt;Disclaimer: the WebUI is only implemented for basic pipeline since I have no time. &lt;br&gt;But the api can do anything" style="text;html=1;align=center;verticalAlign=middle;resizable=0;points=[];autosize=1;strokeColor=#005700;fillColor=#008a00;fontColor=#ffffff;" vertex="1" parent="1">
                    <mxGeometry x="310" y="680" width="460" height="60" as="geometry"/>
                </mxCell>
            </root>
        </mxGraphModel>
    </diagram>
</mxfile>